<?xml version="1.0" encoding="UTF-8" standalone="no"?>
<!-- Created with Inkscape (http://www.inkscape.org/) -->

<svg
   xmlns:dc="http://purl.org/dc/elements/1.1/"
   xmlns:cc="http://creativecommons.org/ns#"
   xmlns:rdf="http://www.w3.org/1999/02/22-rdf-syntax-ns#"
   xmlns:svg="http://www.w3.org/2000/svg"
   xmlns="http://www.w3.org/2000/svg"
   xmlns:sodipodi="http://sodipodi.sourceforge.net/DTD/sodipodi-0.dtd"
   xmlns:inkscape="http://www.inkscape.org/namespaces/inkscape"
   version="1.1"
   id="svg2"
   xml:space="preserve"
   width="708.15997"
   height="281.28"
   viewBox="0 0 708.15997 281.28"
   sodipodi:docname="mpc_planner.svg"
   inkscape:version="0.92.2 5c3e80d, 2017-08-06"><metadata
     id="metadata8"><rdf:RDF><cc:Work
         rdf:about=""><dc:format>image/svg+xml</dc:format><dc:type
           rdf:resource="http://purl.org/dc/dcmitype/StillImage" /><dc:title></dc:title></cc:Work></rdf:RDF></metadata><defs
     id="defs6"><clipPath
       clipPathUnits="userSpaceOnUse"
       id="clipPath18"><path
         d="M 0,0 H 2212.5 V 878.40448 H 0 Z"
         id="path16"
         inkscape:connector-curvature="0"
         style="clip-rule:evenodd" /></clipPath><clipPath
       clipPathUnits="userSpaceOnUse"
       id="clipPath30"><path
         d="M 0,0 H 2212.5 V 875.40649 H 0 Z"
         id="path28"
         inkscape:connector-curvature="0"
         style="clip-rule:evenodd" /></clipPath></defs><sodipodi:namedview
     pagecolor="#ffffff"
     bordercolor="#666666"
     borderopacity="1"
     objecttolerance="10"
     gridtolerance="10"
     guidetolerance="10"
     inkscape:pageopacity="0"
     inkscape:pageshadow="2"
     inkscape:window-width="1280"
     inkscape:window-height="679"
     id="namedview4"
     showgrid="false"
     inkscape:zoom="0.70694705"
     inkscape:cx="246.94605"
     inkscape:cy="159.21121"
     inkscape:window-x="0"
     inkscape:window-y="1"
     inkscape:window-maximized="1"
     inkscape:current-layer="g10" /><g
     id="g10"
     inkscape:groupmode="layer"
     inkscape:label="mpc_planner"
     transform="matrix(0.31999998,0,0,0.31999998,0,1.0365333e-5)"><g
       id="g24"><g
         id="g26"
         clip-path="url(#clipPath30)"><g
           id="g32"
           transform="scale(2.9979675)"><path
             d="M 276,1 H 396 V 61 H 276 Z"
             style="fill:#ffffff;fill-opacity:1;fill-rule:nonzero;stroke:none"
             id="path34"
             inkscape:connector-curvature="0" /><path
             d="M 276,1 H 396 V 61 H 276 Z"
             style="fill:none;stroke:#000000;stroke-width:1;stroke-linecap:butt;stroke-linejoin:miter;stroke-miterlimit:10;stroke-dasharray:none;stroke-opacity:1"
             id="path36"
             inkscape:connector-curvature="0" /><path
             d="M 288,1 V 61 M 384,1 v 60"
             style="fill:none;stroke:#000000;stroke-width:1;stroke-linecap:butt;stroke-linejoin:miter;stroke-miterlimit:10;stroke-dasharray:none;stroke-opacity:1"
             id="path38"
             inkscape:connector-curvature="0" /></g><g
           id="g40"
           transform="matrix(2.9979675,0,0,2.9979675,920.37604,59.959351)"><text
             transform="translate(0.546875,18)"
             style="font-variant:normal;font-weight:normal;font-size:20px;font-family:Helvetica;-inkscape-font-specification:Helvetica;writing-mode:lr-tb;fill:#000000;fill-opacity:1;fill-rule:nonzero;stroke:none"
             id="text44"><tspan
               x="0 14.443359 31.103516 44.443359"
               y="0"
               sodipodi:role="line"
               id="tspan42">NMPC</tspan></text>
</g><g
           id="g46"
           transform="scale(2.9979675)"><path
             d="m 541,171 v 41.75999"
             style="fill:none;stroke:#000000;stroke-width:1;stroke-linecap:butt;stroke-linejoin:miter;stroke-miterlimit:10;stroke-dasharray:none;stroke-opacity:1"
             id="path48"
             inkscape:connector-curvature="0" /><path
             d="m 541,218.75999 -4,-8 4,2 4,-2 z"
             style="fill:#000000;fill-opacity:1;fill-rule:nonzero;stroke:none"
             id="path50"
             inkscape:connector-curvature="0" /><path
             d="m 541,218.75999 -4,-8 4,2 4,-2 z"
             style="fill:none;stroke:#000000;stroke-width:1;stroke-linecap:butt;stroke-linejoin:miter;stroke-miterlimit:10;stroke-dasharray:none;stroke-opacity:1"
             id="path52"
             inkscape:connector-curvature="0" /><path
             d="m 475,111 h 132 c 0.59094,0 1.17621,0.0576 1.75574,0.17293 0.57959,0.11529 1.14233,0.286 1.68829,0.51214 0.54596,0.22615 1.06464,0.50338 1.55603,0.8317 0.49133,0.32831 0.94592,0.7014 1.36383,1.11927 0.41779,0.41786 0.7909,0.87247 1.11926,1.36382 0.32831,0.49136 0.60553,1.01001 0.83173,1.55598 0.22614,0.54597 0.39685,1.10875 0.51215,1.68834 C 615.94232,118.82378 616,119.40905 616,120 v 42 c 0,0.59094 -0.0577,1.17621 -0.17297,1.7558 -0.1153,0.57959 -0.28601,1.14236 -0.51215,1.68834 -0.2262,0.54596 -0.50342,1.06462 -0.83173,1.55597 -0.32836,0.49136 -0.70147,0.94598 -1.11926,1.36384 -0.41791,0.41786 -0.8725,0.79094 -1.36389,1.11925 -0.49133,0.32831 -1.01001,0.60555 -1.55597,0.8317 -0.54596,0.22615 -1.1087,0.39686 -1.68829,0.51216 C 608.17621,170.94235 607.59094,171 607,171 H 475 c -0.59097,0 -1.17627,-0.0576 -1.75586,-0.17294 -0.57962,-0.1153 -1.14242,-0.28601 -1.68838,-0.51216 -0.54599,-0.22615 -1.06464,-0.50339 -1.556,-0.8317 -0.49134,-0.32831 -0.94593,-0.70139 -1.36377,-1.11925 -0.41788,-0.41786 -0.79096,-0.87248 -1.1193,-1.36384 -0.32834,-0.49135 -0.60556,-1.01001 -0.83166,-1.55597 -0.22614,-0.54598 -0.39685,-1.10875 -0.51215,-1.68834 C 466.05762,163.17621 465.99997,162.59094 466,162 v -42 c -3e-5,-0.59095 0.0576,-1.17622 0.17288,-1.75582 0.1153,-0.57959 0.28601,-1.14237 0.51215,-1.68834 0.2261,-0.54597 0.50332,-1.06462 0.83166,-1.55598 0.32834,-0.49135 0.70142,-0.94596 1.1193,-1.36382 0.41784,-0.41787 0.87243,-0.79096 1.3638,-1.11928 0.49133,-0.32831 1.00998,-0.60554 1.55597,-0.83169 0.54596,-0.22614 1.10876,-0.39685 1.68838,-0.51214 C 473.82373,111.05765 474.40903,111 475,111 Z"
             style="fill:#ffffff;fill-opacity:1;fill-rule:nonzero;stroke:none"
             id="path54"
             inkscape:connector-curvature="0" /><path
             d="m 475,111 h 132 c 0.59094,0 1.17621,0.0576 1.75574,0.17293 0.57959,0.11529 1.14233,0.286 1.68829,0.51214 0.54596,0.22615 1.06464,0.50338 1.55603,0.8317 0.49133,0.32831 0.94592,0.7014 1.36383,1.11927 0.41779,0.41786 0.7909,0.87247 1.11926,1.36382 0.32831,0.49136 0.60553,1.01001 0.83173,1.55598 0.22614,0.54597 0.39685,1.10875 0.51215,1.68834 C 615.94232,118.82378 616,119.40905 616,120 v 42 c 0,0.59094 -0.0577,1.17621 -0.17297,1.7558 -0.1153,0.57959 -0.28601,1.14236 -0.51215,1.68834 -0.2262,0.54596 -0.50342,1.06462 -0.83173,1.55597 -0.32836,0.49136 -0.70147,0.94598 -1.11926,1.36384 -0.41791,0.41786 -0.8725,0.79094 -1.36389,1.11925 -0.49133,0.32831 -1.01001,0.60555 -1.55597,0.8317 -0.54596,0.22615 -1.1087,0.39686 -1.68829,0.51216 C 608.17621,170.94235 607.59094,171 607,171 H 475 c -0.59097,0 -1.17627,-0.0576 -1.75586,-0.17294 -0.57962,-0.1153 -1.14242,-0.28601 -1.68838,-0.51216 -0.54599,-0.22615 -1.06464,-0.50339 -1.556,-0.8317 -0.49134,-0.32831 -0.94593,-0.70139 -1.36377,-1.11925 -0.41788,-0.41786 -0.79096,-0.87248 -1.1193,-1.36384 -0.32834,-0.49135 -0.60556,-1.01001 -0.83166,-1.55597 -0.22614,-0.54598 -0.39685,-1.10875 -0.51215,-1.68834 C 466.05762,163.17621 465.99997,162.59094 466,162 v -42 c -3e-5,-0.59095 0.0576,-1.17622 0.17288,-1.75582 0.1153,-0.57959 0.28601,-1.14237 0.51215,-1.68834 0.2261,-0.54597 0.50332,-1.06462 0.83166,-1.55598 0.32834,-0.49135 0.70142,-0.94596 1.1193,-1.36382 0.41784,-0.41787 0.87243,-0.79096 1.3638,-1.11928 0.49133,-0.32831 1.00998,-0.60554 1.55597,-0.83169 0.54596,-0.22614 1.10876,-0.39685 1.68838,-0.51214 C 473.82373,111.05765 474.40903,111 475,111 Z"
             style="fill:none;stroke:#000000;stroke-width:1;stroke-linecap:butt;stroke-linejoin:miter;stroke-miterlimit:10;stroke-dasharray:none;stroke-opacity:1"
             id="path56"
             inkscape:connector-curvature="0" /></g><g
           id="g58"
           transform="matrix(2.9979675,0,0,2.9979675,1475,353.76016)"><text
             transform="translate(0.140625,18)"
             style="font-variant:normal;font-weight:normal;font-size:20px;font-family:Helvetica;-inkscape-font-specification:Helvetica;writing-mode:lr-tb;fill:#000000;fill-opacity:1;fill-rule:nonzero;stroke:none"
             id="text62"><tspan
               x="0 13.339844 18.896484 30.019531 35.576172 46.699219 52.255859 65.595703 72.255859 78.916016 90.039062"
               y="0"
               sodipodi:role="line"
               id="tspan60">State Error</tspan></text>
<text
             transform="translate(6.8125,42)"
             style="font-variant:normal;font-weight:normal;font-size:20px;font-family:Helvetica;-inkscape-font-specification:Helvetica;writing-mode:lr-tb;fill:#000000;fill-opacity:1;fill-rule:nonzero;stroke:none"
             id="text66"><tspan
               x="0 15.556641 26.679688 31.123047 42.246094 52.246094 57.802734 62.246094 72.246094"
               y="0"
               sodipodi:role="line"
               id="tspan64">Objective</tspan></text>
</g><g
           id="g68"
           transform="scale(2.9979675)"><path
             d="m 60,111 h 132 c 0.59094,0 1.17621,0.0576 1.75581,0.17293 0.57959,0.11529 1.14237,0.286 1.68833,0.51214 0.54596,0.22615 1.06462,0.50338 1.55598,0.8317 0.49137,0.32831 0.94597,0.7014 1.36383,1.11927 0.41786,0.41786 0.79096,0.87247 1.11925,1.36382 0.32832,0.49136 0.60555,1.01001 0.8317,1.55598 0.22615,0.54597 0.39686,1.10875 0.51216,1.68834 0.11528,0.5796 0.17292,1.16487 0.17294,1.75582 v 42 c -2e-5,0.59094 -0.0577,1.17621 -0.17296,1.7558 -0.11528,0.57959 -0.28599,1.14236 -0.51214,1.68834 -0.22615,0.54596 -0.50338,1.06462 -0.83168,1.55597 -0.32831,0.49136 -0.70141,0.94598 -1.11927,1.36384 -0.41786,0.41786 -0.87246,0.79094 -1.36384,1.11925 -0.49137,0.32831 -1.01003,0.60555 -1.55599,0.8317 -0.54596,0.22615 -1.10873,0.39686 -1.68832,0.51216 C 193.17621,170.94235 192.59094,171 192,171 H 60 c -0.590954,0 -1.176228,-0.0576 -1.755821,-0.17294 -0.579594,-0.1153 -1.142372,-0.28601 -1.688339,-0.51216 -0.545964,-0.22615 -1.064625,-0.50339 -1.555981,-0.8317 -0.491352,-0.32831 -0.945961,-0.70139 -1.363823,-1.11925 -0.417866,-0.41786 -0.790955,-0.87248 -1.119267,-1.36384 -0.328312,-0.49135 -0.605545,-1.01001 -0.831691,-1.55597 -0.226147,-0.54598 -0.396862,-1.10875 -0.51215,-1.68834 C 51.057644,163.17621 51,162.59094 51,162 v -42 c 0,-0.59095 0.05764,-1.17622 0.172928,-1.75582 0.115288,-0.57959 0.286003,-1.14237 0.51215,-1.68834 0.226146,-0.54597 0.503379,-1.06462 0.831691,-1.55598 0.328312,-0.49135 0.701401,-0.94596 1.119267,-1.36382 0.417862,-0.41787 0.872471,-0.79096 1.363827,-1.11928 0.491352,-0.32831 1.010013,-0.60554 1.55598,-0.83169 0.545964,-0.22614 1.108742,-0.39685 1.688336,-0.51214 C 58.823772,111.05765 59.409046,111 60,111 Z"
             style="fill:#ffffff;fill-opacity:1;fill-rule:nonzero;stroke:none"
             id="path70"
             inkscape:connector-curvature="0" /><path
             d="m 60,111 h 132 c 0.59094,0 1.17621,0.0576 1.75581,0.17293 0.57959,0.11529 1.14237,0.286 1.68833,0.51214 0.54596,0.22615 1.06462,0.50338 1.55598,0.8317 0.49137,0.32831 0.94597,0.7014 1.36383,1.11927 0.41786,0.41786 0.79096,0.87247 1.11925,1.36382 0.32832,0.49136 0.60555,1.01001 0.8317,1.55598 0.22615,0.54597 0.39686,1.10875 0.51216,1.68834 0.11528,0.5796 0.17292,1.16487 0.17294,1.75582 v 42 c -2e-5,0.59094 -0.0577,1.17621 -0.17296,1.7558 -0.11528,0.57959 -0.28599,1.14236 -0.51214,1.68834 -0.22615,0.54596 -0.50338,1.06462 -0.83168,1.55597 -0.32831,0.49136 -0.70141,0.94598 -1.11927,1.36384 -0.41786,0.41786 -0.87246,0.79094 -1.36384,1.11925 -0.49137,0.32831 -1.01003,0.60555 -1.55599,0.8317 -0.54596,0.22615 -1.10873,0.39686 -1.68832,0.51216 C 193.17621,170.94235 192.59094,171 192,171 H 60 c -0.590954,0 -1.176228,-0.0576 -1.755821,-0.17294 -0.579594,-0.1153 -1.142372,-0.28601 -1.688339,-0.51216 -0.545964,-0.22615 -1.064625,-0.50339 -1.555981,-0.8317 -0.491352,-0.32831 -0.945961,-0.70139 -1.363823,-1.11925 -0.417866,-0.41786 -0.790955,-0.87248 -1.119267,-1.36384 -0.328312,-0.49135 -0.605545,-1.01001 -0.831691,-1.55597 -0.226147,-0.54598 -0.396862,-1.10875 -0.51215,-1.68834 C 51.057644,163.17621 51,162.59094 51,162 v -42 c 0,-0.59095 0.05764,-1.17622 0.172928,-1.75582 0.115288,-0.57959 0.286003,-1.14237 0.51215,-1.68834 0.226146,-0.54597 0.503379,-1.06462 0.831691,-1.55598 0.328312,-0.49135 0.701401,-0.94596 1.119267,-1.36382 0.417862,-0.41787 0.872471,-0.79096 1.363827,-1.11928 0.491352,-0.32831 1.010013,-0.60554 1.55598,-0.83169 0.545964,-0.22614 1.108742,-0.39685 1.688336,-0.51214 C 58.823772,111.05765 59.409046,111 60,111 Z"
             style="fill:none;stroke:#000000;stroke-width:1;stroke-linecap:butt;stroke-linejoin:miter;stroke-miterlimit:10;stroke-dasharray:none;stroke-opacity:1"
             id="path72"
             inkscape:connector-curvature="0" /></g><g
           id="g74"
           transform="matrix(2.9979675,0,0,2.9979675,242.83537,353.76016)"><text
             transform="translate(0.03125,18)"
             style="font-variant:normal;font-weight:normal;font-size:20px;font-family:Helvetica;-inkscape-font-specification:Helvetica;writing-mode:lr-tb;fill:#000000;fill-opacity:1;fill-rule:nonzero;stroke:none"
             id="text78"><tspan
               x="0 15.556641 26.679688 36.679688 42.236328 53.359375 63.359375 67.802734 78.925781"
               y="0"
               sodipodi:role="line"
               id="tspan76">Obstacles</tspan></text>
<text
             transform="translate(2.8125,42)"
             style="font-variant:normal;font-weight:normal;font-size:20px;font-family:Helvetica;-inkscape-font-specification:Helvetica;writing-mode:lr-tb;fill:#000000;fill-opacity:1;fill-rule:nonzero;stroke:none"
             id="text82"><tspan
               x="0 15.556641 26.679688 31.123047 42.246094 52.246094 57.802734 62.246094 72.246094"
               y="0"
               sodipodi:role="line"
               id="tspan80">Objective</tspan></text>
</g><g
           id="g84"
           transform="scale(2.9979675)"><path
             d="m 101,256 c 1e-5,1.1463 -0.0803,2.28983 -0.24075,3.4306 -0.16052,1.14078 -0.40051,2.27329 -0.71999,3.39756 -0.319472,1.12426 -0.716888,2.23486 -1.192245,3.33181 -0.475357,1.09696 -1.026374,2.17493 -1.653045,3.23395 -0.626663,1.05905 -1.325966,2.09403 -2.097908,3.10498 -0.771942,1.01096 -1.612809,1.99295 -2.522599,2.94605 -0.909774,0.95312 -1.884094,1.87274 -2.92295,2.75882 -1.038857,0.88607 -2.137253,1.7344 -3.295182,2.54495 -1.157928,0.81058 -2.369819,1.57944 -3.635673,2.30664 -1.265846,0.7272 -2.579567,1.40924 -3.941155,2.04605 -1.361579,0.63687 -2.764465,1.22546 -4.208671,1.76581 -1.444206,0.54034 -2.92276,1.02984 -4.435669,1.4685 -1.512909,0.43869 -3.052887,0.82441 -4.619934,1.1572 -1.567051,0.33273 -3.153622,0.61093 -4.759716,0.83453 -1.606091,0.22367 -3.223976,0.39167 -4.853653,0.504 C 54.271183,290.94382 52.637562,291 51,291 c -1.637562,0 -3.271179,-0.0562 -4.900856,-0.16855 -1.629677,-0.11233 -3.247562,-0.28033 -4.853661,-0.504 -1.606094,-0.2236 -3.192665,-0.5018 -4.759716,-0.83456 -1.567051,-0.33276 -3.107029,-0.71848 -4.619941,-1.15717 -1.512909,-0.43866 -2.991465,-0.92816 -4.435665,-1.4685 -1.444201,-0.54038 -2.847092,-1.12897 -4.208676,-1.76584 -1.361582,-0.63681 -2.675299,-1.31882 -3.941151,-2.04602 -1.265852,-0.7272 -2.477745,-1.49606 -3.635674,-2.30664 -1.15793,-0.81055 -2.256325,-1.65888 -3.295183,-2.54495 -1.038859,-0.88608 -2.013178,-1.8057 -2.9229586,-2.75882 -0.9097805,-0.9531 -1.7506413,-1.93509 -2.522582,-2.94605 C 6.1319947,271.48795 5.4326901,270.45294 4.8060226,269.39389 4.1793551,268.3349 3.6283422,267.25693 3.152983,266.15997 2.677624,265.06302 2.2802081,263.95242 1.9607357,262.82816 1.6412634,261.70389 1.4012726,260.57138 1.2407637,259.4306 1.0802545,258.28983 1,257.1463 1,256 c 0,-1.14629 0.080254,-2.28983 0.2407637,-3.4306 0.1605089,-1.14077 0.4004997,-2.27329 0.719972,-3.39757 0.3194724,-1.12425 0.7168883,-2.23485 1.1922473,-3.33179 0.4753592,-1.09694 1.0263721,-2.17492 1.6530396,-3.23398 0.6266675,-1.05903 1.3259721,-2.09402 2.0979138,-3.10496 0.7719407,-1.01094 1.6128015,-1.99297 2.522582,-2.94609 0.9097806,-0.95308 1.8840996,-1.87268 2.9229586,-2.75879 1.038858,-0.88609 2.137253,-1.73441 3.295183,-2.54497 1.157929,-0.81055 2.369822,-1.57942 3.635674,-2.30662 1.265852,-0.72721 2.579571,-1.40923 3.941153,-2.04609 1.361582,-0.63682 2.764475,-1.22543 4.208677,-1.76579 1.444199,-0.54036 2.922753,-1.02988 4.435662,-1.46855 1.512912,-0.43866 3.05289,-0.82436 4.619941,-1.15709 1.567047,-0.33275 3.153618,-0.61095 4.759713,-0.83459 1.606098,-0.22362 3.223987,-0.39162 4.853664,-0.50397 C 47.728821,221.0562 49.362438,221.00002 51,221 c 1.637562,2e-5 3.271183,0.0562 4.90086,0.16853 1.629677,0.11237 3.247562,0.28035 4.853653,0.50397 1.606094,0.22363 3.192665,0.50183 4.759716,0.83458 1.567047,0.33275 3.107025,0.71844 4.619934,1.1571 1.512909,0.43868 2.991463,0.92821 4.435669,1.46857 1.444206,0.54036 2.847092,1.12897 4.208671,1.76579 1.361588,0.63686 2.675309,1.31888 3.941155,2.04609 1.265854,0.7272 2.477745,1.49607 3.635673,2.30662 1.157929,0.81056 2.256325,1.65889 3.295182,2.54498 1.038856,0.8861 2.013176,1.8057 2.92295,2.75878 0.90979,0.95312 1.750657,1.93516 2.522599,2.9461 0.771942,1.01094 1.471245,2.04592 2.097908,3.10495 0.626671,1.05906 1.177688,2.13704 1.653045,3.23397 0.475357,1.09694 0.872773,2.20755 1.192245,3.3318 0.31948,1.12428 0.55947,2.2568 0.71999,3.39758 0.1605,1.14076 0.24076,2.2843 0.24075,3.43059 z"
             style="fill:#ffffff;fill-opacity:1;fill-rule:nonzero;stroke:none"
             id="path86"
             inkscape:connector-curvature="0" /><path
             d="m 101,256 c 1e-5,1.1463 -0.0803,2.28983 -0.24075,3.4306 -0.16052,1.14078 -0.40051,2.27329 -0.71999,3.39756 -0.319472,1.12426 -0.716888,2.23486 -1.192245,3.33181 -0.475357,1.09696 -1.026374,2.17493 -1.653045,3.23395 -0.626663,1.05905 -1.325966,2.09403 -2.097908,3.10498 -0.771942,1.01096 -1.612809,1.99295 -2.522599,2.94605 -0.909774,0.95312 -1.884094,1.87274 -2.92295,2.75882 -1.038857,0.88607 -2.137253,1.7344 -3.295182,2.54495 -1.157928,0.81058 -2.369819,1.57944 -3.635673,2.30664 -1.265846,0.7272 -2.579567,1.40924 -3.941155,2.04605 -1.361579,0.63687 -2.764465,1.22546 -4.208671,1.76581 -1.444206,0.54034 -2.92276,1.02984 -4.435669,1.4685 -1.512909,0.43869 -3.052887,0.82441 -4.619934,1.1572 -1.567051,0.33273 -3.153622,0.61093 -4.759716,0.83453 -1.606091,0.22367 -3.223976,0.39167 -4.853653,0.504 C 54.271183,290.94382 52.637562,291 51,291 c -1.637562,0 -3.271179,-0.0562 -4.900856,-0.16855 -1.629677,-0.11233 -3.247562,-0.28033 -4.853661,-0.504 -1.606094,-0.2236 -3.192665,-0.5018 -4.759716,-0.83456 -1.567051,-0.33276 -3.107029,-0.71848 -4.619941,-1.15717 -1.512909,-0.43866 -2.991465,-0.92816 -4.435665,-1.4685 -1.444201,-0.54038 -2.847092,-1.12897 -4.208676,-1.76584 -1.361582,-0.63681 -2.675299,-1.31882 -3.941151,-2.04602 -1.265852,-0.7272 -2.477745,-1.49606 -3.635674,-2.30664 -1.15793,-0.81055 -2.256325,-1.65888 -3.295183,-2.54495 -1.038859,-0.88608 -2.013178,-1.8057 -2.9229586,-2.75882 -0.9097805,-0.9531 -1.7506413,-1.93509 -2.522582,-2.94605 C 6.1319947,271.48795 5.4326901,270.45294 4.8060226,269.39389 4.1793551,268.3349 3.6283422,267.25693 3.152983,266.15997 2.677624,265.06302 2.2802081,263.95242 1.9607357,262.82816 1.6412634,261.70389 1.4012726,260.57138 1.2407637,259.4306 1.0802545,258.28983 1,257.1463 1,256 c 0,-1.14629 0.080254,-2.28983 0.2407637,-3.4306 0.1605089,-1.14077 0.4004997,-2.27329 0.719972,-3.39757 0.3194724,-1.12425 0.7168883,-2.23485 1.1922473,-3.33179 0.4753592,-1.09694 1.0263721,-2.17492 1.6530396,-3.23398 0.6266675,-1.05903 1.3259721,-2.09402 2.0979138,-3.10496 0.7719407,-1.01094 1.6128015,-1.99297 2.522582,-2.94609 0.9097806,-0.95308 1.8840996,-1.87268 2.9229586,-2.75879 1.038858,-0.88609 2.137253,-1.73441 3.295183,-2.54497 1.157929,-0.81055 2.369822,-1.57942 3.635674,-2.30662 1.265852,-0.72721 2.579571,-1.40923 3.941153,-2.04609 1.361582,-0.63682 2.764475,-1.22543 4.208677,-1.76579 1.444199,-0.54036 2.922753,-1.02988 4.435662,-1.46855 1.512912,-0.43866 3.05289,-0.82436 4.619941,-1.15709 1.567047,-0.33275 3.153618,-0.61095 4.759713,-0.83459 1.606098,-0.22362 3.223987,-0.39162 4.853664,-0.50397 C 47.728821,221.0562 49.362438,221.00002 51,221 c 1.637562,2e-5 3.271183,0.0562 4.90086,0.16853 1.629677,0.11237 3.247562,0.28035 4.853653,0.50397 1.606094,0.22363 3.192665,0.50183 4.759716,0.83458 1.567047,0.33275 3.107025,0.71844 4.619934,1.1571 1.512909,0.43868 2.991463,0.92821 4.435669,1.46857 1.444206,0.54036 2.847092,1.12897 4.208671,1.76579 1.361588,0.63686 2.675309,1.31888 3.941155,2.04609 1.265854,0.7272 2.477745,1.49607 3.635673,2.30662 1.157929,0.81056 2.256325,1.65889 3.295182,2.54498 1.038856,0.8861 2.013176,1.8057 2.92295,2.75878 0.90979,0.95312 1.750657,1.93516 2.522599,2.9461 0.771942,1.01094 1.471245,2.04592 2.097908,3.10495 0.626671,1.05906 1.177688,2.13704 1.653045,3.23397 0.475357,1.09694 0.872773,2.20755 1.192245,3.3318 0.31948,1.12428 0.55947,2.2568 0.71999,3.39758 0.1605,1.14076 0.24076,2.2843 0.24075,3.43059 z"
             style="fill:none;stroke:#000000;stroke-width:1;stroke-linecap:butt;stroke-linejoin:miter;stroke-miterlimit:10;stroke-dasharray:none;stroke-opacity:1"
             id="path88"
             inkscape:connector-curvature="0" /></g><g
           id="g90"
           transform="matrix(2.9979675,0,0,2.9979675,74.949188,734.50201)"><text
             transform="translate(0.484375,18)"
             style="font-variant:normal;font-weight:normal;font-size:20px;font-family:Helvetica;-inkscape-font-specification:Helvetica;writing-mode:lr-tb;fill:#000000;fill-opacity:1;fill-rule:nonzero;stroke:none"
             id="text94"><tspan
               x="0 13.339844 18.896484 30.019531 35.576172 40.019531"
               y="0"
               sodipodi:role="line"
               id="tspan92">Static</tspan></text>
</g><g
           id="g96"
           transform="scale(2.9979675)"><path
             d="m 251,256 c 0,1.1463 -0.0803,2.28983 -0.24077,3.4306 -0.16051,1.14078 -0.40051,2.27329 -0.72,3.39756 -0.31947,1.12426 -0.71689,2.23486 -1.19225,3.33181 -0.47535,1.09696 -1.02636,2.17493 -1.65304,3.23395 -0.62666,1.05905 -1.32596,2.09403 -2.09789,3.10498 -0.77194,1.01096 -1.6128,1.99295 -2.52258,2.94605 -0.90977,0.95312 -1.88408,1.87274 -2.92294,2.75882 -1.03887,0.88607 -2.13727,1.7344 -3.29521,2.54495 -1.15792,0.81058 -2.3698,1.57944 -3.63565,2.30664 -1.26586,0.7272 -2.57959,1.40924 -3.94118,2.04605 -1.36157,0.63687 -2.76447,1.22546 -4.20867,1.76581 -1.44419,0.54034 -2.92276,1.02984 -4.43568,1.4685 -1.51289,0.43869 -3.05287,0.82441 -4.61992,1.1572 -1.56705,0.33273 -3.15362,0.61093 -4.75972,0.83453 -1.60608,0.22367 -3.22395,0.39167 -4.85364,0.504 C 204.27119,290.94382 202.63757,291 201,291 c -1.63756,0 -3.27118,-0.0562 -4.90085,-0.16855 -1.62968,-0.11233 -3.24759,-0.28033 -4.85368,-0.504 -1.60608,-0.2236 -3.19264,-0.5018 -4.75969,-0.83456 -1.56706,-0.33276 -3.10704,-0.71848 -4.61997,-1.15717 -1.51289,-0.43866 -2.99144,-0.92816 -4.43563,-1.4685 -1.4442,-0.54038 -2.84711,-1.12897 -4.2087,-1.76584 -1.36157,-0.63681 -2.67529,-1.31882 -3.94115,-2.04602 -1.26585,-0.7272 -2.47775,-1.49606 -3.63568,-2.30664 -1.15793,-0.81055 -2.25631,-1.65888 -3.29518,-2.54495 -1.03886,-0.88608 -2.01318,-1.8057 -2.92297,-2.75882 -0.90978,-0.9531 -1.75063,-1.93509 -2.52257,-2.94605 -0.77194,-1.01095 -1.47125,-2.04596 -2.09793,-3.10501 -0.62666,-1.05899 -1.17767,-2.13696 -1.65303,-3.23392 -0.47536,-1.09695 -0.87276,-2.20755 -1.19223,-3.33181 -0.31947,-1.12427 -0.55946,-2.25678 -0.71997,-3.39756 C 151.08026,258.28983 151,257.1463 151,256 c 0,-1.14629 0.0803,-2.28983 0.24077,-3.4306 0.16051,-1.14077 0.4005,-2.27329 0.71997,-3.39757 0.31947,-1.12425 0.71689,-2.23485 1.19224,-3.33179 0.47536,-1.09694 1.02636,-2.17492 1.65302,-3.23398 0.62668,-1.05903 1.32599,-2.09402 2.09793,-3.10496 0.77194,-1.01094 1.61279,-1.99297 2.52257,-2.94609 0.90979,-0.95308 1.88411,-1.87268 2.92297,-2.75879 1.03887,-0.88609 2.13725,-1.73441 3.29518,-2.54497 1.15793,-0.81055 2.36983,-1.57942 3.63568,-2.30662 1.26586,-0.72721 2.57958,-1.40923 3.94115,-2.04609 1.36159,-0.63682 2.76448,-1.22543 4.20868,-1.76579 1.4442,-0.54036 2.92276,-1.02988 4.43565,-1.46855 1.51293,-0.43866 3.05291,-0.82436 4.61997,-1.15709 1.56705,-0.33275 3.15361,-0.61095 4.75969,-0.83459 1.60609,-0.22362 3.224,-0.39162 4.85368,-0.50397 1.62967,-0.11235 3.26329,-0.16853 4.90085,-0.16855 1.63757,2e-5 3.27119,0.0562 4.90086,0.16853 1.62969,0.11237 3.24756,0.28035 4.85364,0.50397 1.6061,0.22363 3.19267,0.50183 4.75972,0.83458 1.56705,0.33275 3.10703,0.71844 4.61992,1.1571 1.51292,0.43868 2.99149,0.92821 4.43568,1.46857 1.4442,0.54036 2.8471,1.12897 4.20867,1.76579 1.36159,0.63686 2.67531,1.31888 3.94116,2.04609 1.26585,0.7272 2.47775,1.49607 3.63567,2.30662 1.15794,0.81056 2.25634,1.65889 3.29521,2.54498 1.03886,0.8861 2.01317,1.8057 2.92294,2.75878 0.90978,0.95312 1.75064,1.93516 2.52257,2.9461 0.77194,1.01094 1.47124,2.04592 2.0979,3.10495 0.62668,1.05906 1.1777,2.13704 1.65306,3.23397 0.47536,1.09694 0.87276,2.20755 1.19223,3.3318 0.31949,1.12428 0.55949,2.2568 0.72,3.39758 C 250.91974,253.71017 251,254.85371 251,256 Z"
             style="fill:#ffffff;fill-opacity:1;fill-rule:nonzero;stroke:none"
             id="path98"
             inkscape:connector-curvature="0" /><path
             d="m 251,256 c 0,1.1463 -0.0803,2.28983 -0.24077,3.4306 -0.16051,1.14078 -0.40051,2.27329 -0.72,3.39756 -0.31947,1.12426 -0.71689,2.23486 -1.19225,3.33181 -0.47535,1.09696 -1.02636,2.17493 -1.65304,3.23395 -0.62666,1.05905 -1.32596,2.09403 -2.09789,3.10498 -0.77194,1.01096 -1.6128,1.99295 -2.52258,2.94605 -0.90977,0.95312 -1.88408,1.87274 -2.92294,2.75882 -1.03887,0.88607 -2.13727,1.7344 -3.29521,2.54495 -1.15792,0.81058 -2.3698,1.57944 -3.63565,2.30664 -1.26586,0.7272 -2.57959,1.40924 -3.94118,2.04605 -1.36157,0.63687 -2.76447,1.22546 -4.20867,1.76581 -1.44419,0.54034 -2.92276,1.02984 -4.43568,1.4685 -1.51289,0.43869 -3.05287,0.82441 -4.61992,1.1572 -1.56705,0.33273 -3.15362,0.61093 -4.75972,0.83453 -1.60608,0.22367 -3.22395,0.39167 -4.85364,0.504 C 204.27119,290.94382 202.63757,291 201,291 c -1.63756,0 -3.27118,-0.0562 -4.90085,-0.16855 -1.62968,-0.11233 -3.24759,-0.28033 -4.85368,-0.504 -1.60608,-0.2236 -3.19264,-0.5018 -4.75969,-0.83456 -1.56706,-0.33276 -3.10704,-0.71848 -4.61997,-1.15717 -1.51289,-0.43866 -2.99144,-0.92816 -4.43563,-1.4685 -1.4442,-0.54038 -2.84711,-1.12897 -4.2087,-1.76584 -1.36157,-0.63681 -2.67529,-1.31882 -3.94115,-2.04602 -1.26585,-0.7272 -2.47775,-1.49606 -3.63568,-2.30664 -1.15793,-0.81055 -2.25631,-1.65888 -3.29518,-2.54495 -1.03886,-0.88608 -2.01318,-1.8057 -2.92297,-2.75882 -0.90978,-0.9531 -1.75063,-1.93509 -2.52257,-2.94605 -0.77194,-1.01095 -1.47125,-2.04596 -2.09793,-3.10501 -0.62666,-1.05899 -1.17767,-2.13696 -1.65303,-3.23392 -0.47536,-1.09695 -0.87276,-2.20755 -1.19223,-3.33181 -0.31947,-1.12427 -0.55946,-2.25678 -0.71997,-3.39756 C 151.08026,258.28983 151,257.1463 151,256 c 0,-1.14629 0.0803,-2.28983 0.24077,-3.4306 0.16051,-1.14077 0.4005,-2.27329 0.71997,-3.39757 0.31947,-1.12425 0.71689,-2.23485 1.19224,-3.33179 0.47536,-1.09694 1.02636,-2.17492 1.65302,-3.23398 0.62668,-1.05903 1.32599,-2.09402 2.09793,-3.10496 0.77194,-1.01094 1.61279,-1.99297 2.52257,-2.94609 0.90979,-0.95308 1.88411,-1.87268 2.92297,-2.75879 1.03887,-0.88609 2.13725,-1.73441 3.29518,-2.54497 1.15793,-0.81055 2.36983,-1.57942 3.63568,-2.30662 1.26586,-0.72721 2.57958,-1.40923 3.94115,-2.04609 1.36159,-0.63682 2.76448,-1.22543 4.20868,-1.76579 1.4442,-0.54036 2.92276,-1.02988 4.43565,-1.46855 1.51293,-0.43866 3.05291,-0.82436 4.61997,-1.15709 1.56705,-0.33275 3.15361,-0.61095 4.75969,-0.83459 1.60609,-0.22362 3.224,-0.39162 4.85368,-0.50397 1.62967,-0.11235 3.26329,-0.16853 4.90085,-0.16855 1.63757,2e-5 3.27119,0.0562 4.90086,0.16853 1.62969,0.11237 3.24756,0.28035 4.85364,0.50397 1.6061,0.22363 3.19267,0.50183 4.75972,0.83458 1.56705,0.33275 3.10703,0.71844 4.61992,1.1571 1.51292,0.43868 2.99149,0.92821 4.43568,1.46857 1.4442,0.54036 2.8471,1.12897 4.20867,1.76579 1.36159,0.63686 2.67531,1.31888 3.94116,2.04609 1.26585,0.7272 2.47775,1.49607 3.63567,2.30662 1.15794,0.81056 2.25634,1.65889 3.29521,2.54498 1.03886,0.8861 2.01317,1.8057 2.92294,2.75878 0.90978,0.95312 1.75064,1.93516 2.52257,2.9461 0.77194,1.01094 1.47124,2.04592 2.0979,3.10495 0.62668,1.05906 1.1777,2.13704 1.65306,3.23397 0.47536,1.09694 0.87276,2.20755 1.19223,3.3318 0.31949,1.12428 0.55949,2.2568 0.72,3.39758 C 250.91974,253.71017 251,254.85371 251,256 Z"
             style="fill:none;stroke:#000000;stroke-width:1;stroke-linecap:butt;stroke-linejoin:miter;stroke-miterlimit:10;stroke-dasharray:none;stroke-opacity:1"
             id="path100"
             inkscape:connector-curvature="0" /></g><g
           id="g102"
           transform="matrix(2.9979675,0,0,2.9979675,485.67075,734.50201)"><text
             transform="translate(0.59375,18)"
             style="font-variant:normal;font-weight:normal;font-size:20px;font-family:Helvetica;-inkscape-font-specification:Helvetica;writing-mode:lr-tb;fill:#000000;fill-opacity:1;fill-rule:nonzero;stroke:none"
             id="text106"><tspan
               x="0 14.443359 24.443359 35.566406 46.689453 63.349609 67.792969"
               y="0"
               sodipodi:role="line"
               id="tspan104">Dynamic</tspan></text>
</g><g
           id="g108"
           transform="scale(2.9979675)"><path
             d="m 456,256 c 0,1.1463 -0.0803,2.28983 -0.24078,3.4306 -0.16053,1.14078 -0.40052,2.27329 -0.72,3.39756 -0.31946,1.12426 -0.71686,2.23486 -1.19224,3.33181 -0.47534,1.09696 -1.02636,2.17493 -1.65304,3.23395 -0.62665,1.05905 -1.32593,2.09403 -2.09787,3.10498 -0.77194,1.01096 -1.61282,1.99295 -2.52261,2.94605 -0.90976,0.95312 -1.8841,1.87274 -2.92295,2.75882 -1.03885,0.88607 -2.13727,1.7344 -3.29519,2.54495 -1.15793,0.81058 -2.36982,1.57944 -3.63568,2.30664 -1.26584,0.7272 -2.57956,1.40924 -3.94117,2.04605 -1.36157,0.63687 -2.76446,1.22546 -4.20865,1.76581 -1.44421,0.54034 -2.92279,1.02984 -4.4357,1.4685 -1.5129,0.43869 -3.05285,0.82441 -4.6199,1.1572 -1.56705,0.33273 -3.15362,0.61093 -4.75973,0.83453 -1.60608,0.22367 -3.22397,0.39167 -4.85364,0.504 C 409.27118,290.94382 407.63754,291 406,291 c -1.63754,0 -3.27118,-0.0562 -4.90085,-0.16855 -1.6297,-0.11233 -3.24759,-0.28033 -4.8537,-0.504 -1.60608,-0.2236 -3.19265,-0.5018 -4.75973,-0.83456 -1.56705,-0.33276 -3.10703,-0.71848 -4.61994,-1.15717 -1.51291,-0.43866 -2.99148,-0.92816 -4.43567,-1.4685 -1.44418,-0.54038 -2.84707,-1.12897 -4.20867,-1.76584 -1.36158,-0.63681 -2.6753,-1.31882 -3.94114,-2.04602 -1.26587,-0.7272 -2.47775,-1.49606 -3.63568,-2.30664 -1.15793,-0.81055 -2.25631,-1.65888 -3.29519,-2.54495 -1.03885,-0.88608 -2.01316,-1.8057 -2.92298,-2.75882 -0.90976,-0.9531 -1.75061,-1.93509 -2.52255,-2.94605 -0.77194,-1.01095 -1.47125,-2.04596 -2.09793,-3.10501 -0.62665,-1.05899 -1.17764,-2.13696 -1.65299,-3.23392 -0.47537,-1.09695 -0.8728,-2.20755 -1.19229,-3.33181 -0.31942,-1.12427 -0.55941,-2.25678 -0.71991,-3.39756 C 356.08029,258.28983 356.00003,257.1463 356,256 c 3e-5,-1.14629 0.0803,-2.28983 0.24078,-3.4306 0.1605,-1.14077 0.40049,-2.27329 0.71991,-3.39757 0.31949,-1.12425 0.71692,-2.23485 1.19229,-3.33179 0.47535,-1.09694 1.02634,-2.17492 1.65299,-3.23398 0.62668,-1.05903 1.32602,-2.09402 2.09796,-3.10496 0.77194,-1.01094 1.61279,-1.99297 2.52255,-2.94609 0.90979,-0.95308 1.88413,-1.87268 2.92298,-2.75879 1.03885,-0.88609 2.13723,-1.73441 3.29516,-2.54497 1.15793,-0.81055 2.36981,-1.57942 3.63568,-2.30662 1.26584,-0.72721 2.57953,-1.40923 3.94111,-2.04609 1.3616,-0.63682 2.76449,-1.22543 4.2087,-1.76579 1.44419,-0.54036 2.92276,-1.02988 4.43567,-1.46855 1.51291,-0.43866 3.05292,-0.82436 4.61997,-1.15709 1.56705,-0.33275 3.15362,-0.61095 4.7597,-0.83459 1.60611,-0.22362 3.224,-0.39162 4.8537,-0.50397 1.62967,-0.11235 3.26331,-0.16853 4.90085,-0.16855 1.63754,2e-5 3.27118,0.0562 4.90085,0.16853 1.62967,0.11237 3.24756,0.28035 4.85364,0.50397 1.60611,0.22363 3.19268,0.50183 4.75973,0.83458 1.56705,0.33275 3.107,0.71844 4.6199,1.1571 1.51291,0.43868 2.99149,0.92821 4.43567,1.46857 1.44422,0.54036 2.84711,1.12897 4.20868,1.76579 1.36161,0.63686 2.67533,1.31888 3.9412,2.04609 1.26583,0.7272 2.47772,1.49607 3.63565,2.30662 1.15792,0.81056 2.25634,1.65889 3.29519,2.54498 1.03885,0.8861 2.01319,1.8057 2.92295,2.75878 0.90979,0.95312 1.75067,1.93516 2.52261,2.9461 0.77194,1.01094 1.47122,2.04592 2.09787,3.10495 0.62668,1.05906 1.1777,2.13704 1.65304,3.23397 0.47538,1.09694 0.87278,2.20755 1.19224,3.3318 0.31948,1.12428 0.55947,2.2568 0.72,3.39758 C 455.91974,253.71017 456,254.85371 456,256 Z"
             style="fill:#ffffff;fill-opacity:1;fill-rule:nonzero;stroke:none"
             id="path110"
             inkscape:connector-curvature="0" /><path
             d="m 456,256 c 0,1.1463 -0.0803,2.28983 -0.24078,3.4306 -0.16053,1.14078 -0.40052,2.27329 -0.72,3.39756 -0.31946,1.12426 -0.71686,2.23486 -1.19224,3.33181 -0.47534,1.09696 -1.02636,2.17493 -1.65304,3.23395 -0.62665,1.05905 -1.32593,2.09403 -2.09787,3.10498 -0.77194,1.01096 -1.61282,1.99295 -2.52261,2.94605 -0.90976,0.95312 -1.8841,1.87274 -2.92295,2.75882 -1.03885,0.88607 -2.13727,1.7344 -3.29519,2.54495 -1.15793,0.81058 -2.36982,1.57944 -3.63568,2.30664 -1.26584,0.7272 -2.57956,1.40924 -3.94117,2.04605 -1.36157,0.63687 -2.76446,1.22546 -4.20865,1.76581 -1.44421,0.54034 -2.92279,1.02984 -4.4357,1.4685 -1.5129,0.43869 -3.05285,0.82441 -4.6199,1.1572 -1.56705,0.33273 -3.15362,0.61093 -4.75973,0.83453 -1.60608,0.22367 -3.22397,0.39167 -4.85364,0.504 C 409.27118,290.94382 407.63754,291 406,291 c -1.63754,0 -3.27118,-0.0562 -4.90085,-0.16855 -1.6297,-0.11233 -3.24759,-0.28033 -4.8537,-0.504 -1.60608,-0.2236 -3.19265,-0.5018 -4.75973,-0.83456 -1.56705,-0.33276 -3.10703,-0.71848 -4.61994,-1.15717 -1.51291,-0.43866 -2.99148,-0.92816 -4.43567,-1.4685 -1.44418,-0.54038 -2.84707,-1.12897 -4.20867,-1.76584 -1.36158,-0.63681 -2.6753,-1.31882 -3.94114,-2.04602 -1.26587,-0.7272 -2.47775,-1.49606 -3.63568,-2.30664 -1.15793,-0.81055 -2.25631,-1.65888 -3.29519,-2.54495 -1.03885,-0.88608 -2.01316,-1.8057 -2.92298,-2.75882 -0.90976,-0.9531 -1.75061,-1.93509 -2.52255,-2.94605 -0.77194,-1.01095 -1.47125,-2.04596 -2.09793,-3.10501 -0.62665,-1.05899 -1.17764,-2.13696 -1.65299,-3.23392 -0.47537,-1.09695 -0.8728,-2.20755 -1.19229,-3.33181 -0.31942,-1.12427 -0.55941,-2.25678 -0.71991,-3.39756 C 356.08029,258.28983 356.00003,257.1463 356,256 c 3e-5,-1.14629 0.0803,-2.28983 0.24078,-3.4306 0.1605,-1.14077 0.40049,-2.27329 0.71991,-3.39757 0.31949,-1.12425 0.71692,-2.23485 1.19229,-3.33179 0.47535,-1.09694 1.02634,-2.17492 1.65299,-3.23398 0.62668,-1.05903 1.32602,-2.09402 2.09796,-3.10496 0.77194,-1.01094 1.61279,-1.99297 2.52255,-2.94609 0.90979,-0.95308 1.88413,-1.87268 2.92298,-2.75879 1.03885,-0.88609 2.13723,-1.73441 3.29516,-2.54497 1.15793,-0.81055 2.36981,-1.57942 3.63568,-2.30662 1.26584,-0.72721 2.57953,-1.40923 3.94111,-2.04609 1.3616,-0.63682 2.76449,-1.22543 4.2087,-1.76579 1.44419,-0.54036 2.92276,-1.02988 4.43567,-1.46855 1.51291,-0.43866 3.05292,-0.82436 4.61997,-1.15709 1.56705,-0.33275 3.15362,-0.61095 4.7597,-0.83459 1.60611,-0.22362 3.224,-0.39162 4.8537,-0.50397 1.62967,-0.11235 3.26331,-0.16853 4.90085,-0.16855 1.63754,2e-5 3.27118,0.0562 4.90085,0.16853 1.62967,0.11237 3.24756,0.28035 4.85364,0.50397 1.60611,0.22363 3.19268,0.50183 4.75973,0.83458 1.56705,0.33275 3.107,0.71844 4.6199,1.1571 1.51291,0.43868 2.99149,0.92821 4.43567,1.46857 1.44422,0.54036 2.84711,1.12897 4.20868,1.76579 1.36161,0.63686 2.67533,1.31888 3.9412,2.04609 1.26583,0.7272 2.47772,1.49607 3.63565,2.30662 1.15792,0.81056 2.25634,1.65889 3.29519,2.54498 1.03885,0.8861 2.01319,1.8057 2.92295,2.75878 0.90979,0.95312 1.75067,1.93516 2.52261,2.9461 0.77194,1.01094 1.47122,2.04592 2.09787,3.10495 0.62668,1.05906 1.1777,2.13704 1.65304,3.23397 0.47538,1.09694 0.87278,2.20755 1.19224,3.3318 0.31948,1.12428 0.55947,2.2568 0.72,3.39758 C 455.91974,253.71017 456,254.85371 456,256 Z"
             style="fill:none;stroke:#000000;stroke-width:1;stroke-linecap:butt;stroke-linejoin:miter;stroke-miterlimit:10;stroke-dasharray:none;stroke-opacity:1"
             id="path112"
             inkscape:connector-curvature="0" /></g><g
           id="g114"
           transform="matrix(2.9979675,0,0,2.9979675,1085.2643,734.50201)"><text
             transform="translate(0.59375,18)"
             style="font-variant:normal;font-weight:normal;font-size:20px;font-family:Helvetica;-inkscape-font-specification:Helvetica;writing-mode:lr-tb;fill:#000000;fill-opacity:1;fill-rule:nonzero;stroke:none"
             id="text118"><tspan
               x="0 13.339844 17.783203 28.90625 40.029297 56.689453 67.8125 73.369141 77.8125"
               y="0"
               sodipodi:role="line"
               id="tspan116">Kinematic</tspan></text>
</g><g
           id="g120"
           transform="scale(2.9979675)"><path
             d="m 591,256 c 0,1.1463 -0.0803,2.28983 -0.24078,3.4306 -0.16047,1.14078 -0.40052,2.27329 -0.72004,3.39756 -0.31945,1.12426 -0.71685,2.23486 -1.1922,3.33181 -0.47534,1.09696 -1.02636,2.17493 -1.65307,3.23395 -0.62665,1.05905 -1.32593,2.09403 -2.09784,3.10498 -0.77191,1.01096 -1.61279,1.99295 -2.52264,2.94605 -0.90973,0.95312 -1.88404,1.87274 -2.92292,2.75882 -1.03888,0.88607 -2.13733,1.7344 -3.29522,2.54495 -1.1579,0.81058 -2.36976,1.57944 -3.63556,2.30664 -1.26587,0.7272 -2.57959,1.40924 -3.94123,2.04605 -1.36163,0.63687 -2.76452,1.22546 -4.20868,1.76581 -1.44415,0.54034 -2.92273,1.02984 -4.43573,1.4685 -1.51287,0.43869 -3.05279,0.82441 -4.61987,1.1572 -1.56708,0.33273 -3.15362,0.61093 -4.75976,0.83453 -1.60602,0.22367 -3.22388,0.39167 -4.85358,0.504 C 544.27118,290.94382 542.63757,291 541,291 c -1.63751,0 -3.27112,-0.0562 -4.90082,-0.16855 -1.6297,-0.11233 -3.24762,-0.28033 -4.8537,-0.504 -1.60614,-0.2236 -3.19268,-0.5018 -4.7597,-0.83456 -1.56708,-0.33276 -3.10712,-0.71848 -4.62,-1.15717 -1.51287,-0.43866 -2.99139,-0.92816 -4.43567,-1.4685 -1.44415,-0.54038 -2.84704,-1.12897 -4.20867,-1.76584 -1.36155,-0.63681 -2.67527,-1.31882 -3.94111,-2.04602 -1.26583,-0.7272 -2.47775,-1.49606 -3.63568,-2.30664 -1.15793,-0.81055 -2.25631,-1.65888 -3.29519,-2.54495 -1.03888,-0.88608 -2.01322,-1.8057 -2.92301,-2.75882 -0.90976,-0.9531 -1.75061,-1.93509 -2.52255,-2.94605 -0.77194,-1.01095 -1.47125,-2.04596 -2.09793,-3.10501 -0.62665,-1.05899 -1.17764,-2.13696 -1.65302,-3.23392 -0.47537,-1.09695 -0.87277,-2.20755 -1.19226,-3.33181 -0.31942,-1.12427 -0.55941,-2.25678 -0.71991,-3.39756 C 491.08029,258.28983 491.00003,257.1463 491,256 c 3e-5,-1.14629 0.0803,-2.28983 0.24078,-3.4306 0.16053,-1.14077 0.40052,-2.27329 0.71994,-3.39757 0.31949,-1.12425 0.71692,-2.23485 1.1923,-3.33179 0.47534,-1.09694 1.02633,-2.17492 1.65298,-3.23398 0.62668,-1.05903 1.32599,-2.09402 2.09793,-3.10496 0.77194,-1.01094 1.61279,-1.99297 2.52255,-2.94609 0.90979,-0.95308 1.88413,-1.87268 2.92298,-2.75879 1.03888,-0.88609 2.13726,-1.73441 3.29519,-2.54497 1.15793,-0.81055 2.36985,-1.57942 3.63568,-2.30662 1.26584,-0.72721 2.57956,-1.40923 3.94111,-2.04609 1.36163,-0.63682 2.76452,-1.22543 4.20867,-1.76579 1.44428,-0.54036 2.9228,-1.02988 4.43567,-1.46855 1.51288,-0.43866 3.05292,-0.82436 4.62,-1.15709 1.56702,-0.33275 3.15356,-0.61095 4.7597,-0.83459 1.60608,-0.22362 3.224,-0.39162 4.8537,-0.50397 1.6297,-0.11235 3.26331,-0.16853 4.90082,-0.16855 1.63757,2e-5 3.27118,0.0562 4.90088,0.16853 1.6297,0.11237 3.24756,0.28035 4.85358,0.50397 1.60614,0.22363 3.19268,0.50183 4.75976,0.83458 1.56708,0.33275 3.107,0.71844 4.61987,1.1571 1.513,0.43868 2.99158,0.92821 4.43573,1.46857 1.44416,0.54036 2.84705,1.12897 4.20868,1.76579 1.36164,0.63686 2.67536,1.31888 3.94117,2.04609 1.2658,0.7272 2.47772,1.49607 3.63562,2.30662 1.15789,0.81056 2.25634,1.65889 3.29522,2.54498 1.03888,0.8861 2.01319,1.8057 2.92292,2.75878 0.90985,0.95312 1.75073,1.93516 2.52264,2.9461 0.77191,1.01094 1.47119,2.04592 2.09784,3.10495 0.62671,1.05906 1.17773,2.13704 1.65307,3.23397 0.47535,1.09694 0.87275,2.20755 1.1922,3.3318 0.31952,1.12428 0.55957,2.2568 0.72004,3.39758 C 590.91974,253.71017 591,254.85371 591,256 Z"
             style="fill:#ffffff;fill-opacity:1;fill-rule:nonzero;stroke:none"
             id="path122"
             inkscape:connector-curvature="0" /><path
             d="m 591,256 c 0,1.1463 -0.0803,2.28983 -0.24078,3.4306 -0.16047,1.14078 -0.40052,2.27329 -0.72004,3.39756 -0.31945,1.12426 -0.71685,2.23486 -1.1922,3.33181 -0.47534,1.09696 -1.02636,2.17493 -1.65307,3.23395 -0.62665,1.05905 -1.32593,2.09403 -2.09784,3.10498 -0.77191,1.01096 -1.61279,1.99295 -2.52264,2.94605 -0.90973,0.95312 -1.88404,1.87274 -2.92292,2.75882 -1.03888,0.88607 -2.13733,1.7344 -3.29522,2.54495 -1.1579,0.81058 -2.36976,1.57944 -3.63556,2.30664 -1.26587,0.7272 -2.57959,1.40924 -3.94123,2.04605 -1.36163,0.63687 -2.76452,1.22546 -4.20868,1.76581 -1.44415,0.54034 -2.92273,1.02984 -4.43573,1.4685 -1.51287,0.43869 -3.05279,0.82441 -4.61987,1.1572 -1.56708,0.33273 -3.15362,0.61093 -4.75976,0.83453 -1.60602,0.22367 -3.22388,0.39167 -4.85358,0.504 C 544.27118,290.94382 542.63757,291 541,291 c -1.63751,0 -3.27112,-0.0562 -4.90082,-0.16855 -1.6297,-0.11233 -3.24762,-0.28033 -4.8537,-0.504 -1.60614,-0.2236 -3.19268,-0.5018 -4.7597,-0.83456 -1.56708,-0.33276 -3.10712,-0.71848 -4.62,-1.15717 -1.51287,-0.43866 -2.99139,-0.92816 -4.43567,-1.4685 -1.44415,-0.54038 -2.84704,-1.12897 -4.20867,-1.76584 -1.36155,-0.63681 -2.67527,-1.31882 -3.94111,-2.04602 -1.26583,-0.7272 -2.47775,-1.49606 -3.63568,-2.30664 -1.15793,-0.81055 -2.25631,-1.65888 -3.29519,-2.54495 -1.03888,-0.88608 -2.01322,-1.8057 -2.92301,-2.75882 -0.90976,-0.9531 -1.75061,-1.93509 -2.52255,-2.94605 -0.77194,-1.01095 -1.47125,-2.04596 -2.09793,-3.10501 -0.62665,-1.05899 -1.17764,-2.13696 -1.65302,-3.23392 -0.47537,-1.09695 -0.87277,-2.20755 -1.19226,-3.33181 -0.31942,-1.12427 -0.55941,-2.25678 -0.71991,-3.39756 C 491.08029,258.28983 491.00003,257.1463 491,256 c 3e-5,-1.14629 0.0803,-2.28983 0.24078,-3.4306 0.16053,-1.14077 0.40052,-2.27329 0.71994,-3.39757 0.31949,-1.12425 0.71692,-2.23485 1.1923,-3.33179 0.47534,-1.09694 1.02633,-2.17492 1.65298,-3.23398 0.62668,-1.05903 1.32599,-2.09402 2.09793,-3.10496 0.77194,-1.01094 1.61279,-1.99297 2.52255,-2.94609 0.90979,-0.95308 1.88413,-1.87268 2.92298,-2.75879 1.03888,-0.88609 2.13726,-1.73441 3.29519,-2.54497 1.15793,-0.81055 2.36985,-1.57942 3.63568,-2.30662 1.26584,-0.72721 2.57956,-1.40923 3.94111,-2.04609 1.36163,-0.63682 2.76452,-1.22543 4.20867,-1.76579 1.44428,-0.54036 2.9228,-1.02988 4.43567,-1.46855 1.51288,-0.43866 3.05292,-0.82436 4.62,-1.15709 1.56702,-0.33275 3.15356,-0.61095 4.7597,-0.83459 1.60608,-0.22362 3.224,-0.39162 4.8537,-0.50397 1.6297,-0.11235 3.26331,-0.16853 4.90082,-0.16855 1.63757,2e-5 3.27118,0.0562 4.90088,0.16853 1.6297,0.11237 3.24756,0.28035 4.85358,0.50397 1.60614,0.22363 3.19268,0.50183 4.75976,0.83458 1.56708,0.33275 3.107,0.71844 4.61987,1.1571 1.513,0.43868 2.99158,0.92821 4.43573,1.46857 1.44416,0.54036 2.84705,1.12897 4.20868,1.76579 1.36164,0.63686 2.67536,1.31888 3.94117,2.04609 1.2658,0.7272 2.47772,1.49607 3.63562,2.30662 1.15789,0.81056 2.25634,1.65889 3.29522,2.54498 1.03888,0.8861 2.01319,1.8057 2.92292,2.75878 0.90985,0.95312 1.75073,1.93516 2.52264,2.9461 0.77191,1.01094 1.47119,2.04592 2.09784,3.10495 0.62671,1.05906 1.17773,2.13704 1.65307,3.23397 0.47535,1.09694 0.87275,2.20755 1.1922,3.3318 0.31952,1.12428 0.55957,2.2568 0.72004,3.39758 C 590.91974,253.71017 591,254.85371 591,256 Z"
             style="fill:none;stroke:#000000;stroke-width:1;stroke-linecap:butt;stroke-linejoin:miter;stroke-miterlimit:10;stroke-dasharray:none;stroke-opacity:1"
             id="path124"
             inkscape:connector-curvature="0" /></g><g
           id="g126"
           transform="matrix(2.9979675,0,0,2.9979675,1549.9492,734.50201)"><text
             transform="translate(0.140625,18)"
             style="font-variant:normal;font-weight:normal;font-size:20px;font-family:Helvetica;-inkscape-font-specification:Helvetica;writing-mode:lr-tb;fill:#000000;fill-opacity:1;fill-rule:nonzero;stroke:none"
             id="text130"><tspan
               x="0 13.339844 24.462891 28.90625 40.029297"
               y="0"
               sodipodi:role="line"
               id="tspan128">Polar</tspan></text>
</g><g
           id="g132"
           transform="scale(2.9979675)"><path
             d="m 541,171 v 20 H 406 v 21.75999"
             style="fill:none;stroke:#000000;stroke-width:1;stroke-linecap:butt;stroke-linejoin:miter;stroke-miterlimit:10;stroke-dasharray:none;stroke-opacity:1"
             id="path134"
             inkscape:connector-curvature="0" /><path
             d="m 406,218.75999 -4,-8 4,2 4,-2 z"
             style="fill:#000000;fill-opacity:1;fill-rule:nonzero;stroke:none"
             id="path136"
             inkscape:connector-curvature="0" /><path
             d="m 406,218.75999 -4,-8 4,2 4,-2 z"
             style="fill:none;stroke:#000000;stroke-width:1;stroke-linecap:butt;stroke-linejoin:miter;stroke-miterlimit:10;stroke-dasharray:none;stroke-opacity:1"
             id="path138"
             inkscape:connector-curvature="0" /><path
             d="m 541,171 v 20 h 140 v 21.75999"
             style="fill:none;stroke:#000000;stroke-width:1;stroke-linecap:butt;stroke-linejoin:miter;stroke-miterlimit:10;stroke-dasharray:none;stroke-opacity:1"
             id="path140"
             inkscape:connector-curvature="0" /><path
             d="m 681,218.75999 -4,-8 4,2 4,-2 z"
             style="fill:#000000;fill-opacity:1;fill-rule:nonzero;stroke:none"
             id="path142"
             inkscape:connector-curvature="0" /><path
             d="m 681,218.75999 -4,-8 4,2 4,-2 z"
             style="fill:none;stroke:#000000;stroke-width:1;stroke-linecap:butt;stroke-linejoin:miter;stroke-miterlimit:10;stroke-dasharray:none;stroke-opacity:1"
             id="path144"
             inkscape:connector-curvature="0" /><path
             d="m 126,171 v 20 H 51 v 21.75999"
             style="fill:none;stroke:#000000;stroke-width:1;stroke-linecap:butt;stroke-linejoin:miter;stroke-miterlimit:10;stroke-dasharray:none;stroke-opacity:1"
             id="path146"
             inkscape:connector-curvature="0" /><path
             d="m 51,218.75999 -4,-8 4,2 4,-2 z"
             style="fill:#000000;fill-opacity:1;fill-rule:nonzero;stroke:none"
             id="path148"
             inkscape:connector-curvature="0" /><path
             d="m 51,218.75999 -4,-8 4,2 4,-2 z"
             style="fill:none;stroke:#000000;stroke-width:1;stroke-linecap:butt;stroke-linejoin:miter;stroke-miterlimit:10;stroke-dasharray:none;stroke-opacity:1"
             id="path150"
             inkscape:connector-curvature="0" /><path
             d="m 124,191 h 77 v 21.75999"
             style="fill:none;stroke:#000000;stroke-width:1;stroke-linecap:butt;stroke-linejoin:miter;stroke-miterlimit:10;stroke-dasharray:none;stroke-opacity:1"
             id="path152"
             inkscape:connector-curvature="0" /><path
             d="m 201,218.75999 -4,-8 4,2 4,-2 z"
             style="fill:#000000;fill-opacity:1;fill-rule:nonzero;stroke:none"
             id="path154"
             inkscape:connector-curvature="0" /><path
             d="m 201,218.75999 -4,-8 4,2 4,-2 z"
             style="fill:none;stroke:#000000;stroke-width:1;stroke-linecap:butt;stroke-linejoin:miter;stroke-miterlimit:10;stroke-dasharray:none;stroke-opacity:1"
             id="path156"
             inkscape:connector-curvature="0" /><path
             d="m 736,256 c 0,1.1463 -0.0883,2.28983 -0.26489,3.4306 -0.17658,1.14078 -0.44055,2.27329 -0.79199,3.39756 -0.35138,1.12426 -0.78858,2.23486 -1.31147,3.33181 -0.52289,1.09696 -1.12896,2.17493 -1.81836,3.23395 -0.68927,1.05905 -1.45849,2.09403 -2.30767,3.10498 -0.84913,1.01096 -1.77405,1.99295 -2.77485,2.94605 -1.00073,0.95312 -2.07244,1.87274 -3.21521,2.75882 -1.14276,0.88607 -2.35095,1.7344 -3.62469,2.54495 -1.27368,0.81058 -2.60675,1.57944 -3.99921,2.30664 -1.39245,0.7272 -2.83758,1.40924 -4.33532,2.04605 -1.49775,0.63687 -3.0409,1.22546 -4.62946,1.76581 -1.58868,0.54034 -3.21509,1.02984 -4.87933,1.4685 -1.66419,0.43869 -3.35816,0.82441 -5.08185,1.1572 -1.72382,0.33273 -3.46906,0.61093 -5.23578,0.83453 -1.76666,0.22367 -3.54627,0.39167 -5.33893,0.504 C 684.59839,290.94382 682.80139,291 681,291 c -1.80133,0 -3.59833,-0.0562 -5.39099,-0.16855 -1.79266,-0.11233 -3.57233,-0.28033 -5.33905,-0.504 -1.76673,-0.2236 -3.51196,-0.5018 -5.23566,-0.83456 -1.72381,-0.33276 -3.41778,-0.71848 -5.08203,-1.15717 -1.66418,-0.43866 -3.29059,-0.92816 -4.87921,-1.4685 -1.58862,-0.54038 -3.13178,-1.12897 -4.62952,-1.76584 -1.49768,-0.63681 -2.94275,-1.31882 -4.33514,-2.04602 -1.39246,-0.7272 -2.72559,-1.49606 -3.99933,-2.30664 -1.27374,-0.81055 -2.48193,-1.65888 -3.62469,-2.54495 -1.14277,-0.88608 -2.21448,-1.8057 -3.21528,-2.75882 -1.00073,-0.9531 -1.92566,-1.93509 -2.77484,-2.94605 -0.84912,-1.01095 -1.61834,-2.04596 -2.30774,-3.10501 -0.68927,-1.05899 -1.29535,-2.13696 -1.81823,-3.23392 -0.52289,-1.09695 -0.96003,-2.20755 -1.31147,-3.33181 -0.35138,-1.12427 -0.61535,-2.25678 -0.79187,-3.39756 C 626.08838,258.28983 626.00006,257.1463 626,256 c 6e-5,-1.14629 0.0884,-2.28983 0.26495,-3.4306 0.17652,-1.14077 0.44049,-2.27329 0.79187,-3.39757 0.35144,-1.12425 0.78858,-2.23485 1.31147,-3.33179 0.52288,-1.09694 1.12896,-2.17492 1.81823,-3.23398 0.6894,-1.05903 1.45862,-2.09402 2.30774,-3.10496 0.84918,-1.01094 1.77411,-1.99297 2.77484,-2.94609 1.0008,-0.95308 2.07257,-1.87268 3.21534,-2.75879 1.1427,-0.88609 2.35089,-1.73441 3.62463,-2.54497 1.27374,-0.81055 2.60687,-1.57942 3.99933,-2.30662 1.39239,-0.72721 2.8374,-1.40923 4.33508,-2.04609 1.49774,-0.63682 3.04096,-1.22543 4.62958,-1.76579 1.58862,-0.54036 3.21503,-1.02988 4.87921,-1.46855 1.66425,-0.43866 3.35822,-0.82436 5.08197,-1.15709 1.72376,-0.33275 3.46899,-0.61095 5.23572,-0.83459 1.76672,-0.22362 3.54639,-0.39162 5.33905,-0.50397 1.79266,-0.11235 3.58966,-0.16853 5.39099,-0.16855 1.80139,2e-5 3.59839,0.0562 5.39099,0.16853 1.79266,0.11237 3.57227,0.28035 5.33893,0.50397 1.76672,0.22363 3.51196,0.50183 5.23578,0.83458 1.72369,0.33275 3.41766,0.71844 5.08185,1.1571 1.66424,0.43868 3.29065,0.92821 4.87933,1.46857 1.58856,0.54036 3.13171,1.12897 4.62946,1.76579 1.49774,0.63686 2.94287,1.31888 4.33532,2.04609 1.39246,0.7272 2.72553,1.49607 3.99921,2.30662 1.27374,0.81056 2.48193,1.65889 3.62469,2.54498 1.14277,0.8861 2.21448,1.8057 3.21521,2.75878 1.0008,0.95312 1.92572,1.93516 2.77485,2.9461 0.84918,1.01094 1.6184,2.04592 2.30767,3.10495 0.6894,1.05906 1.29547,2.13704 1.81836,3.23397 0.52289,1.09694 0.96009,2.20755 1.31147,3.3318 0.35144,1.12428 0.61547,2.2568 0.79205,3.39758 C 735.91174,253.71017 736,254.85371 736,256 Z"
             style="fill:#ffffff;fill-opacity:1;fill-rule:nonzero;stroke:none"
             id="path158"
             inkscape:connector-curvature="0" /><path
             d="m 736,256 c 0,1.1463 -0.0883,2.28983 -0.26489,3.4306 -0.17658,1.14078 -0.44055,2.27329 -0.79199,3.39756 -0.35138,1.12426 -0.78858,2.23486 -1.31147,3.33181 -0.52289,1.09696 -1.12896,2.17493 -1.81836,3.23395 -0.68927,1.05905 -1.45849,2.09403 -2.30767,3.10498 -0.84913,1.01096 -1.77405,1.99295 -2.77485,2.94605 -1.00073,0.95312 -2.07244,1.87274 -3.21521,2.75882 -1.14276,0.88607 -2.35095,1.7344 -3.62469,2.54495 -1.27368,0.81058 -2.60675,1.57944 -3.99921,2.30664 -1.39245,0.7272 -2.83758,1.40924 -4.33532,2.04605 -1.49775,0.63687 -3.0409,1.22546 -4.62946,1.76581 -1.58868,0.54034 -3.21509,1.02984 -4.87933,1.4685 -1.66419,0.43869 -3.35816,0.82441 -5.08185,1.1572 -1.72382,0.33273 -3.46906,0.61093 -5.23578,0.83453 -1.76666,0.22367 -3.54627,0.39167 -5.33893,0.504 C 684.59839,290.94382 682.80139,291 681,291 c -1.80133,0 -3.59833,-0.0562 -5.39099,-0.16855 -1.79266,-0.11233 -3.57233,-0.28033 -5.33905,-0.504 -1.76673,-0.2236 -3.51196,-0.5018 -5.23566,-0.83456 -1.72381,-0.33276 -3.41778,-0.71848 -5.08203,-1.15717 -1.66418,-0.43866 -3.29059,-0.92816 -4.87921,-1.4685 -1.58862,-0.54038 -3.13178,-1.12897 -4.62952,-1.76584 -1.49768,-0.63681 -2.94275,-1.31882 -4.33514,-2.04602 -1.39246,-0.7272 -2.72559,-1.49606 -3.99933,-2.30664 -1.27374,-0.81055 -2.48193,-1.65888 -3.62469,-2.54495 -1.14277,-0.88608 -2.21448,-1.8057 -3.21528,-2.75882 -1.00073,-0.9531 -1.92566,-1.93509 -2.77484,-2.94605 -0.84912,-1.01095 -1.61834,-2.04596 -2.30774,-3.10501 -0.68927,-1.05899 -1.29535,-2.13696 -1.81823,-3.23392 -0.52289,-1.09695 -0.96003,-2.20755 -1.31147,-3.33181 -0.35138,-1.12427 -0.61535,-2.25678 -0.79187,-3.39756 C 626.08838,258.28983 626.00006,257.1463 626,256 c 6e-5,-1.14629 0.0884,-2.28983 0.26495,-3.4306 0.17652,-1.14077 0.44049,-2.27329 0.79187,-3.39757 0.35144,-1.12425 0.78858,-2.23485 1.31147,-3.33179 0.52288,-1.09694 1.12896,-2.17492 1.81823,-3.23398 0.6894,-1.05903 1.45862,-2.09402 2.30774,-3.10496 0.84918,-1.01094 1.77411,-1.99297 2.77484,-2.94609 1.0008,-0.95308 2.07257,-1.87268 3.21534,-2.75879 1.1427,-0.88609 2.35089,-1.73441 3.62463,-2.54497 1.27374,-0.81055 2.60687,-1.57942 3.99933,-2.30662 1.39239,-0.72721 2.8374,-1.40923 4.33508,-2.04609 1.49774,-0.63682 3.04096,-1.22543 4.62958,-1.76579 1.58862,-0.54036 3.21503,-1.02988 4.87921,-1.46855 1.66425,-0.43866 3.35822,-0.82436 5.08197,-1.15709 1.72376,-0.33275 3.46899,-0.61095 5.23572,-0.83459 1.76672,-0.22362 3.54639,-0.39162 5.33905,-0.50397 1.79266,-0.11235 3.58966,-0.16853 5.39099,-0.16855 1.80139,2e-5 3.59839,0.0562 5.39099,0.16853 1.79266,0.11237 3.57227,0.28035 5.33893,0.50397 1.76672,0.22363 3.51196,0.50183 5.23578,0.83458 1.72369,0.33275 3.41766,0.71844 5.08185,1.1571 1.66424,0.43868 3.29065,0.92821 4.87933,1.46857 1.58856,0.54036 3.13171,1.12897 4.62946,1.76579 1.49774,0.63686 2.94287,1.31888 4.33532,2.04609 1.39246,0.7272 2.72553,1.49607 3.99921,2.30662 1.27374,0.81056 2.48193,1.65889 3.62469,2.54498 1.14277,0.8861 2.21448,1.8057 3.21521,2.75878 1.0008,0.95312 1.92572,1.93516 2.77485,2.9461 0.84918,1.01094 1.6184,2.04592 2.30767,3.10495 0.6894,1.05906 1.29547,2.13704 1.81836,3.23397 0.52289,1.09694 0.96009,2.20755 1.31147,3.3318 0.35144,1.12428 0.61547,2.2568 0.79205,3.39758 C 735.91174,253.71017 736,254.85371 736,256 Z"
             style="fill:none;stroke:#000000;stroke-width:1;stroke-linecap:butt;stroke-linejoin:miter;stroke-miterlimit:10;stroke-dasharray:none;stroke-opacity:1"
             id="path160"
             inkscape:connector-curvature="0" /></g><g
           id="g162"
           transform="matrix(2.9979675,0,0,2.9979675,1882.7236,698.52643)"><text
             transform="translate(29.15625,18)"
             style="font-variant:normal;font-weight:normal;font-size:20px;font-family:Helvetica;-inkscape-font-specification:Helvetica;writing-mode:lr-tb;fill:#000000;fill-opacity:1;fill-rule:nonzero;stroke:none"
             id="text166"><tspan
               x="0 13.339844 17.783203 28.90625 40.029297"
               y="0"
               sodipodi:role="line"
               id="tspan164">Kino-</tspan></text>
<text
             transform="translate(13.609375,42)"
             style="font-variant:normal;font-weight:normal;font-size:20px;font-family:Helvetica;-inkscape-font-specification:Helvetica;writing-mode:lr-tb;fill:#000000;fill-opacity:1;fill-rule:nonzero;stroke:none"
             id="text170"><tspan
               x="0 14.443359 24.443359 35.566406 46.689453 63.349609 67.792969"
               y="0"
               sodipodi:role="line"
               id="tspan168">Dynamic</tspan></text>
</g><g
           id="g172"
           transform="scale(2.9979675)"><path
             d="M 336,61 V 81 H 126 v 21.76"
             style="fill:none;stroke:#000000;stroke-width:1;stroke-linecap:butt;stroke-linejoin:miter;stroke-miterlimit:10;stroke-dasharray:none;stroke-opacity:1"
             id="path174"
             inkscape:connector-curvature="0" /><path
             d="m 126,108.76 -4,-8 4,2 4,-2 z"
             style="fill:#000000;fill-opacity:1;fill-rule:nonzero;stroke:none"
             id="path176"
             inkscape:connector-curvature="0" /><path
             d="m 126,108.76 -4,-8 4,2 4,-2 z"
             style="fill:none;stroke:#000000;stroke-width:1;stroke-linecap:butt;stroke-linejoin:miter;stroke-miterlimit:10;stroke-dasharray:none;stroke-opacity:1"
             id="path178"
             inkscape:connector-curvature="0" /><path
             d="m 336,61 v 20 h 205 v 21.76"
             style="fill:none;stroke:#000000;stroke-width:1;stroke-linecap:butt;stroke-linejoin:miter;stroke-miterlimit:10;stroke-dasharray:none;stroke-opacity:1"
             id="path180"
             inkscape:connector-curvature="0" /><path
             d="m 541,108.76 -4,-8 4,2 4,-2 z"
             style="fill:#000000;fill-opacity:1;fill-rule:nonzero;stroke:none"
             id="path182"
             inkscape:connector-curvature="0" /><path
             d="m 541,108.76 -4,-8 4,2 4,-2 z"
             style="fill:none;stroke:#000000;stroke-width:1;stroke-linecap:butt;stroke-linejoin:miter;stroke-miterlimit:10;stroke-dasharray:none;stroke-opacity:1"
             id="path184"
             inkscape:connector-curvature="0" /></g><g
           id="g186"
           transform="matrix(2.9979675,0,0,2.9979675,923.37396,254.82724)"><text
             transform="translate(0.984375,11)"
             style="font-variant:normal;font-weight:normal;font-size:12px;font-family:Helvetica;-inkscape-font-specification:Helvetica;writing-mode:lr-tb;fill:#000000;fill-opacity:1;fill-rule:nonzero;stroke:none"
             id="text190"><tspan
               x="0 9.3339844 16.007812 18.673828 25.347656 31.347656 34.681641 37.347656 43.347656 50.021484"
               y="0"
               sodipodi:role="line"
               id="tspan188">Objectives</tspan></text>
</g><g
           id="g192"
           transform="matrix(2.9979675,0,0,2.9979675,1513.9736,524.64429)"><text
             transform="translate(0.3125,11)"
             style="font-variant:normal;font-weight:normal;font-size:12px;font-family:Helvetica;-inkscape-font-specification:Helvetica;writing-mode:lr-tb;fill:#000000;fill-opacity:1;fill-rule:nonzero;stroke:none"
             id="text196"><tspan
               x="0 8.6660156 15.339844 22.013672 28.6875 32.021484 35.355469 38.689453 48.685547 55.359375 62.033203 68.707031 71.373047"
               y="0"
               sodipodi:role="line"
               id="tspan194">Robot Models</tspan></text>
</g></g></g></g></svg>