<?xml version="1.0" encoding="UTF-8" standalone="no"?>
<!-- Created with Inkscape (http://www.inkscape.org/) -->

<svg
   xmlns:dc="http://purl.org/dc/elements/1.1/"
   xmlns:cc="http://creativecommons.org/ns#"
   xmlns:rdf="http://www.w3.org/1999/02/22-rdf-syntax-ns#"
   xmlns:svg="http://www.w3.org/2000/svg"
   xmlns="http://www.w3.org/2000/svg"
   xmlns:sodipodi="http://sodipodi.sourceforge.net/DTD/sodipodi-0.dtd"
   xmlns:inkscape="http://www.inkscape.org/namespaces/inkscape"
   width="189.08888mm"
   height="117.26048mm"
   viewBox="0 0 189.08888 117.26048"
   version="1.1"
   id="svg8"
   inkscape:version="0.92.2 5c3e80d, 2017-08-06"
   sodipodi:docname="mpc_planner_1.svg">
  <defs
     id="defs2">
    <clipPath
       id="clipPath1980"
       clipPathUnits="userSpaceOnUse">
      <path
         style="clip-rule:evenodd"
         inkscape:connector-curvature="0"
         id="path1978"
         d="M 0,0 H 2233.3335 V 1384.9664 H 0 Z" />
    </clipPath>
    <clipPath
       id="clipPath1992"
       clipPathUnits="userSpaceOnUse">
      <path
         style="clip-rule:evenodd"
         inkscape:connector-curvature="0"
         id="path1990"
         d="M 0,0 H 2233.3335 V 1384.9664 H 0 Z" />
    </clipPath>
  </defs>
  <sodipodi:namedview
     id="base"
     pagecolor="#ffffff"
     bordercolor="#666666"
     borderopacity="1.0"
     inkscape:pageopacity="0.0"
     inkscape:pageshadow="2"
     inkscape:zoom="0.7"
     inkscape:cx="397.29823"
     inkscape:cy="195.25579"
     inkscape:document-units="mm"
     inkscape:current-layer="g2008"
     showgrid="false"
     inkscape:window-width="1280"
     inkscape:window-height="676"
     inkscape:window-x="0"
     inkscape:window-y="1"
     inkscape:window-maximized="1" />
  <metadata
     id="metadata5">
    <rdf:RDF>
      <cc:Work
         rdf:about="">
        <dc:format>image/svg+xml</dc:format>
        <dc:type
           rdf:resource="http://purl.org/dc/dcmitype/StillImage" />
        <dc:title />
      </cc:Work>
    </rdf:RDF>
  </metadata>
  <g
     inkscape:label="Layer 1"
     inkscape:groupmode="layer"
     id="layer1"
     transform="translate(-4.8632962,-9.3161892)">
    <g
       transform="matrix(0.08466666,0,0,0.08466666,4.8632962,9.3161892)"
       inkscape:label="nmpc_schematic"
       id="g1972">
      <g
         id="g1986">
        <g
           clip-path="url(#clipPath1992)"
           id="g1988">
          <g
             transform="scale(2.9977629)"
             id="g1994">
            <path
               inkscape:connector-curvature="0"
               id="path1996"
               style="fill:#ffffff;fill-opacity:1;fill-rule:nonzero;stroke:none"
               d="M 336,1 H 456 V 61 H 336 Z" />
            <path
               inkscape:connector-curvature="0"
               id="path1998"
               style="fill:none;stroke:#000000;stroke-width:1;stroke-linecap:butt;stroke-linejoin:miter;stroke-miterlimit:10;stroke-dasharray:none;stroke-opacity:1"
               d="M 336,1 H 456 V 61 H 336 Z" />
            <path
               inkscape:connector-curvature="0"
               id="path2000"
               style="fill:none;stroke:#000000;stroke-width:1;stroke-linecap:butt;stroke-linejoin:miter;stroke-miterlimit:10;stroke-dasharray:none;stroke-opacity:1"
               d="M 348,1 V 61 M 444,1 v 60" />
          </g>
          <g
             transform="matrix(2.9977629,0,0,2.9977629,1100.179,59.955257)"
             id="g2002">
            <text
               id="text2006"
               style="font-variant:normal;font-weight:normal;font-size:20px;font-family:Helvetica;-inkscape-font-specification:Helvetica;writing-mode:lr-tb;fill:#000000;fill-opacity:1;fill-rule:nonzero;stroke:none"
               transform="translate(0.546875,18)">
              <tspan
                 id="tspan2004"
                 sodipodi:role="line"
                 y="0"
                 x="0 14.443359 31.103516 44.443359">NMPC</tspan>
            </text>
          </g>
          <g
             transform="scale(2.9977629)"
             id="g2008">
            <path
               inkscape:connector-curvature="0"
               id="path2012"
               style="fill:#000000;fill-opacity:1;fill-rule:nonzero;stroke:none"
               d="m 186,218.75999 -4,-8 4,2 4,-2 z" />
            <path
               inkscape:connector-curvature="0"
               id="path2016"
               style="fill:#ffffff;fill-opacity:1;fill-rule:nonzero;stroke:none"
               d="m 120,111 h 132 c 0.59094,0 1.17621,0.0576 1.75578,0.17293 0.57959,0.11529 1.14237,0.286 1.68834,0.51214 0.54596,0.22615 1.06464,0.50338 1.556,0.8317 0.49137,0.32831 0.94596,0.7014 1.36383,1.11927 0.41785,0.41786 0.79093,0.87247 1.11923,1.36382 0.32831,0.49136 0.60553,1.01001 0.8317,1.55598 0.22614,0.54597 0.39685,1.10875 0.51218,1.68834 0.11526,0.5796 0.17291,1.16487 0.17294,1.75582 v 42 c -3e-5,0.59094 -0.0577,1.17621 -0.17297,1.7558 -0.1153,0.57959 -0.28601,1.14236 -0.51215,1.68834 -0.22617,0.54596 -0.50339,1.06462 -0.8317,1.55597 -0.3283,0.49136 -0.70138,0.94598 -1.11923,1.36384 -0.41787,0.41786 -0.87249,0.79094 -1.36386,1.11925 -0.49136,0.32831 -1.01001,0.60555 -1.55597,0.8317 -0.54597,0.22615 -1.10875,0.39686 -1.68834,0.51216 C 253.17621,170.94235 252.59094,171 252,171 H 120 c -0.59095,0 -1.17622,-0.0576 -1.75582,-0.17294 -0.57959,-0.1153 -1.14237,-0.28601 -1.68834,-0.51216 -0.54597,-0.22615 -1.06462,-0.50339 -1.55598,-0.8317 -0.49135,-0.32831 -0.94596,-0.70139 -1.36382,-1.11925 -0.41787,-0.41786 -0.79096,-0.87248 -1.11928,-1.36384 -0.32831,-0.49135 -0.60554,-1.01001 -0.83169,-1.55597 -0.22614,-0.54598 -0.39685,-1.10875 -0.51214,-1.68834 C 111.05764,163.17621 110.99999,162.59094 111,162 v -42 c -1e-5,-0.59095 0.0576,-1.17622 0.17292,-1.75582 0.1153,-0.57959 0.28601,-1.14237 0.51215,-1.68834 0.22615,-0.54597 0.50338,-1.06462 0.8317,-1.55598 0.32831,-0.49135 0.7014,-0.94596 1.11927,-1.36382 0.41786,-0.41787 0.87247,-0.79096 1.36382,-1.11928 0.49136,-0.32831 1.01001,-0.60554 1.55598,-0.83169 0.54597,-0.22614 1.10875,-0.39685 1.68834,-0.51214 C 118.82378,111.05765 119.40905,111 120,111 Z" />
            <path
               inkscape:connector-curvature="0"
               id="path2018"
               style="fill:none;stroke:#000000;stroke-width:1;stroke-linecap:butt;stroke-linejoin:miter;stroke-miterlimit:10;stroke-dasharray:none;stroke-opacity:1"
               d="m 120,111 h 132 c 0.59094,0 1.17621,0.0576 1.75578,0.17293 0.57959,0.11529 1.14237,0.286 1.68834,0.51214 0.54596,0.22615 1.06464,0.50338 1.556,0.8317 0.49137,0.32831 0.94596,0.7014 1.36383,1.11927 0.41785,0.41786 0.79093,0.87247 1.11923,1.36382 0.32831,0.49136 0.60553,1.01001 0.8317,1.55598 0.22614,0.54597 0.39685,1.10875 0.51218,1.68834 0.11526,0.5796 0.17291,1.16487 0.17294,1.75582 v 42 c -3e-5,0.59094 -0.0577,1.17621 -0.17297,1.7558 -0.1153,0.57959 -0.28601,1.14236 -0.51215,1.68834 -0.22617,0.54596 -0.50339,1.06462 -0.8317,1.55597 -0.3283,0.49136 -0.70138,0.94598 -1.11923,1.36384 -0.41787,0.41786 -0.87249,0.79094 -1.36386,1.11925 -0.49136,0.32831 -1.01001,0.60555 -1.55597,0.8317 -0.54597,0.22615 -1.10875,0.39686 -1.68834,0.51216 C 253.17621,170.94235 252.59094,171 252,171 H 120 c -0.59095,0 -1.17622,-0.0576 -1.75582,-0.17294 -0.57959,-0.1153 -1.14237,-0.28601 -1.68834,-0.51216 -0.54597,-0.22615 -1.06462,-0.50339 -1.55598,-0.8317 -0.49135,-0.32831 -0.94596,-0.70139 -1.36382,-1.11925 -0.41787,-0.41786 -0.79096,-0.87248 -1.11928,-1.36384 -0.32831,-0.49135 -0.60554,-1.01001 -0.83169,-1.55597 -0.22614,-0.54598 -0.39685,-1.10875 -0.51214,-1.68834 C 111.05764,163.17621 110.99999,162.59094 111,162 v -42 c -1e-5,-0.59095 0.0576,-1.17622 0.17292,-1.75582 0.1153,-0.57959 0.28601,-1.14237 0.51215,-1.68834 0.22615,-0.54597 0.50338,-1.06462 0.8317,-1.55598 0.32831,-0.49135 0.7014,-0.94596 1.11927,-1.36382 0.41786,-0.41787 0.87247,-0.79096 1.36382,-1.11928 0.49136,-0.32831 1.01001,-0.60554 1.55598,-0.83169 0.54597,-0.22614 1.10875,-0.39685 1.68834,-0.51214 C 118.82378,111.05765 119.40905,111 120,111 Z" />
          </g>
          <g
             transform="matrix(2.9977629,0,0,2.9977629,410.69351,353.73602)"
             id="g2020">
            <text
               id="text2024"
               style="font-variant:normal;font-weight:normal;font-size:20px;font-family:Helvetica;-inkscape-font-specification:Helvetica;writing-mode:lr-tb;fill:#000000;fill-opacity:1;fill-rule:nonzero;stroke:none"
               transform="translate(0.140625,18)">
              <tspan
                 id="tspan2022"
                 sodipodi:role="line"
                 y="0"
                 x="0 13.339844 18.896484 30.019531 35.576172 46.699219 52.255859 65.595703 72.255859 78.916016 90.039062">State Error</tspan>
            </text>
            <text
               id="text2028"
               style="font-variant:normal;font-weight:normal;font-size:20px;font-family:Helvetica;-inkscape-font-specification:Helvetica;writing-mode:lr-tb;fill:#000000;fill-opacity:1;fill-rule:nonzero;stroke:none"
               transform="translate(6.8125,42)">
              <tspan
                 id="tspan2026"
                 sodipodi:role="line"
                 y="0"
                 x="0 15.556641 26.679688 31.123047 42.246094 52.246094 57.802734 62.246094 72.246094">Objective</tspan>
            </text>
          </g>
          <g
             transform="scale(2.9977629)"
             id="g2030">
            <path
               inkscape:connector-curvature="0"
               id="path2032"
               style="fill:#ffffff;fill-opacity:1;fill-rule:nonzero;stroke:none"
               d="m 552,111 h 132 c 0.59088,0 1.17615,0.0576 1.7558,0.17293 0.57953,0.11529 1.14227,0.286 1.68829,0.51214 0.54596,0.22615 1.06458,0.50338 1.55597,0.8317 0.4914,0.32831 0.94598,0.7014 1.36389,1.11927 0.41791,0.41786 0.79096,0.87247 1.11927,1.36382 0.3283,0.49136 0.60553,1.01001 0.83166,1.55598 0.22614,0.54597 0.39685,1.10875 0.51215,1.68834 0.11529,0.5796 0.17291,1.16487 0.17297,1.75582 v 42 c -6e-5,0.59094 -0.0577,1.17621 -0.17297,1.7558 -0.1153,0.57959 -0.28601,1.14236 -0.51215,1.68834 -0.22613,0.54596 -0.50336,1.06462 -0.83166,1.55597 -0.32831,0.49136 -0.70136,0.94598 -1.11927,1.36384 -0.41791,0.41786 -0.87249,0.79094 -1.36389,1.11925 -0.49139,0.32831 -1.01001,0.60555 -1.55597,0.8317 -0.54602,0.22615 -1.10876,0.39686 -1.68829,0.51216 C 685.17615,170.94235 684.59088,171 684,171 H 552 c -0.59094,0 -1.17621,-0.0576 -1.75586,-0.17294 -0.57965,-0.1153 -1.14239,-0.28601 -1.68835,-0.51216 -0.54596,-0.22615 -1.06464,-0.50339 -1.55597,-0.8317 -0.4914,-0.32831 -0.94599,-0.70139 -1.36383,-1.11925 -0.41791,-0.41786 -0.79096,-0.87248 -1.11927,-1.36384 -0.3283,-0.49135 -0.60559,-1.01001 -0.83172,-1.55597 -0.22614,-0.54598 -0.39685,-1.10875 -0.51215,-1.68834 C 543.05762,163.17621 543,162.59094 543,162 v -42 c 0,-0.59095 0.0576,-1.17622 0.17285,-1.75582 0.1153,-0.57959 0.28601,-1.14237 0.51215,-1.68834 0.22613,-0.54597 0.50342,-1.06462 0.83172,-1.55598 0.32831,-0.49135 0.70136,-0.94596 1.11927,-1.36382 0.41784,-0.41787 0.87243,-0.79096 1.36383,-1.11928 0.49133,-0.32831 1.01001,-0.60554 1.55597,-0.83169 0.54596,-0.22614 1.1087,-0.39685 1.68835,-0.51214 C 550.82379,111.05765 551.40906,111 552,111 Z" />
            <path
               inkscape:connector-curvature="0"
               id="path2034"
               style="fill:none;stroke:#000000;stroke-width:1;stroke-linecap:butt;stroke-linejoin:miter;stroke-miterlimit:10;stroke-dasharray:none;stroke-opacity:1"
               d="m 552,111 h 132 c 0.59088,0 1.17615,0.0576 1.7558,0.17293 0.57953,0.11529 1.14227,0.286 1.68829,0.51214 0.54596,0.22615 1.06458,0.50338 1.55597,0.8317 0.4914,0.32831 0.94598,0.7014 1.36389,1.11927 0.41791,0.41786 0.79096,0.87247 1.11927,1.36382 0.3283,0.49136 0.60553,1.01001 0.83166,1.55598 0.22614,0.54597 0.39685,1.10875 0.51215,1.68834 0.11529,0.5796 0.17291,1.16487 0.17297,1.75582 v 42 c -6e-5,0.59094 -0.0577,1.17621 -0.17297,1.7558 -0.1153,0.57959 -0.28601,1.14236 -0.51215,1.68834 -0.22613,0.54596 -0.50336,1.06462 -0.83166,1.55597 -0.32831,0.49136 -0.70136,0.94598 -1.11927,1.36384 -0.41791,0.41786 -0.87249,0.79094 -1.36389,1.11925 -0.49139,0.32831 -1.01001,0.60555 -1.55597,0.8317 -0.54602,0.22615 -1.10876,0.39686 -1.68829,0.51216 C 685.17615,170.94235 684.59088,171 684,171 H 552 c -0.59094,0 -1.17621,-0.0576 -1.75586,-0.17294 -0.57965,-0.1153 -1.14239,-0.28601 -1.68835,-0.51216 -0.54596,-0.22615 -1.06464,-0.50339 -1.55597,-0.8317 -0.4914,-0.32831 -0.94599,-0.70139 -1.36383,-1.11925 -0.41791,-0.41786 -0.79096,-0.87248 -1.11927,-1.36384 -0.3283,-0.49135 -0.60559,-1.01001 -0.83172,-1.55597 -0.22614,-0.54598 -0.39685,-1.10875 -0.51215,-1.68834 C 543.05762,163.17621 543,162.59094 543,162 v -42 c 0,-0.59095 0.0576,-1.17622 0.17285,-1.75582 0.1153,-0.57959 0.28601,-1.14237 0.51215,-1.68834 0.22613,-0.54597 0.50342,-1.06462 0.83172,-1.55598 0.32831,-0.49135 0.70136,-0.94596 1.11927,-1.36382 0.41784,-0.41787 0.87243,-0.79096 1.36383,-1.11928 0.49133,-0.32831 1.01001,-0.60554 1.55597,-0.83169 0.54596,-0.22614 1.1087,-0.39685 1.68835,-0.51214 C 550.82379,111.05765 551.40906,111 552,111 Z" />
          </g>
          <g
             transform="matrix(2.9977629,0,0,2.9977629,1717.7181,353.73602)"
             id="g2036">
            <text
               id="text2040"
               style="font-variant:normal;font-weight:normal;font-size:20px;font-family:Helvetica;-inkscape-font-specification:Helvetica;writing-mode:lr-tb;fill:#000000;fill-opacity:1;fill-rule:nonzero;stroke:none"
               transform="translate(0.03125,18)">
              <tspan
                 id="tspan2038"
                 sodipodi:role="line"
                 y="0"
                 x="0 15.556641 26.679688 36.679688 42.236328 53.359375 63.359375 67.802734 78.925781">Obstacles</tspan>
            </text>
            <text
               id="text2044"
               style="font-variant:normal;font-weight:normal;font-size:20px;font-family:Helvetica;-inkscape-font-specification:Helvetica;writing-mode:lr-tb;fill:#000000;fill-opacity:1;fill-rule:nonzero;stroke:none"
               transform="translate(2.8125,42)">
              <tspan
                 id="tspan2042"
                 sodipodi:role="line"
                 y="0"
                 x="0 15.556641 26.679688 31.123047 42.246094 52.246094 57.802734 62.246094 72.246094">Objective</tspan>
            </text>
          </g>
          <g
             transform="scale(2.9977629)"
             id="g2046">
            <path
               inkscape:connector-curvature="0"
               id="path2048"
               style="fill:none;stroke:#000000;stroke-width:1;stroke-linecap:butt;stroke-linejoin:miter;stroke-miterlimit:10;stroke-dasharray:none;stroke-opacity:1"
               d="M 396,61 V 81 H 186 v 21.76" />
            <path
               inkscape:connector-curvature="0"
               id="path2050"
               style="fill:#000000;fill-opacity:1;fill-rule:nonzero;stroke:none"
               d="m 186,108.76 -4,-8 4,2 4,-2 z" />
            <path
               inkscape:connector-curvature="0"
               id="path2052"
               style="fill:none;stroke:#000000;stroke-width:1;stroke-linecap:butt;stroke-linejoin:miter;stroke-miterlimit:10;stroke-dasharray:none;stroke-opacity:1"
               d="m 186,108.76 -4,-8 4,2 4,-2 z" />
            <path
               inkscape:connector-curvature="0"
               id="path2054"
               style="fill:none;stroke:#000000;stroke-width:1;stroke-linecap:butt;stroke-linejoin:miter;stroke-miterlimit:10;stroke-dasharray:none;stroke-opacity:1"
               d="m 396,81 h 222 v 21.76" />
            <path
               inkscape:connector-curvature="0"
               id="path2056"
               style="fill:#000000;fill-opacity:1;fill-rule:nonzero;stroke:none"
               d="m 618,108.76 -4,-8 4,2 4,-2 z" />
            <path
               inkscape:connector-curvature="0"
               id="path2058"
               style="fill:none;stroke:#000000;stroke-width:1;stroke-linecap:butt;stroke-linejoin:miter;stroke-miterlimit:10;stroke-dasharray:none;stroke-opacity:1"
               d="m 618,108.76 -4,-8 4,2 4,-2 z" />
          </g>
          <text
             id="text117"
             y="280.05566"
             x="1101.5626"
             style="font-style:normal;font-variant:normal;font-weight:normal;font-stretch:normal;font-size:58.33333588px;line-height:1.25;font-family:'Latin Modern Math';-inkscape-font-specification:'Latin Modern Math';letter-spacing:0px;word-spacing:0px;fill:#000000;fill-opacity:1;stroke:none;stroke-width:3.12500024"
             xml:space="preserve"><tspan
               style="font-style:normal;font-variant:normal;font-weight:normal;font-stretch:normal;font-size:37.50000381px;font-family:Arial;-inkscape-font-specification:Arial;stroke-width:3.12500024"
               y="280.05566"
               x="1101.5626"
               id="tspan115"
               sodipodi:role="line">Objectives</tspan></text>
        </g>
      </g>
    </g>
  </g>
</svg>
