<?xml version="1.0" encoding="UTF-8" standalone="no"?>
<!-- Created with Inkscape (http://www.inkscape.org/) -->

<svg
   xmlns:dc="http://purl.org/dc/elements/1.1/"
   xmlns:cc="http://creativecommons.org/ns#"
   xmlns:rdf="http://www.w3.org/1999/02/22-rdf-syntax-ns#"
   xmlns:svg="http://www.w3.org/2000/svg"
   xmlns="http://www.w3.org/2000/svg"
   xmlns:sodipodi="http://sodipodi.sourceforge.net/DTD/sodipodi-0.dtd"
   xmlns:inkscape="http://www.inkscape.org/namespaces/inkscape"
   width="189.08888mm"
   height="117.26048mm"
   viewBox="0 0 189.08888 117.26048"
   version="1.1"
   id="svg8"
   inkscape:version="0.92.2 5c3e80d, 2017-08-06"
   sodipodi:docname="mpc_planner-0.svg">
  <defs
     id="defs2">
    <clipPath
       id="clipPath1980"
       clipPathUnits="userSpaceOnUse">
      <path
         style="clip-rule:evenodd"
         inkscape:connector-curvature="0"
         id="path1978"
         d="M 0,0 H 2233.3335 V 1384.9664 H 0 Z" />
    </clipPath>
    <clipPath
       id="clipPath1992"
       clipPathUnits="userSpaceOnUse">
      <path
         style="clip-rule:evenodd"
         inkscape:connector-curvature="0"
         id="path1990"
         d="M 0,0 H 2233.3335 V 1384.9664 H 0 Z" />
    </clipPath>
  </defs>
  <sodipodi:namedview
     id="base"
     pagecolor="#ffffff"
     bordercolor="#666666"
     borderopacity="1.0"
     inkscape:pageopacity="0.0"
     inkscape:pageshadow="2"
     inkscape:zoom="0.7"
     inkscape:cx="300.02662"
     inkscape:cy="291.63484"
     inkscape:document-units="mm"
     inkscape:current-layer="g1972"
     showgrid="false"
     inkscape:window-width="1280"
     inkscape:window-height="676"
     inkscape:window-x="0"
     inkscape:window-y="1"
     inkscape:window-maximized="1" />
  <metadata
     id="metadata5">
    <rdf:RDF>
      <cc:Work
         rdf:about="">
        <dc:format>image/svg+xml</dc:format>
        <dc:type
           rdf:resource="http://purl.org/dc/dcmitype/StillImage" />
        <dc:title />
      </cc:Work>
    </rdf:RDF>
  </metadata>
  <g
     inkscape:label="Layer 1"
     inkscape:groupmode="layer"
     id="layer1"
     transform="translate(-4.8632962,-9.3161892)">
    <g
       transform="matrix(0.08466666,0,0,0.08466666,4.8632962,9.3161892)"
       inkscape:label="nmpc_schematic"
       id="g1972">
      <g
         id="g1986">
        <g
           clip-path="url(#clipPath1992)"
           id="g1988">
          <g
             transform="scale(2.9977629)"
             id="g1994">
            <path
               inkscape:connector-curvature="0"
               id="path1996"
               style="fill:#ffffff;fill-opacity:1;fill-rule:nonzero;stroke:none"
               d="M 336,1 H 456 V 61 H 336 Z" />
            <path
               inkscape:connector-curvature="0"
               id="path1998"
               style="fill:none;stroke:#000000;stroke-width:1;stroke-linecap:butt;stroke-linejoin:miter;stroke-miterlimit:10;stroke-dasharray:none;stroke-opacity:1"
               d="M 336,1 H 456 V 61 H 336 Z" />
            <path
               inkscape:connector-curvature="0"
               id="path2000"
               style="fill:none;stroke:#000000;stroke-width:1;stroke-linecap:butt;stroke-linejoin:miter;stroke-miterlimit:10;stroke-dasharray:none;stroke-opacity:1"
               d="M 348,1 V 61 M 444,1 v 60" />
          </g>
          <g
             transform="matrix(2.9977629,0,0,2.9977629,1100.179,59.955257)"
             id="g2002">
            <text
               id="text2006"
               style="font-variant:normal;font-weight:normal;font-size:20px;font-family:Helvetica;-inkscape-font-specification:Helvetica;writing-mode:lr-tb;fill:#000000;fill-opacity:1;fill-rule:nonzero;stroke:none"
               transform="translate(0.546875,18)">
              <tspan
                 id="tspan2004"
                 sodipodi:role="line"
                 y="0"
                 x="0 14.443359 31.103516 44.443359">NMPC</tspan>
            </text>
          </g>
          <g
             transform="scale(2.9977629)"
             id="g2046">
            <path
               inkscape:connector-curvature="0"
               id="path2048"
               style="fill:none;stroke:#000000;stroke-width:1;stroke-linecap:butt;stroke-linejoin:miter;stroke-miterlimit:10;stroke-dasharray:none;stroke-opacity:1"
               d="M 396,61 V 81 H 186 v 21.76" />
            <path
               inkscape:connector-curvature="0"
               id="path2050"
               style="fill:#000000;fill-opacity:1;fill-rule:nonzero;stroke:none"
               d="m 186,108.76 -4,-8 4,2 4,-2 z" />
            <path
               inkscape:connector-curvature="0"
               id="path2052"
               style="fill:none;stroke:#000000;stroke-width:1;stroke-linecap:butt;stroke-linejoin:miter;stroke-miterlimit:10;stroke-dasharray:none;stroke-opacity:1"
               d="m 186,108.76 -4,-8 4,2 4,-2 z" />
            <path
               inkscape:connector-curvature="0"
               id="path2054"
               style="fill:none;stroke:#000000;stroke-width:1;stroke-linecap:butt;stroke-linejoin:miter;stroke-miterlimit:10;stroke-dasharray:none;stroke-opacity:1"
               d="m 396,81 h 222 v 21.76" />
            <path
               inkscape:connector-curvature="0"
               id="path2056"
               style="fill:#000000;fill-opacity:1;fill-rule:nonzero;stroke:none"
               d="m 618,108.76 -4,-8 4,2 4,-2 z" />
            <path
               inkscape:connector-curvature="0"
               id="path2058"
               style="fill:none;stroke:#000000;stroke-width:1;stroke-linecap:butt;stroke-linejoin:miter;stroke-miterlimit:10;stroke-dasharray:none;stroke-opacity:1"
               d="m 618,108.76 -4,-8 4,2 4,-2 z" />
            <path
               inkscape:connector-curvature="0"
               id="path2066"
               style="fill:#ffffff;fill-opacity:1;fill-rule:nonzero;stroke:none"
               d="m 593,256 c 6e-5,1.1463 -0.0802,2.28983 -0.24072,3.4306 -0.16046,1.14078 -0.40052,2.27329 -0.72003,3.39756 -0.31946,1.12426 -0.71686,2.23486 -1.1922,3.33181 -0.47541,1.09696 -1.02643,2.17493 -1.65314,3.23395 -0.62665,1.05905 -1.32593,2.09403 -2.09784,3.10498 -0.77197,1.01096 -1.61285,1.99295 -2.52264,2.94605 -0.90979,0.95312 -1.8841,1.87274 -2.92292,2.75882 -1.03888,0.88607 -2.13727,1.7344 -3.29522,2.54495 -1.1579,0.81058 -2.36982,1.57944 -3.63569,2.30664 -1.26586,0.7272 -2.57959,1.40924 -3.94122,2.04605 -1.36157,0.63687 -2.76446,1.22546 -4.20862,1.76581 -1.44421,0.54034 -2.92279,1.02984 -4.43567,1.4685 -1.51294,0.43869 -3.05291,0.82441 -4.61993,1.1572 -1.56708,0.33273 -3.15363,0.61093 -4.7597,0.83453 -1.60608,0.22367 -3.22394,0.39167 -4.85364,0.504 C 546.27118,290.94382 544.63757,291 543,291 c -1.63757,0 -3.27118,-0.0562 -4.90082,-0.16855 -1.6297,-0.11233 -3.24762,-0.28033 -4.85376,-0.504 -1.60608,-0.2236 -3.19262,-0.5018 -4.75964,-0.83456 -1.56708,-0.33276 -3.10706,-0.71848 -4.62,-1.15717 -1.51287,-0.43866 -2.99145,-0.92816 -4.43567,-1.4685 -1.44415,-0.54038 -2.84704,-1.12897 -4.20867,-1.76584 -1.36158,-0.63681 -2.6753,-1.31882 -3.94111,-2.04602 -1.26586,-0.7272 -2.47778,-1.49606 -3.63571,-2.30664 -1.15793,-0.81055 -2.25631,-1.65888 -3.29516,-2.54495 -1.03888,-0.88608 -2.01322,-1.8057 -2.92301,-2.75882 -0.90976,-0.9531 -1.75061,-1.93509 -2.52255,-2.94605 -0.77194,-1.01095 -1.47125,-2.04596 -2.09793,-3.10501 -0.62662,-1.05899 -1.17764,-2.13696 -1.65302,-3.23392 -0.47537,-1.09695 -0.8728,-2.20755 -1.19229,-3.33181 -0.31946,-1.12427 -0.55941,-2.25678 -0.71991,-3.39756 C 493.08026,258.28983 493,257.1463 493,256 c 0,-1.14629 0.0803,-2.28983 0.24075,-3.4306 0.1605,-1.14077 0.40045,-2.27329 0.71991,-3.39757 0.31949,-1.12425 0.71692,-2.23485 1.19226,-3.33179 0.47541,-1.09694 1.02643,-2.17492 1.65305,-3.23398 0.62668,-1.05903 1.32599,-2.09402 2.09793,-3.10496 0.77194,-1.01094 1.61282,-1.99297 2.52258,-2.94609 0.90979,-0.95308 1.88413,-1.87268 2.92298,-2.75879 1.03885,-0.88609 2.13723,-1.73441 3.29516,-2.54497 1.15793,-0.81055 2.36985,-1.57942 3.63571,-2.30662 1.26581,-0.72721 2.57953,-1.40923 3.94104,-2.04609 1.36164,-0.63682 2.76453,-1.22543 4.20868,-1.76579 1.44428,-0.54036 2.92286,-1.02988 4.43573,-1.46855 1.51294,-0.43866 3.05292,-0.82436 4.62,-1.15709 1.56702,-0.33275 3.15356,-0.61095 4.75964,-0.83459 1.60614,-0.22362 3.22406,-0.39162 4.85376,-0.50397 1.62964,-0.11235 3.26325,-0.16853 4.90082,-0.16855 1.63757,2e-5 3.27118,0.0562 4.90082,0.16853 1.6297,0.11237 3.24756,0.28035 4.85364,0.50397 1.60607,0.22363 3.19262,0.50183 4.7597,0.83458 1.56702,0.33275 3.10699,0.71844 4.61993,1.1571 1.51288,0.43868 2.99146,0.92821 4.43567,1.46857 1.44416,0.54036 2.84705,1.12897 4.20862,1.76579 1.36163,0.63686 2.67536,1.31888 3.94122,2.04609 1.26587,0.7272 2.47779,1.49607 3.63569,2.30662 1.15795,0.81056 2.25634,1.65889 3.29522,2.54498 1.03882,0.8861 2.01313,1.8057 2.92292,2.75878 0.90979,0.95312 1.75067,1.93516 2.52258,2.9461 0.77191,1.01094 1.47125,2.04592 2.0979,3.10495 0.62671,1.05906 1.17773,2.13704 1.65314,3.23397 0.47534,1.09694 0.87274,2.20755 1.1922,3.3318 0.31951,1.12428 0.55957,2.2568 0.72003,3.39758 0.16052,1.14076 0.24078,2.2843 0.24072,3.43059 z" />
          </g>
          <text
             id="text117"
             y="280.05566"
             x="1101.5626"
             style="font-style:normal;font-variant:normal;font-weight:normal;font-stretch:normal;font-size:58.33333588px;line-height:1.25;font-family:'Latin Modern Math';-inkscape-font-specification:'Latin Modern Math';letter-spacing:0px;word-spacing:0px;fill:#000000;fill-opacity:1;stroke:none;stroke-width:3.12500024"
             xml:space="preserve"><tspan
               style="font-style:normal;font-variant:normal;font-weight:normal;font-stretch:normal;font-size:37.50000381px;font-family:Arial;-inkscape-font-specification:Arial;stroke-width:3.12500024"
               y="280.05566"
               x="1101.5626"
               id="tspan115"
               sodipodi:role="line">Objectives</tspan></text>
        </g>
      </g>
    </g>
  </g>
</svg>
