<?xml version="1.0" encoding="UTF-8" standalone="no"?>
<!-- Created with Inkscape (http://www.inkscape.org/) -->

<svg
   xmlns:dc="http://purl.org/dc/elements/1.1/"
   xmlns:cc="http://creativecommons.org/ns#"
   xmlns:rdf="http://www.w3.org/1999/02/22-rdf-syntax-ns#"
   xmlns:svg="http://www.w3.org/2000/svg"
   xmlns="http://www.w3.org/2000/svg"
   xmlns:sodipodi="http://sodipodi.sourceforge.net/DTD/sodipodi-0.dtd"
   xmlns:inkscape="http://www.inkscape.org/namespaces/inkscape"
   width="189.08888mm"
   height="117.26048mm"
   viewBox="0 0 189.08888 117.26048"
   version="1.1"
   id="svg8"
   inkscape:version="0.92.2 5c3e80d, 2017-08-06"
   sodipodi:docname="mpc_planner_4.svg">
  <defs
     id="defs2">
    <clipPath
       id="clipPath1980"
       clipPathUnits="userSpaceOnUse">
      <path
         style="clip-rule:evenodd"
         inkscape:connector-curvature="0"
         id="path1978"
         d="M 0,0 H 2233.3335 V 1384.9664 H 0 Z" />
    </clipPath>
    <clipPath
       id="clipPath1992"
       clipPathUnits="userSpaceOnUse">
      <path
         style="clip-rule:evenodd"
         inkscape:connector-curvature="0"
         id="path1990"
         d="M 0,0 H 2233.3335 V 1384.9664 H 0 Z" />
    </clipPath>
  </defs>
  <sodipodi:namedview
     id="base"
     pagecolor="#ffffff"
     bordercolor="#666666"
     borderopacity="1.0"
     inkscape:pageopacity="0.0"
     inkscape:pageshadow="2"
     inkscape:zoom="1.979899"
     inkscape:cx="42.895493"
     inkscape:cy="231.94922"
     inkscape:document-units="mm"
     inkscape:current-layer="g1988"
     showgrid="false"
     inkscape:window-width="1280"
     inkscape:window-height="676"
     inkscape:window-x="0"
     inkscape:window-y="1"
     inkscape:window-maximized="1" />
  <metadata
     id="metadata5">
    <rdf:RDF>
      <cc:Work
         rdf:about="">
        <dc:format>image/svg+xml</dc:format>
        <dc:type
           rdf:resource="http://purl.org/dc/dcmitype/StillImage" />
        <dc:title />
      </cc:Work>
    </rdf:RDF>
  </metadata>
  <g
     inkscape:label="Layer 1"
     inkscape:groupmode="layer"
     id="layer1"
     transform="translate(-4.8632962,-9.3161892)">
    <g
       transform="matrix(0.08466666,0,0,0.08466666,4.8632962,9.3161892)"
       inkscape:label="nmpc_schematic"
       id="g1972">
      <g
         id="g1974" />
      <g
         id="g1986">
        <g
           clip-path="url(#clipPath1992)"
           id="g1988">
          <g
             transform="scale(2.9977629)"
             id="g1994">
            <path
               inkscape:connector-curvature="0"
               id="path1996"
               style="fill:#ffffff;fill-opacity:1;fill-rule:nonzero;stroke:none"
               d="M 336,1 H 456 V 61 H 336 Z" />
            <path
               inkscape:connector-curvature="0"
               id="path1998"
               style="fill:none;stroke:#000000;stroke-width:1;stroke-linecap:butt;stroke-linejoin:miter;stroke-miterlimit:10;stroke-dasharray:none;stroke-opacity:1"
               d="M 336,1 H 456 V 61 H 336 Z" />
            <path
               inkscape:connector-curvature="0"
               id="path2000"
               style="fill:none;stroke:#000000;stroke-width:1;stroke-linecap:butt;stroke-linejoin:miter;stroke-miterlimit:10;stroke-dasharray:none;stroke-opacity:1"
               d="M 348,1 V 61 M 444,1 v 60" />
          </g>
          <g
             transform="matrix(2.9977629,0,0,2.9977629,1100.179,59.955257)"
             id="g2002">
            <text
               id="text2006"
               style="font-variant:normal;font-weight:normal;font-size:20px;font-family:Helvetica;-inkscape-font-specification:Helvetica;writing-mode:lr-tb;fill:#000000;fill-opacity:1;fill-rule:nonzero;stroke:none"
               transform="translate(0.546875,18)">
              <tspan
                 id="tspan2004"
                 sodipodi:role="line"
                 y="0"
                 x="0 14.443359 31.103516 44.443359">NMPC</tspan>
            </text>
          </g>
          <g
             transform="scale(2.9977629)"
             id="g2008">
            <path
               inkscape:connector-curvature="0"
               id="path2016"
               style="fill:#ffffff;fill-opacity:1;fill-rule:nonzero;stroke:none"
               d="m 120,111 h 132 c 0.59094,0 1.17621,0.0576 1.75578,0.17293 0.57959,0.11529 1.14237,0.286 1.68834,0.51214 0.54596,0.22615 1.06464,0.50338 1.556,0.8317 0.49137,0.32831 0.94596,0.7014 1.36383,1.11927 0.41785,0.41786 0.79093,0.87247 1.11923,1.36382 0.32831,0.49136 0.60553,1.01001 0.8317,1.55598 0.22614,0.54597 0.39685,1.10875 0.51218,1.68834 0.11526,0.5796 0.17291,1.16487 0.17294,1.75582 v 42 c -3e-5,0.59094 -0.0577,1.17621 -0.17297,1.7558 -0.1153,0.57959 -0.28601,1.14236 -0.51215,1.68834 -0.22617,0.54596 -0.50339,1.06462 -0.8317,1.55597 -0.3283,0.49136 -0.70138,0.94598 -1.11923,1.36384 -0.41787,0.41786 -0.87249,0.79094 -1.36386,1.11925 -0.49136,0.32831 -1.01001,0.60555 -1.55597,0.8317 -0.54597,0.22615 -1.10875,0.39686 -1.68834,0.51216 C 253.17621,170.94235 252.59094,171 252,171 H 120 c -0.59095,0 -1.17622,-0.0576 -1.75582,-0.17294 -0.57959,-0.1153 -1.14237,-0.28601 -1.68834,-0.51216 -0.54597,-0.22615 -1.06462,-0.50339 -1.55598,-0.8317 -0.49135,-0.32831 -0.94596,-0.70139 -1.36382,-1.11925 -0.41787,-0.41786 -0.79096,-0.87248 -1.11928,-1.36384 -0.32831,-0.49135 -0.60554,-1.01001 -0.83169,-1.55597 -0.22614,-0.54598 -0.39685,-1.10875 -0.51214,-1.68834 C 111.05764,163.17621 110.99999,162.59094 111,162 v -42 c -1e-5,-0.59095 0.0576,-1.17622 0.17292,-1.75582 0.1153,-0.57959 0.28601,-1.14237 0.51215,-1.68834 0.22615,-0.54597 0.50338,-1.06462 0.8317,-1.55598 0.32831,-0.49135 0.7014,-0.94596 1.11927,-1.36382 0.41786,-0.41787 0.87247,-0.79096 1.36382,-1.11928 0.49136,-0.32831 1.01001,-0.60554 1.55598,-0.83169 0.54597,-0.22614 1.10875,-0.39685 1.68834,-0.51214 C 118.82378,111.05765 119.40905,111 120,111 Z" />
            <path
               inkscape:connector-curvature="0"
               id="path2018"
               style="fill:none;stroke:#000000;stroke-width:1;stroke-linecap:butt;stroke-linejoin:miter;stroke-miterlimit:10;stroke-dasharray:none;stroke-opacity:1"
               d="m 120,111 h 132 c 0.59094,0 1.17621,0.0576 1.75578,0.17293 0.57959,0.11529 1.14237,0.286 1.68834,0.51214 0.54596,0.22615 1.06464,0.50338 1.556,0.8317 0.49137,0.32831 0.94596,0.7014 1.36383,1.11927 0.41785,0.41786 0.79093,0.87247 1.11923,1.36382 0.32831,0.49136 0.60553,1.01001 0.8317,1.55598 0.22614,0.54597 0.39685,1.10875 0.51218,1.68834 0.11526,0.5796 0.17291,1.16487 0.17294,1.75582 v 42 c -3e-5,0.59094 -0.0577,1.17621 -0.17297,1.7558 -0.1153,0.57959 -0.28601,1.14236 -0.51215,1.68834 -0.22617,0.54596 -0.50339,1.06462 -0.8317,1.55597 -0.3283,0.49136 -0.70138,0.94598 -1.11923,1.36384 -0.41787,0.41786 -0.87249,0.79094 -1.36386,1.11925 -0.49136,0.32831 -1.01001,0.60555 -1.55597,0.8317 -0.54597,0.22615 -1.10875,0.39686 -1.68834,0.51216 C 253.17621,170.94235 252.59094,171 252,171 H 120 c -0.59095,0 -1.17622,-0.0576 -1.75582,-0.17294 -0.57959,-0.1153 -1.14237,-0.28601 -1.68834,-0.51216 -0.54597,-0.22615 -1.06462,-0.50339 -1.55598,-0.8317 -0.49135,-0.32831 -0.94596,-0.70139 -1.36382,-1.11925 -0.41787,-0.41786 -0.79096,-0.87248 -1.11928,-1.36384 -0.32831,-0.49135 -0.60554,-1.01001 -0.83169,-1.55597 -0.22614,-0.54598 -0.39685,-1.10875 -0.51214,-1.68834 C 111.05764,163.17621 110.99999,162.59094 111,162 v -42 c -1e-5,-0.59095 0.0576,-1.17622 0.17292,-1.75582 0.1153,-0.57959 0.28601,-1.14237 0.51215,-1.68834 0.22615,-0.54597 0.50338,-1.06462 0.8317,-1.55598 0.32831,-0.49135 0.7014,-0.94596 1.11927,-1.36382 0.41786,-0.41787 0.87247,-0.79096 1.36382,-1.11928 0.49136,-0.32831 1.01001,-0.60554 1.55598,-0.83169 0.54597,-0.22614 1.10875,-0.39685 1.68834,-0.51214 C 118.82378,111.05765 119.40905,111 120,111 Z" />
          </g>
          <g
             transform="matrix(2.9977629,0,0,2.9977629,410.69351,353.73602)"
             id="g2020">
            <text
               id="text2024"
               style="font-variant:normal;font-weight:normal;font-size:20px;font-family:Helvetica;-inkscape-font-specification:Helvetica;writing-mode:lr-tb;fill:#000000;fill-opacity:1;fill-rule:nonzero;stroke:none"
               transform="translate(0.140625,18)">
              <tspan
                 id="tspan2022"
                 sodipodi:role="line"
                 y="0"
                 x="0 13.339844 18.896484 30.019531 35.576172 46.699219 52.255859 65.595703 72.255859 78.916016 90.039062">State Error</tspan>
            </text>
            <text
               id="text2028"
               style="font-variant:normal;font-weight:normal;font-size:20px;font-family:Helvetica;-inkscape-font-specification:Helvetica;writing-mode:lr-tb;fill:#000000;fill-opacity:1;fill-rule:nonzero;stroke:none"
               transform="translate(6.8125,42)">
              <tspan
                 id="tspan2026"
                 sodipodi:role="line"
                 y="0"
                 x="0 15.556641 26.679688 31.123047 42.246094 52.246094 57.802734 62.246094 72.246094">Objective</tspan>
            </text>
          </g>
          <g
             transform="scale(2.9977629)"
             id="g2030">
            <path
               inkscape:connector-curvature="0"
               id="path2032"
               style="fill:#ffffff;fill-opacity:1;fill-rule:nonzero;stroke:none"
               d="m 552,111 h 132 c 0.59088,0 1.17615,0.0576 1.7558,0.17293 0.57953,0.11529 1.14227,0.286 1.68829,0.51214 0.54596,0.22615 1.06458,0.50338 1.55597,0.8317 0.4914,0.32831 0.94598,0.7014 1.36389,1.11927 0.41791,0.41786 0.79096,0.87247 1.11927,1.36382 0.3283,0.49136 0.60553,1.01001 0.83166,1.55598 0.22614,0.54597 0.39685,1.10875 0.51215,1.68834 0.11529,0.5796 0.17291,1.16487 0.17297,1.75582 v 42 c -6e-5,0.59094 -0.0577,1.17621 -0.17297,1.7558 -0.1153,0.57959 -0.28601,1.14236 -0.51215,1.68834 -0.22613,0.54596 -0.50336,1.06462 -0.83166,1.55597 -0.32831,0.49136 -0.70136,0.94598 -1.11927,1.36384 -0.41791,0.41786 -0.87249,0.79094 -1.36389,1.11925 -0.49139,0.32831 -1.01001,0.60555 -1.55597,0.8317 -0.54602,0.22615 -1.10876,0.39686 -1.68829,0.51216 C 685.17615,170.94235 684.59088,171 684,171 H 552 c -0.59094,0 -1.17621,-0.0576 -1.75586,-0.17294 -0.57965,-0.1153 -1.14239,-0.28601 -1.68835,-0.51216 -0.54596,-0.22615 -1.06464,-0.50339 -1.55597,-0.8317 -0.4914,-0.32831 -0.94599,-0.70139 -1.36383,-1.11925 -0.41791,-0.41786 -0.79096,-0.87248 -1.11927,-1.36384 -0.3283,-0.49135 -0.60559,-1.01001 -0.83172,-1.55597 -0.22614,-0.54598 -0.39685,-1.10875 -0.51215,-1.68834 C 543.05762,163.17621 543,162.59094 543,162 v -42 c 0,-0.59095 0.0576,-1.17622 0.17285,-1.75582 0.1153,-0.57959 0.28601,-1.14237 0.51215,-1.68834 0.22613,-0.54597 0.50342,-1.06462 0.83172,-1.55598 0.32831,-0.49135 0.70136,-0.94596 1.11927,-1.36382 0.41784,-0.41787 0.87243,-0.79096 1.36383,-1.11928 0.49133,-0.32831 1.01001,-0.60554 1.55597,-0.83169 0.54596,-0.22614 1.1087,-0.39685 1.68835,-0.51214 C 550.82379,111.05765 551.40906,111 552,111 Z" />
            <path
               inkscape:connector-curvature="0"
               id="path2034"
               style="fill:none;stroke:#000000;stroke-width:1;stroke-linecap:butt;stroke-linejoin:miter;stroke-miterlimit:10;stroke-dasharray:none;stroke-opacity:1"
               d="m 552,111 h 132 c 0.59088,0 1.17615,0.0576 1.7558,0.17293 0.57953,0.11529 1.14227,0.286 1.68829,0.51214 0.54596,0.22615 1.06458,0.50338 1.55597,0.8317 0.4914,0.32831 0.94598,0.7014 1.36389,1.11927 0.41791,0.41786 0.79096,0.87247 1.11927,1.36382 0.3283,0.49136 0.60553,1.01001 0.83166,1.55598 0.22614,0.54597 0.39685,1.10875 0.51215,1.68834 0.11529,0.5796 0.17291,1.16487 0.17297,1.75582 v 42 c -6e-5,0.59094 -0.0577,1.17621 -0.17297,1.7558 -0.1153,0.57959 -0.28601,1.14236 -0.51215,1.68834 -0.22613,0.54596 -0.50336,1.06462 -0.83166,1.55597 -0.32831,0.49136 -0.70136,0.94598 -1.11927,1.36384 -0.41791,0.41786 -0.87249,0.79094 -1.36389,1.11925 -0.49139,0.32831 -1.01001,0.60555 -1.55597,0.8317 -0.54602,0.22615 -1.10876,0.39686 -1.68829,0.51216 C 685.17615,170.94235 684.59088,171 684,171 H 552 c -0.59094,0 -1.17621,-0.0576 -1.75586,-0.17294 -0.57965,-0.1153 -1.14239,-0.28601 -1.68835,-0.51216 -0.54596,-0.22615 -1.06464,-0.50339 -1.55597,-0.8317 -0.4914,-0.32831 -0.94599,-0.70139 -1.36383,-1.11925 -0.41791,-0.41786 -0.79096,-0.87248 -1.11927,-1.36384 -0.3283,-0.49135 -0.60559,-1.01001 -0.83172,-1.55597 -0.22614,-0.54598 -0.39685,-1.10875 -0.51215,-1.68834 C 543.05762,163.17621 543,162.59094 543,162 v -42 c 0,-0.59095 0.0576,-1.17622 0.17285,-1.75582 0.1153,-0.57959 0.28601,-1.14237 0.51215,-1.68834 0.22613,-0.54597 0.50342,-1.06462 0.83172,-1.55598 0.32831,-0.49135 0.70136,-0.94596 1.11927,-1.36382 0.41784,-0.41787 0.87243,-0.79096 1.36383,-1.11928 0.49133,-0.32831 1.01001,-0.60554 1.55597,-0.83169 0.54596,-0.22614 1.1087,-0.39685 1.68835,-0.51214 C 550.82379,111.05765 551.40906,111 552,111 Z" />
          </g>
          <g
             transform="matrix(2.9977629,0,0,2.9977629,1717.7181,353.73602)"
             id="g2036">
            <text
               id="text2040"
               style="font-variant:normal;font-weight:normal;font-size:20px;font-family:Helvetica;-inkscape-font-specification:Helvetica;writing-mode:lr-tb;fill:#000000;fill-opacity:1;fill-rule:nonzero;stroke:none"
               transform="translate(0.03125,18)">
              <tspan
                 id="tspan2038"
                 sodipodi:role="line"
                 y="0"
                 x="0 15.556641 26.679688 36.679688 42.236328 53.359375 63.359375 67.802734 78.925781">Obstacles</tspan>
            </text>
            <text
               id="text2044"
               style="font-variant:normal;font-weight:normal;font-size:20px;font-family:Helvetica;-inkscape-font-specification:Helvetica;writing-mode:lr-tb;fill:#000000;fill-opacity:1;fill-rule:nonzero;stroke:none"
               transform="translate(2.8125,42)">
              <tspan
                 id="tspan2042"
                 sodipodi:role="line"
                 y="0"
                 x="0 15.556641 26.679688 31.123047 42.246094 52.246094 57.802734 62.246094 72.246094">Objective</tspan>
            </text>
          </g>
          <g
             transform="scale(2.9977629)"
             id="g2046">
            <path
               inkscape:connector-curvature="0"
               id="path2048"
               style="fill:none;stroke:#000000;stroke-width:1;stroke-linecap:butt;stroke-linejoin:miter;stroke-miterlimit:10;stroke-dasharray:none;stroke-opacity:1"
               d="M 396,61 V 81 H 186 v 21.76" />
            <path
               inkscape:connector-curvature="0"
               id="path2050"
               style="fill:#000000;fill-opacity:1;fill-rule:nonzero;stroke:none"
               d="m 186,108.76 -4,-8 4,2 4,-2 z" />
            <path
               inkscape:connector-curvature="0"
               id="path2052"
               style="fill:none;stroke:#000000;stroke-width:1;stroke-linecap:butt;stroke-linejoin:miter;stroke-miterlimit:10;stroke-dasharray:none;stroke-opacity:1"
               d="m 186,108.76 -4,-8 4,2 4,-2 z" />
            <path
               inkscape:connector-curvature="0"
               id="path2054"
               style="fill:none;stroke:#000000;stroke-width:1;stroke-linecap:butt;stroke-linejoin:miter;stroke-miterlimit:10;stroke-dasharray:none;stroke-opacity:1"
               d="m 396,81 h 222 v 21.76" />
            <path
               inkscape:connector-curvature="0"
               id="path2056"
               style="fill:#000000;fill-opacity:1;fill-rule:nonzero;stroke:none"
               d="m 618,108.76 -4,-8 4,2 4,-2 z" />
            <path
               inkscape:connector-curvature="0"
               id="path2058"
               style="fill:none;stroke:#000000;stroke-width:1;stroke-linecap:butt;stroke-linejoin:miter;stroke-miterlimit:10;stroke-dasharray:none;stroke-opacity:1"
               d="m 618,108.76 -4,-8 4,2 4,-2 z" />
            <path
               inkscape:connector-curvature="0"
               id="path2066"
               style="fill:#ffffff;fill-opacity:1;fill-rule:nonzero;stroke:none"
               d="m 593,256 c 6e-5,1.1463 -0.0802,2.28983 -0.24072,3.4306 -0.16046,1.14078 -0.40052,2.27329 -0.72003,3.39756 -0.31946,1.12426 -0.71686,2.23486 -1.1922,3.33181 -0.47541,1.09696 -1.02643,2.17493 -1.65314,3.23395 -0.62665,1.05905 -1.32593,2.09403 -2.09784,3.10498 -0.77197,1.01096 -1.61285,1.99295 -2.52264,2.94605 -0.90979,0.95312 -1.8841,1.87274 -2.92292,2.75882 -1.03888,0.88607 -2.13727,1.7344 -3.29522,2.54495 -1.1579,0.81058 -2.36982,1.57944 -3.63569,2.30664 -1.26586,0.7272 -2.57959,1.40924 -3.94122,2.04605 -1.36157,0.63687 -2.76446,1.22546 -4.20862,1.76581 -1.44421,0.54034 -2.92279,1.02984 -4.43567,1.4685 -1.51294,0.43869 -3.05291,0.82441 -4.61993,1.1572 -1.56708,0.33273 -3.15363,0.61093 -4.7597,0.83453 -1.60608,0.22367 -3.22394,0.39167 -4.85364,0.504 C 546.27118,290.94382 544.63757,291 543,291 c -1.63757,0 -3.27118,-0.0562 -4.90082,-0.16855 -1.6297,-0.11233 -3.24762,-0.28033 -4.85376,-0.504 -1.60608,-0.2236 -3.19262,-0.5018 -4.75964,-0.83456 -1.56708,-0.33276 -3.10706,-0.71848 -4.62,-1.15717 -1.51287,-0.43866 -2.99145,-0.92816 -4.43567,-1.4685 -1.44415,-0.54038 -2.84704,-1.12897 -4.20867,-1.76584 -1.36158,-0.63681 -2.6753,-1.31882 -3.94111,-2.04602 -1.26586,-0.7272 -2.47778,-1.49606 -3.63571,-2.30664 -1.15793,-0.81055 -2.25631,-1.65888 -3.29516,-2.54495 -1.03888,-0.88608 -2.01322,-1.8057 -2.92301,-2.75882 -0.90976,-0.9531 -1.75061,-1.93509 -2.52255,-2.94605 -0.77194,-1.01095 -1.47125,-2.04596 -2.09793,-3.10501 -0.62662,-1.05899 -1.17764,-2.13696 -1.65302,-3.23392 -0.47537,-1.09695 -0.8728,-2.20755 -1.19229,-3.33181 -0.31946,-1.12427 -0.55941,-2.25678 -0.71991,-3.39756 C 493.08026,258.28983 493,257.1463 493,256 c 0,-1.14629 0.0803,-2.28983 0.24075,-3.4306 0.1605,-1.14077 0.40045,-2.27329 0.71991,-3.39757 0.31949,-1.12425 0.71692,-2.23485 1.19226,-3.33179 0.47541,-1.09694 1.02643,-2.17492 1.65305,-3.23398 0.62668,-1.05903 1.32599,-2.09402 2.09793,-3.10496 0.77194,-1.01094 1.61282,-1.99297 2.52258,-2.94609 0.90979,-0.95308 1.88413,-1.87268 2.92298,-2.75879 1.03885,-0.88609 2.13723,-1.73441 3.29516,-2.54497 1.15793,-0.81055 2.36985,-1.57942 3.63571,-2.30662 1.26581,-0.72721 2.57953,-1.40923 3.94104,-2.04609 1.36164,-0.63682 2.76453,-1.22543 4.20868,-1.76579 1.44428,-0.54036 2.92286,-1.02988 4.43573,-1.46855 1.51294,-0.43866 3.05292,-0.82436 4.62,-1.15709 1.56702,-0.33275 3.15356,-0.61095 4.75964,-0.83459 1.60614,-0.22362 3.22406,-0.39162 4.85376,-0.50397 1.62964,-0.11235 3.26325,-0.16853 4.90082,-0.16855 1.63757,2e-5 3.27118,0.0562 4.90082,0.16853 1.6297,0.11237 3.24756,0.28035 4.85364,0.50397 1.60607,0.22363 3.19262,0.50183 4.7597,0.83458 1.56702,0.33275 3.10699,0.71844 4.61993,1.1571 1.51288,0.43868 2.99146,0.92821 4.43567,1.46857 1.44416,0.54036 2.84705,1.12897 4.20862,1.76579 1.36163,0.63686 2.67536,1.31888 3.94122,2.04609 1.26587,0.7272 2.47779,1.49607 3.63569,2.30662 1.15795,0.81056 2.25634,1.65889 3.29522,2.54498 1.03882,0.8861 2.01313,1.8057 2.92292,2.75878 0.90979,0.95312 1.75067,1.93516 2.52258,2.9461 0.77191,1.01094 1.47125,2.04592 2.0979,3.10495 0.62671,1.05906 1.17773,2.13704 1.65314,3.23397 0.47534,1.09694 0.87274,2.20755 1.1922,3.3318 0.31951,1.12428 0.55957,2.2568 0.72003,3.39758 0.16052,1.14076 0.24078,2.2843 0.24072,3.43059 z" />
            <path
               inkscape:connector-curvature="0"
               id="path2068"
               style="fill:none;stroke:#000000;stroke-width:1;stroke-linecap:butt;stroke-linejoin:miter;stroke-miterlimit:10;stroke-dasharray:none;stroke-opacity:1"
               d="m 593,256 c 6e-5,1.1463 -0.0802,2.28983 -0.24072,3.4306 -0.16046,1.14078 -0.40052,2.27329 -0.72003,3.39756 -0.31946,1.12426 -0.71686,2.23486 -1.1922,3.33181 -0.47541,1.09696 -1.02643,2.17493 -1.65314,3.23395 -0.62665,1.05905 -1.32593,2.09403 -2.09784,3.10498 -0.77197,1.01096 -1.61285,1.99295 -2.52264,2.94605 -0.90979,0.95312 -1.8841,1.87274 -2.92292,2.75882 -1.03888,0.88607 -2.13727,1.7344 -3.29522,2.54495 -1.1579,0.81058 -2.36982,1.57944 -3.63569,2.30664 -1.26586,0.7272 -2.57959,1.40924 -3.94122,2.04605 -1.36157,0.63687 -2.76446,1.22546 -4.20862,1.76581 -1.44421,0.54034 -2.92279,1.02984 -4.43567,1.4685 -1.51294,0.43869 -3.05291,0.82441 -4.61993,1.1572 -1.56708,0.33273 -3.15363,0.61093 -4.7597,0.83453 -1.60608,0.22367 -3.22394,0.39167 -4.85364,0.504 C 546.27118,290.94382 544.63757,291 543,291 c -1.63757,0 -3.27118,-0.0562 -4.90082,-0.16855 -1.6297,-0.11233 -3.24762,-0.28033 -4.85376,-0.504 -1.60608,-0.2236 -3.19262,-0.5018 -4.75964,-0.83456 -1.56708,-0.33276 -3.10706,-0.71848 -4.62,-1.15717 -1.51287,-0.43866 -2.99145,-0.92816 -4.43567,-1.4685 -1.44415,-0.54038 -2.84704,-1.12897 -4.20867,-1.76584 -1.36158,-0.63681 -2.6753,-1.31882 -3.94111,-2.04602 -1.26586,-0.7272 -2.47778,-1.49606 -3.63571,-2.30664 -1.15793,-0.81055 -2.25631,-1.65888 -3.29516,-2.54495 -1.03888,-0.88608 -2.01322,-1.8057 -2.92301,-2.75882 -0.90976,-0.9531 -1.75061,-1.93509 -2.52255,-2.94605 -0.77194,-1.01095 -1.47125,-2.04596 -2.09793,-3.10501 -0.62662,-1.05899 -1.17764,-2.13696 -1.65302,-3.23392 -0.47537,-1.09695 -0.8728,-2.20755 -1.19229,-3.33181 -0.31946,-1.12427 -0.55941,-2.25678 -0.71991,-3.39756 C 493.08026,258.28983 493,257.1463 493,256 c 0,-1.14629 0.0803,-2.28983 0.24075,-3.4306 0.1605,-1.14077 0.40045,-2.27329 0.71991,-3.39757 0.31949,-1.12425 0.71692,-2.23485 1.19226,-3.33179 0.47541,-1.09694 1.02643,-2.17492 1.65305,-3.23398 0.62668,-1.05903 1.32599,-2.09402 2.09793,-3.10496 0.77194,-1.01094 1.61282,-1.99297 2.52258,-2.94609 0.90979,-0.95308 1.88413,-1.87268 2.92298,-2.75879 1.03885,-0.88609 2.13723,-1.73441 3.29516,-2.54497 1.15793,-0.81055 2.36985,-1.57942 3.63571,-2.30662 1.26581,-0.72721 2.57953,-1.40923 3.94104,-2.04609 1.36164,-0.63682 2.76453,-1.22543 4.20868,-1.76579 1.44428,-0.54036 2.92286,-1.02988 4.43573,-1.46855 1.51294,-0.43866 3.05292,-0.82436 4.62,-1.15709 1.56702,-0.33275 3.15356,-0.61095 4.75964,-0.83459 1.60614,-0.22362 3.22406,-0.39162 4.85376,-0.50397 1.62964,-0.11235 3.26325,-0.16853 4.90082,-0.16855 1.63757,2e-5 3.27118,0.0562 4.90082,0.16853 1.6297,0.11237 3.24756,0.28035 4.85364,0.50397 1.60607,0.22363 3.19262,0.50183 4.7597,0.83458 1.56702,0.33275 3.10699,0.71844 4.61993,1.1571 1.51288,0.43868 2.99146,0.92821 4.43567,1.46857 1.44416,0.54036 2.84705,1.12897 4.20862,1.76579 1.36163,0.63686 2.67536,1.31888 3.94122,2.04609 1.26587,0.7272 2.47779,1.49607 3.63569,2.30662 1.15795,0.81056 2.25634,1.65889 3.29522,2.54498 1.03882,0.8861 2.01313,1.8057 2.92292,2.75878 0.90979,0.95312 1.75067,1.93516 2.52258,2.9461 0.77191,1.01094 1.47125,2.04592 2.0979,3.10495 0.62671,1.05906 1.17773,2.13704 1.65314,3.23397 0.47534,1.09694 0.87274,2.20755 1.1922,3.3318 0.31951,1.12428 0.55957,2.2568 0.72003,3.39758 0.16052,1.14076 0.24078,2.2843 0.24072,3.43059 z" />
          </g>
          <g
             transform="matrix(2.9977629,0,0,2.9977629,1549.8434,734.4519)"
             id="g2070">
            <text
               id="text2074"
               style="font-variant:normal;font-weight:normal;font-size:20px;font-family:Helvetica;-inkscape-font-specification:Helvetica;writing-mode:lr-tb;fill:#000000;fill-opacity:1;fill-rule:nonzero;stroke:none"
               transform="translate(0.484375,18)">
              <tspan
                 id="tspan2072"
                 sodipodi:role="line"
                 y="0"
                 x="0 13.339844 18.896484 30.019531 35.576172 40.019531">Static</tspan>
            </text>
          </g>
          <g
             transform="scale(2.9977629)"
             id="g2076">
            <path
               inkscape:connector-curvature="0"
               id="path2084"
               style="fill:#ffffff;fill-opacity:1;fill-rule:nonzero;stroke:none"
               d="m 743,256 c 0,1.1463 -0.0803,2.28983 -0.24084,3.4306 -0.16047,1.14078 -0.40046,2.27329 -0.71998,3.39756 -0.31939,1.12426 -0.71679,2.23486 -1.1922,3.33181 -0.47534,1.09696 -1.02636,2.17493 -1.65307,3.23395 -0.62665,1.05905 -1.32593,2.09403 -2.09784,3.10498 -0.77197,1.01096 -1.61285,1.99295 -2.52264,2.94605 -0.90973,0.95312 -1.88404,1.87274 -2.92292,2.75882 -1.03888,0.88607 -2.13727,1.7344 -3.29522,2.54495 -1.1579,0.81058 -2.36982,1.57944 -3.63562,2.30664 -1.26581,0.7272 -2.57959,1.40924 -3.94123,2.04605 -1.36151,0.63687 -2.7644,1.22546 -4.20862,1.76581 -1.44415,0.54034 -2.92273,1.02984 -4.43573,1.4685 -1.51287,0.43869 -3.05285,0.82441 -4.61993,1.1572 -1.56702,0.33273 -3.15356,0.61093 -4.7597,0.83453 -1.60602,0.22367 -3.22388,0.39167 -4.85358,0.504 C 696.27118,290.94382 694.63757,291 693,291 c -1.63751,0 -3.27112,-0.0562 -4.90082,-0.16855 -1.6297,-0.11233 -3.24762,-0.28033 -4.85376,-0.504 -1.60614,-0.2236 -3.19269,-0.5018 -4.75964,-0.83456 -1.56708,-0.33276 -3.10706,-0.71848 -4.61994,-1.15717 -1.51287,-0.43866 -2.99145,-0.92816 -4.43566,-1.4685 -1.44422,-0.54038 -2.84711,-1.12897 -4.20874,-1.76584 -1.36152,-0.63681 -2.67524,-1.31882 -3.94111,-2.04602 -1.26586,-0.7272 -2.47778,-1.49606 -3.63568,-2.30664 -1.15789,-0.81055 -2.25622,-1.65888 -3.2951,-2.54495 -1.03888,-0.88608 -2.01325,-1.8057 -2.92304,-2.75882 -0.90979,-0.9531 -1.75067,-1.93509 -2.52258,-2.94605 -0.77191,-1.01095 -1.47125,-2.04596 -2.0979,-3.10501 -0.62665,-1.05899 -1.17761,-2.13696 -1.65301,-3.23392 -0.47541,-1.09695 -0.87281,-2.20755 -1.19233,-3.33181 -0.31945,-1.12427 -0.55944,-2.25678 -0.71997,-3.39756 C 643.08026,258.28983 643,257.1463 643,256 c 0,-1.14629 0.0803,-2.28983 0.24072,-3.4306 0.16053,-1.14077 0.40052,-2.27329 0.71997,-3.39757 0.31952,-1.12425 0.71692,-2.23485 1.19233,-3.33179 0.4754,-1.09694 1.02636,-2.17492 1.65301,-3.23398 0.62665,-1.05903 1.32599,-2.09402 2.0979,-3.10496 0.77191,-1.01094 1.61279,-1.99297 2.52258,-2.94609 0.90979,-0.95308 1.88416,-1.87268 2.92304,-2.75879 1.03888,-0.88609 2.13721,-1.73441 3.2951,-2.54497 1.1579,-0.81055 2.36982,-1.57942 3.63568,-2.30662 1.26587,-0.72721 2.57959,-1.40923 3.94111,-2.04609 1.36163,-0.63682 2.76452,-1.22543 4.20874,-1.76579 1.44421,-0.54036 2.92279,-1.02988 4.43566,-1.46855 1.51288,-0.43866 3.05286,-0.82436 4.61994,-1.15709 1.56695,-0.33275 3.1535,-0.61095 4.75964,-0.83459 1.60614,-0.22362 3.22406,-0.39162 4.85376,-0.50397 1.6297,-0.11235 3.26331,-0.16853 4.90082,-0.16855 1.63757,2e-5 3.27118,0.0562 4.90088,0.16853 1.6297,0.11237 3.24756,0.28035 4.85358,0.50397 1.60614,0.22363 3.19268,0.50183 4.7597,0.83458 1.56708,0.33275 3.10706,0.71844 4.61993,1.1571 1.513,0.43868 2.99152,0.92821 4.43567,1.46857 1.44428,0.54036 2.84717,1.12897 4.20868,1.76579 1.36164,0.63686 2.67542,1.31888 3.94123,2.04609 1.2658,0.7272 2.47772,1.49607 3.63562,2.30662 1.15795,0.81056 2.25634,1.65889 3.29522,2.54498 1.03888,0.8861 2.01319,1.8057 2.92292,2.75878 0.90979,0.95312 1.75067,1.93516 2.52258,2.9461 0.77191,1.01094 1.47125,2.04592 2.0979,3.10495 0.62671,1.05906 1.17773,2.13704 1.65314,3.23397 0.4754,1.09694 0.8728,2.20755 1.1922,3.3318 0.31951,1.12428 0.5595,2.2568 0.71997,3.39758 C 742.91974,253.71017 743,254.85371 743,256 Z" />
            <path
               inkscape:connector-curvature="0"
               id="path2086"
               style="fill:none;stroke:#000000;stroke-width:1;stroke-linecap:butt;stroke-linejoin:miter;stroke-miterlimit:10;stroke-dasharray:none;stroke-opacity:1"
               d="m 743,256 c 0,1.1463 -0.0803,2.28983 -0.24084,3.4306 -0.16047,1.14078 -0.40046,2.27329 -0.71998,3.39756 -0.31939,1.12426 -0.71679,2.23486 -1.1922,3.33181 -0.47534,1.09696 -1.02636,2.17493 -1.65307,3.23395 -0.62665,1.05905 -1.32593,2.09403 -2.09784,3.10498 -0.77197,1.01096 -1.61285,1.99295 -2.52264,2.94605 -0.90973,0.95312 -1.88404,1.87274 -2.92292,2.75882 -1.03888,0.88607 -2.13727,1.7344 -3.29522,2.54495 -1.1579,0.81058 -2.36982,1.57944 -3.63562,2.30664 -1.26581,0.7272 -2.57959,1.40924 -3.94123,2.04605 -1.36151,0.63687 -2.7644,1.22546 -4.20862,1.76581 -1.44415,0.54034 -2.92273,1.02984 -4.43573,1.4685 -1.51287,0.43869 -3.05285,0.82441 -4.61993,1.1572 -1.56702,0.33273 -3.15356,0.61093 -4.7597,0.83453 -1.60602,0.22367 -3.22388,0.39167 -4.85358,0.504 C 696.27118,290.94382 694.63757,291 693,291 c -1.63751,0 -3.27112,-0.0562 -4.90082,-0.16855 -1.6297,-0.11233 -3.24762,-0.28033 -4.85376,-0.504 -1.60614,-0.2236 -3.19269,-0.5018 -4.75964,-0.83456 -1.56708,-0.33276 -3.10706,-0.71848 -4.61994,-1.15717 -1.51287,-0.43866 -2.99145,-0.92816 -4.43566,-1.4685 -1.44422,-0.54038 -2.84711,-1.12897 -4.20874,-1.76584 -1.36152,-0.63681 -2.67524,-1.31882 -3.94111,-2.04602 -1.26586,-0.7272 -2.47778,-1.49606 -3.63568,-2.30664 -1.15789,-0.81055 -2.25622,-1.65888 -3.2951,-2.54495 -1.03888,-0.88608 -2.01325,-1.8057 -2.92304,-2.75882 -0.90979,-0.9531 -1.75067,-1.93509 -2.52258,-2.94605 -0.77191,-1.01095 -1.47125,-2.04596 -2.0979,-3.10501 -0.62665,-1.05899 -1.17761,-2.13696 -1.65301,-3.23392 -0.47541,-1.09695 -0.87281,-2.20755 -1.19233,-3.33181 -0.31945,-1.12427 -0.55944,-2.25678 -0.71997,-3.39756 C 643.08026,258.28983 643,257.1463 643,256 c 0,-1.14629 0.0803,-2.28983 0.24072,-3.4306 0.16053,-1.14077 0.40052,-2.27329 0.71997,-3.39757 0.31952,-1.12425 0.71692,-2.23485 1.19233,-3.33179 0.4754,-1.09694 1.02636,-2.17492 1.65301,-3.23398 0.62665,-1.05903 1.32599,-2.09402 2.0979,-3.10496 0.77191,-1.01094 1.61279,-1.99297 2.52258,-2.94609 0.90979,-0.95308 1.88416,-1.87268 2.92304,-2.75879 1.03888,-0.88609 2.13721,-1.73441 3.2951,-2.54497 1.1579,-0.81055 2.36982,-1.57942 3.63568,-2.30662 1.26587,-0.72721 2.57959,-1.40923 3.94111,-2.04609 1.36163,-0.63682 2.76452,-1.22543 4.20874,-1.76579 1.44421,-0.54036 2.92279,-1.02988 4.43566,-1.46855 1.51288,-0.43866 3.05286,-0.82436 4.61994,-1.15709 1.56695,-0.33275 3.1535,-0.61095 4.75964,-0.83459 1.60614,-0.22362 3.22406,-0.39162 4.85376,-0.50397 1.6297,-0.11235 3.26331,-0.16853 4.90082,-0.16855 1.63757,2e-5 3.27118,0.0562 4.90088,0.16853 1.6297,0.11237 3.24756,0.28035 4.85358,0.50397 1.60614,0.22363 3.19268,0.50183 4.7597,0.83458 1.56708,0.33275 3.10706,0.71844 4.61993,1.1571 1.513,0.43868 2.99152,0.92821 4.43567,1.46857 1.44428,0.54036 2.84717,1.12897 4.20868,1.76579 1.36164,0.63686 2.67542,1.31888 3.94123,2.04609 1.2658,0.7272 2.47772,1.49607 3.63562,2.30662 1.15795,0.81056 2.25634,1.65889 3.29522,2.54498 1.03888,0.8861 2.01319,1.8057 2.92292,2.75878 0.90979,0.95312 1.75067,1.93516 2.52258,2.9461 0.77191,1.01094 1.47125,2.04592 2.0979,3.10495 0.62671,1.05906 1.17773,2.13704 1.65314,3.23397 0.4754,1.09694 0.8728,2.20755 1.1922,3.3318 0.31951,1.12428 0.5595,2.2568 0.71997,3.39758 C 742.91974,253.71017 743,254.85371 743,256 Z" />
          </g>
          <g
             transform="matrix(2.9977629,0,0,2.9977629,1960.537,734.4519)"
             id="g2088">
            <text
               id="text2092"
               style="font-variant:normal;font-weight:normal;font-size:20px;font-family:Helvetica;-inkscape-font-specification:Helvetica;writing-mode:lr-tb;fill:#000000;fill-opacity:1;fill-rule:nonzero;stroke:none"
               transform="translate(0.59375,18)">
              <tspan
                 id="tspan2090"
                 sodipodi:role="line"
                 y="0"
                 x="0 14.443359 24.443359 35.566406 46.689453 63.349609 67.792969">Dynamic</tspan>
            </text>
          </g>
          <g
             transform="scale(2.9977629)"
             id="g2094">
            <path
               inkscape:connector-curvature="0"
               id="path2096"
               style="fill:#ffffff;fill-opacity:1;fill-rule:nonzero;stroke:none"
               d="m 101,256 c 1e-5,1.1463 -0.0803,2.28983 -0.24075,3.4306 -0.16052,1.14078 -0.40051,2.27329 -0.71999,3.39756 -0.319472,1.12426 -0.716888,2.23486 -1.192245,3.33181 -0.475357,1.09696 -1.026374,2.17493 -1.653045,3.23395 -0.626663,1.05905 -1.325966,2.09403 -2.097908,3.10498 -0.771942,1.01096 -1.612809,1.99295 -2.522599,2.94605 -0.909774,0.95312 -1.884094,1.87274 -2.92295,2.75882 -1.038857,0.88607 -2.137253,1.7344 -3.295182,2.54495 -1.157928,0.81058 -2.369819,1.57944 -3.635673,2.30664 -1.265846,0.7272 -2.579567,1.40924 -3.941155,2.04605 -1.361579,0.63687 -2.764465,1.22546 -4.208671,1.76581 -1.444206,0.54034 -2.92276,1.02984 -4.435669,1.4685 -1.512909,0.43869 -3.052887,0.82441 -4.619934,1.1572 -1.567051,0.33273 -3.153622,0.61093 -4.759716,0.83453 -1.606091,0.22367 -3.223976,0.39167 -4.853653,0.504 C 54.271183,290.94382 52.637562,291 51,291 c -1.637562,0 -3.271179,-0.0562 -4.900856,-0.16855 -1.629677,-0.11233 -3.247562,-0.28033 -4.853661,-0.504 -1.606094,-0.2236 -3.192665,-0.5018 -4.759716,-0.83456 -1.567051,-0.33276 -3.107029,-0.71848 -4.619941,-1.15717 -1.512909,-0.43866 -2.991465,-0.92816 -4.435665,-1.4685 -1.444201,-0.54038 -2.847092,-1.12897 -4.208676,-1.76584 -1.361582,-0.63681 -2.675299,-1.31882 -3.941151,-2.04602 -1.265852,-0.7272 -2.477745,-1.49606 -3.635674,-2.30664 -1.15793,-0.81055 -2.256325,-1.65888 -3.295183,-2.54495 -1.038859,-0.88608 -2.013178,-1.8057 -2.9229586,-2.75882 -0.9097805,-0.9531 -1.7506413,-1.93509 -2.522582,-2.94605 C 6.1319947,271.48795 5.4326901,270.45294 4.8060226,269.39389 4.1793551,268.3349 3.6283422,267.25693 3.152983,266.15997 2.677624,265.06302 2.2802081,263.95242 1.9607357,262.82816 1.6412634,261.70389 1.4012726,260.57138 1.2407637,259.4306 1.0802545,258.28983 1,257.1463 1,256 c 0,-1.14629 0.080254,-2.28983 0.2407637,-3.4306 0.1605089,-1.14077 0.4004997,-2.27329 0.719972,-3.39757 0.3194724,-1.12425 0.7168883,-2.23485 1.1922473,-3.33179 0.4753592,-1.09694 1.0263721,-2.17492 1.6530396,-3.23398 0.6266675,-1.05903 1.3259721,-2.09402 2.0979138,-3.10496 0.7719407,-1.01094 1.6128015,-1.99297 2.522582,-2.94609 0.9097806,-0.95308 1.8840996,-1.87268 2.9229586,-2.75879 1.038858,-0.88609 2.137253,-1.73441 3.295183,-2.54497 1.157929,-0.81055 2.369822,-1.57942 3.635674,-2.30662 1.265852,-0.72721 2.579571,-1.40923 3.941153,-2.04609 1.361582,-0.63682 2.764475,-1.22543 4.208677,-1.76579 1.444199,-0.54036 2.922753,-1.02988 4.435662,-1.46855 1.512912,-0.43866 3.05289,-0.82436 4.619941,-1.15709 1.567047,-0.33275 3.153618,-0.61095 4.759713,-0.83459 1.606098,-0.22362 3.223987,-0.39162 4.853664,-0.50397 C 47.728821,221.0562 49.362438,221.00002 51,221 c 1.637562,2e-5 3.271183,0.0562 4.90086,0.16853 1.629677,0.11237 3.247562,0.28035 4.853653,0.50397 1.606094,0.22363 3.192665,0.50183 4.759716,0.83458 1.567047,0.33275 3.107025,0.71844 4.619934,1.1571 1.512909,0.43868 2.991463,0.92821 4.435669,1.46857 1.444206,0.54036 2.847092,1.12897 4.208671,1.76579 1.361588,0.63686 2.675309,1.31888 3.941155,2.04609 1.265854,0.7272 2.477745,1.49607 3.635673,2.30662 1.157929,0.81056 2.256325,1.65889 3.295182,2.54498 1.038856,0.8861 2.013176,1.8057 2.92295,2.75878 0.90979,0.95312 1.750657,1.93516 2.522599,2.9461 0.771942,1.01094 1.471245,2.04592 2.097908,3.10495 0.626671,1.05906 1.177688,2.13704 1.653045,3.23397 0.475357,1.09694 0.872773,2.20755 1.192245,3.3318 0.31948,1.12428 0.55947,2.2568 0.71999,3.39758 0.1605,1.14076 0.24076,2.2843 0.24075,3.43059 z" />
            <path
               inkscape:connector-curvature="0"
               id="path2098"
               style="fill:none;stroke:#000000;stroke-width:1;stroke-linecap:butt;stroke-linejoin:miter;stroke-miterlimit:10;stroke-dasharray:none;stroke-opacity:1"
               d="m 101,256 c 1e-5,1.1463 -0.0803,2.28983 -0.24075,3.4306 -0.16052,1.14078 -0.40051,2.27329 -0.71999,3.39756 -0.319472,1.12426 -0.716888,2.23486 -1.192245,3.33181 -0.475357,1.09696 -1.026374,2.17493 -1.653045,3.23395 -0.626663,1.05905 -1.325966,2.09403 -2.097908,3.10498 -0.771942,1.01096 -1.612809,1.99295 -2.522599,2.94605 -0.909774,0.95312 -1.884094,1.87274 -2.92295,2.75882 -1.038857,0.88607 -2.137253,1.7344 -3.295182,2.54495 -1.157928,0.81058 -2.369819,1.57944 -3.635673,2.30664 -1.265846,0.7272 -2.579567,1.40924 -3.941155,2.04605 -1.361579,0.63687 -2.764465,1.22546 -4.208671,1.76581 -1.444206,0.54034 -2.92276,1.02984 -4.435669,1.4685 -1.512909,0.43869 -3.052887,0.82441 -4.619934,1.1572 -1.567051,0.33273 -3.153622,0.61093 -4.759716,0.83453 -1.606091,0.22367 -3.223976,0.39167 -4.853653,0.504 C 54.271183,290.94382 52.637562,291 51,291 c -1.637562,0 -3.271179,-0.0562 -4.900856,-0.16855 -1.629677,-0.11233 -3.247562,-0.28033 -4.853661,-0.504 -1.606094,-0.2236 -3.192665,-0.5018 -4.759716,-0.83456 -1.567051,-0.33276 -3.107029,-0.71848 -4.619941,-1.15717 -1.512909,-0.43866 -2.991465,-0.92816 -4.435665,-1.4685 -1.444201,-0.54038 -2.847092,-1.12897 -4.208676,-1.76584 -1.361582,-0.63681 -2.675299,-1.31882 -3.941151,-2.04602 -1.265852,-0.7272 -2.477745,-1.49606 -3.635674,-2.30664 -1.15793,-0.81055 -2.256325,-1.65888 -3.295183,-2.54495 -1.038859,-0.88608 -2.013178,-1.8057 -2.9229586,-2.75882 -0.9097805,-0.9531 -1.7506413,-1.93509 -2.522582,-2.94605 C 6.1319947,271.48795 5.4326901,270.45294 4.8060226,269.39389 4.1793551,268.3349 3.6283422,267.25693 3.152983,266.15997 2.677624,265.06302 2.2802081,263.95242 1.9607357,262.82816 1.6412634,261.70389 1.4012726,260.57138 1.2407637,259.4306 1.0802545,258.28983 1,257.1463 1,256 c 0,-1.14629 0.080254,-2.28983 0.2407637,-3.4306 0.1605089,-1.14077 0.4004997,-2.27329 0.719972,-3.39757 0.3194724,-1.12425 0.7168883,-2.23485 1.1922473,-3.33179 0.4753592,-1.09694 1.0263721,-2.17492 1.6530396,-3.23398 0.6266675,-1.05903 1.3259721,-2.09402 2.0979138,-3.10496 0.7719407,-1.01094 1.6128015,-1.99297 2.522582,-2.94609 0.9097806,-0.95308 1.8840996,-1.87268 2.9229586,-2.75879 1.038858,-0.88609 2.137253,-1.73441 3.295183,-2.54497 1.157929,-0.81055 2.369822,-1.57942 3.635674,-2.30662 1.265852,-0.72721 2.579571,-1.40923 3.941153,-2.04609 1.361582,-0.63682 2.764475,-1.22543 4.208677,-1.76579 1.444199,-0.54036 2.922753,-1.02988 4.435662,-1.46855 1.512912,-0.43866 3.05289,-0.82436 4.619941,-1.15709 1.567047,-0.33275 3.153618,-0.61095 4.759713,-0.83459 1.606098,-0.22362 3.223987,-0.39162 4.853664,-0.50397 C 47.728821,221.0562 49.362438,221.00002 51,221 c 1.637562,2e-5 3.271183,0.0562 4.90086,0.16853 1.629677,0.11237 3.247562,0.28035 4.853653,0.50397 1.606094,0.22363 3.192665,0.50183 4.759716,0.83458 1.567047,0.33275 3.107025,0.71844 4.619934,1.1571 1.512909,0.43868 2.991463,0.92821 4.435669,1.46857 1.444206,0.54036 2.847092,1.12897 4.208671,1.76579 1.361588,0.63686 2.675309,1.31888 3.941155,2.04609 1.265854,0.7272 2.477745,1.49607 3.635673,2.30662 1.157929,0.81056 2.256325,1.65889 3.295182,2.54498 1.038856,0.8861 2.013176,1.8057 2.92295,2.75878 0.90979,0.95312 1.750657,1.93516 2.522599,2.9461 0.771942,1.01094 1.471245,2.04592 2.097908,3.10495 0.626671,1.05906 1.177688,2.13704 1.653045,3.23397 0.475357,1.09694 0.872773,2.20755 1.192245,3.3318 0.31948,1.12428 0.55947,2.2568 0.71999,3.39758 0.1605,1.14076 0.24076,2.2843 0.24075,3.43059 z" />
          </g>
          <g
             transform="matrix(2.9977629,0,0,2.9977629,20.984341,734.4519)"
             id="g2100">
            <text
               id="text2104"
               style="font-variant:normal;font-weight:normal;font-size:20px;font-family:Helvetica;-inkscape-font-specification:Helvetica;writing-mode:lr-tb;fill:#000000;fill-opacity:1;fill-rule:nonzero;stroke:none"
               transform="translate(0.59375,18)">
              <tspan
                 id="tspan2102"
                 sodipodi:role="line"
                 x="0"
                 y="0">Cartesian</tspan>
            </text>
          </g>
          <g
             transform="scale(2.9977629)"
             id="g2118">
            <path
               inkscape:connector-curvature="0"
               id="path2120"
               style="fill:none;stroke:#000000;stroke-width:1;stroke-linecap:butt;stroke-linejoin:miter;stroke-miterlimit:10;stroke-dasharray:none;stroke-opacity:1"
               d="m 186,171 v 20 H 51 v 21.75999" />
            <path
               inkscape:connector-curvature="0"
               id="path2122"
               style="fill:#000000;fill-opacity:1;fill-rule:nonzero;stroke:none"
               d="m 51,218.75999 -4,-8 4,2 4,-2 z" />
            <path
               inkscape:connector-curvature="0"
               id="path2124"
               style="fill:none;stroke:#000000;stroke-width:1;stroke-linecap:butt;stroke-linejoin:miter;stroke-miterlimit:10;stroke-dasharray:none;stroke-opacity:1"
               d="m 51,218.75999 -4,-8 4,2 4,-2 z" />
            <path
               inkscape:connector-curvature="0"
               id="path2132"
               style="fill:none;stroke:#000000;stroke-width:1;stroke-linecap:butt;stroke-linejoin:miter;stroke-miterlimit:10;stroke-dasharray:none;stroke-opacity:1"
               d="m 618,171 v 20 h -75 v 21.75999" />
            <path
               inkscape:connector-curvature="0"
               id="path2134"
               style="fill:#000000;fill-opacity:1;fill-rule:nonzero;stroke:none"
               d="m 543,218.75999 -4,-8 4,2 4,-2 z" />
            <path
               inkscape:connector-curvature="0"
               id="path2136"
               style="fill:none;stroke:#000000;stroke-width:1;stroke-linecap:butt;stroke-linejoin:miter;stroke-miterlimit:10;stroke-dasharray:none;stroke-opacity:1"
               d="m 543,218.75999 -4,-8 4,2 4,-2 z" />
            <path
               inkscape:connector-curvature="0"
               id="path2138"
               style="fill:none;stroke:#000000;stroke-width:1;stroke-linecap:butt;stroke-linejoin:miter;stroke-miterlimit:10;stroke-dasharray:none;stroke-opacity:1"
               d="m 616,191 h 77 v 21.75999" />
            <path
               inkscape:connector-curvature="0"
               id="path2140"
               style="fill:#000000;fill-opacity:1;fill-rule:nonzero;stroke:none"
               d="m 693,218.75999 -4,-8 4,2 4,-2 z" />
            <path
               inkscape:connector-curvature="0"
               id="path2142"
               style="fill:none;stroke:#000000;stroke-width:1;stroke-linecap:butt;stroke-linejoin:miter;stroke-miterlimit:10;stroke-dasharray:none;stroke-opacity:1"
               d="m 693,218.75999 -4,-8 4,2 4,-2 z" />
            <path
               inkscape:connector-curvature="0"
               id="path2150"
               style="fill:#ffffff;fill-opacity:1;fill-rule:nonzero;stroke:none"
               d="m 381,256 c 3e-5,1.1463 -0.0883,2.28983 -0.26483,3.4306 -0.17658,1.14078 -0.44058,2.27329 -0.79199,3.39756 -0.35141,1.12426 -0.78855,2.23486 -1.31147,3.33181 -0.52291,1.09696 -1.12902,2.17493 -1.81836,3.23395 -0.68933,1.05905 -1.45855,2.09403 -2.30767,3.10498 -0.84916,1.01096 -1.77411,1.99295 -2.77488,2.94605 -1.00076,0.95312 -2.07251,1.87274 -3.21524,2.75882 -1.14273,0.88607 -2.35095,1.7344 -3.62469,2.54495 -1.27371,0.81058 -2.60678,1.57944 -3.99921,2.30664 -1.39245,0.7272 -2.83755,1.40924 -4.33529,2.04605 -1.49775,0.63687 -3.04093,1.22546 -4.62958,1.76581 -1.58862,0.54034 -3.21503,1.02984 -4.87924,1.4685 -1.66419,0.43869 -3.35816,0.82441 -5.08188,1.1572 -1.72376,0.33273 -3.469,0.61093 -5.23572,0.83453 -1.76669,0.22367 -3.54639,0.39167 -5.33902,0.504 C 329.5983,290.94382 327.80133,291 326,291 c -1.8013,0 -3.5983,-0.0562 -5.39093,-0.16855 -1.79269,-0.11233 -3.57239,-0.28033 -5.33908,-0.504 -1.76669,-0.2236 -3.51193,-0.5018 -5.23566,-0.83456 -1.72378,-0.33276 -3.41775,-0.71848 -5.08197,-1.15717 -1.66421,-0.43866 -3.29062,-0.92816 -4.87921,-1.4685 -1.58862,-0.54038 -3.1318,-1.12897 -4.62955,-1.76584 -1.49771,-0.63681 -2.94281,-1.31882 -4.33526,-2.04602 -1.39243,-0.7272 -2.72553,-1.49606 -3.99924,-2.30664 -1.27371,-0.81055 -2.48193,-1.65888 -3.62466,-2.54495 -1.1428,-0.88608 -2.21457,-1.8057 -3.21534,-2.75882 -1.00073,-0.9531 -1.92566,-1.93509 -2.77481,-2.94605 -0.84912,-1.01095 -1.61834,-2.04596 -2.30771,-3.10501 -0.68933,-1.05899 -1.29544,-2.13696 -1.81829,-3.23392 -0.52292,-1.09695 -0.96009,-2.20755 -1.3115,-3.33181 -0.35141,-1.12427 -0.61538,-2.25678 -0.79193,-3.39756 C 271.08832,258.28983 271.00003,257.1463 271,256 c 3e-5,-1.14629 0.0883,-2.28983 0.26486,-3.4306 0.17655,-1.14077 0.44052,-2.27329 0.79193,-3.39757 0.35141,-1.12425 0.78858,-2.23485 1.3115,-3.33179 0.52285,-1.09694 1.12896,-2.17492 1.81829,-3.23398 0.68937,-1.05903 1.45859,-2.09402 2.30774,-3.10496 0.84916,-1.01094 1.77408,-1.99297 2.77481,-2.94609 1.00077,-0.95308 2.07251,-1.87268 3.21531,-2.75879 1.14273,-0.88609 2.35095,-1.73441 3.62466,-2.54497 1.27371,-0.81055 2.60681,-1.57942 3.99924,-2.30662 1.39245,-0.72721 2.83755,-1.40923 4.33526,-2.04609 1.49775,-0.63682 3.04093,-1.22543 4.62955,-1.76579 1.58859,-0.54036 3.215,-1.02988 4.87921,-1.46855 1.66422,-0.43866 3.35819,-0.82436 5.08197,-1.15709 1.72373,-0.33275 3.46897,-0.61095 5.23566,-0.83459 1.76669,-0.22362 3.54639,-0.39162 5.33908,-0.50397 C 322.4017,221.0562 324.1987,221.00002 326,221 c 1.80133,2e-5 3.5983,0.0562 5.39093,0.16853 1.79263,0.11237 3.57233,0.28035 5.33902,0.50397 1.76672,0.22363 3.51196,0.50183 5.23569,0.83458 1.72375,0.33275 3.41772,0.71844 5.08191,1.1571 1.66421,0.43868 3.29062,0.92821 4.87927,1.46857 1.58862,0.54036 3.1318,1.12897 4.62955,1.76579 1.49774,0.63686 2.94284,1.31888 4.33529,2.04609 1.39243,0.7272 2.7255,1.49607 3.99921,2.30662 1.27374,0.81056 2.48199,1.65889 3.62472,2.54498 1.14274,0.8861 2.21445,1.8057 3.21521,2.75878 1.00077,0.95312 1.92572,1.93516 2.77488,2.9461 0.84912,1.01094 1.61834,2.04592 2.30767,3.10495 0.68934,1.05906 1.29545,2.13704 1.81836,3.23397 0.52289,1.09694 0.96003,2.20755 1.31144,3.3318 0.35144,1.12428 0.61544,2.2568 0.79202,3.39758 0.17657,1.14076 0.26486,2.2843 0.26483,3.43059 z" />
          </g>
          <text
             xml:space="preserve"
             style="font-style:normal;font-variant:normal;font-weight:normal;font-stretch:normal;font-size:58.33333588px;line-height:1.25;font-family:'Latin Modern Math';-inkscape-font-specification:'Latin Modern Math';letter-spacing:0px;word-spacing:0px;fill:#000000;fill-opacity:1;stroke:none;stroke-width:3.12500024"
             x="445.31253"
             y="547.91284"
             id="text113"><tspan
               sodipodi:role="line"
               id="tspan111"
               x="445.31253"
               y="547.91284"
               style="font-style:normal;font-variant:normal;font-weight:normal;font-stretch:normal;font-size:37.50000381px;font-family:Arial;-inkscape-font-specification:Arial;stroke-width:3.12500024">Robot  Models</tspan></text>
          <text
             id="text117"
             y="280.05566"
             x="1101.5626"
             style="font-style:normal;font-variant:normal;font-weight:normal;font-stretch:normal;font-size:58.33333588px;line-height:1.25;font-family:'Latin Modern Math';-inkscape-font-specification:'Latin Modern Math';letter-spacing:0px;word-spacing:0px;fill:#000000;fill-opacity:1;stroke:none;stroke-width:3.12500024"
             xml:space="preserve"><tspan
               style="font-style:normal;font-variant:normal;font-weight:normal;font-stretch:normal;font-size:37.50000381px;font-family:Arial;-inkscape-font-specification:Arial;stroke-width:3.12500024"
               y="280.05566"
               x="1101.5626"
               id="tspan115"
               sodipodi:role="line">Objectives</tspan></text>
        </g>
      </g>
    </g>
  </g>
</svg>
