<?xml version="1.0" encoding="UTF-8" standalone="no"?>
<!-- Created with Inkscape (http://www.inkscape.org/) -->

<svg
   xmlns:dc="http://purl.org/dc/elements/1.1/"
   xmlns:cc="http://creativecommons.org/ns#"
   xmlns:rdf="http://www.w3.org/1999/02/22-rdf-syntax-ns#"
   xmlns:svg="http://www.w3.org/2000/svg"
   xmlns="http://www.w3.org/2000/svg"
   xmlns:sodipodi="http://sodipodi.sourceforge.net/DTD/sodipodi-0.dtd"
   xmlns:inkscape="http://www.inkscape.org/namespaces/inkscape"
   width="434.36832"
   height="240.66504"
   id="svg2"
   sodipodi:version="0.32"
   inkscape:version="0.92.2 5c3e80d, 2017-08-06"
   sodipodi:docname="MPC_scheme_basic_1.svg"
   version="1.0"
   inkscape:output_extension="org.inkscape.output.svg.inkscape">
  <defs
     id="defs4">
    <inkscape:perspective
       sodipodi:type="inkscape:persp3d"
       inkscape:vp_x="0 : 120.33252 : 1"
       inkscape:vp_y="0 : 1000 : 0"
       inkscape:vp_z="434.36832 : 120.33252 : 1"
       inkscape:persp3d-origin="217.18416 : 80.22168 : 1"
       id="perspective85" />
    <marker
       inkscape:stockid="TriangleInL"
       orient="auto"
       refY="0"
       refX="0"
       id="TriangleInL"
       style="overflow: visible;">
      <path
         id="path2846"
         d="M 5.77,0 L -2.88,5 L -2.88,-5 L 5.77,0 z "
         style="fill-rule: evenodd; stroke: black; stroke-width: 1pt; marker-start: none;"
         transform="scale(-0.8)" />
    </marker>
    <marker
       inkscape:stockid="TriangleOutL"
       orient="auto"
       refY="0"
       refX="0"
       id="TriangleOutL"
       style="overflow: visible;">
      <path
         id="path2837"
         d="M 5.77,0 L -2.88,5 L -2.88,-5 L 5.77,0 z "
         style="fill-rule: evenodd; stroke: black; stroke-width: 1pt; marker-start: none;"
         transform="scale(0.8)" />
    </marker>
    <marker
       inkscape:stockid="Arrow1Lend"
       orient="auto"
       refY="0"
       refX="0"
       id="Arrow1Lend"
       style="overflow: visible;">
      <path
         id="path2932"
         d="M 0,0 L 5,-5 L -12.5,0 L 5,5 L 0,0 z "
         style="fill-rule: evenodd; stroke: black; stroke-width: 1pt; marker-start: none;"
         transform="matrix(-0.8, 0, 0, -0.8, -10, 0)" />
    </marker>
    <marker
       inkscape:stockid="Dot_l"
       orient="auto"
       refY="0"
       refX="0"
       id="Dot_l"
       style="overflow: visible;">
      <path
         id="path2873"
         d="M -2.5,-1 C -2.5,1.76 -4.74,4 -7.5,4 C -10.26,4 -12.5,1.76 -12.5,-1 C -12.5,-3.76 -10.26,-6 -7.5,-6 C -4.74,-6 -2.5,-3.76 -2.5,-1 z "
         style="fill-rule: evenodd; stroke: black; stroke-width: 1pt; marker-start: none; marker-end: none;"
         transform="matrix(0.8, 0, 0, 0.8, 5.92, 0.8)" />
    </marker>
    <marker
       inkscape:stockid="DiamondS"
       orient="auto"
       refY="0"
       refX="0"
       id="DiamondS"
       style="overflow: visible;">
      <path
         id="path2849"
         d="M 0,-7.0710768 L -7.0710894,0 L 0,7.0710589 L 7.0710462,0 L 0,-7.0710768 z "
         style="fill-rule: evenodd; stroke: black; stroke-width: 1pt; marker-start: none;"
         transform="scale(0.2)" />
    </marker>
    <marker
       inkscape:stockid="StopL"
       orient="auto"
       refY="0"
       refX="0"
       id="StopL"
       style="overflow: visible;">
      <path
         id="path2828"
         d="M 0,5.65 L 0,-5.65"
         style="fill: none; fill-opacity: 0.75; fill-rule: evenodd; stroke: black; stroke-width: 1pt;"
         transform="scale(0.8)" />
    </marker>
    <marker
       inkscape:stockid="Arrow2Lend"
       orient="auto"
       refY="0"
       refX="0"
       id="Arrow2Lend"
       style="overflow: visible;">
      <path
         id="path2914"
         style="font-size: 12px; fill-rule: evenodd; stroke-width: 0.625; stroke-linejoin: round;"
         d="M 8.7185878,4.0337352 L -2.2072895,0.016013256 L 8.7185884,-4.0017078 C 6.97309,-1.6296469 6.9831476,1.6157441 8.7185878,4.0337352 z "
         transform="matrix(-1.1, 0, 0, -1.1, -1.1, 0)" />
    </marker>
  </defs>
  <sodipodi:namedview
     id="base"
     pagecolor="#ffffff"
     bordercolor="#666666"
     borderopacity="1.0"
     gridtolerance="10000"
     guidetolerance="10"
     objecttolerance="10"
     inkscape:pageopacity="0.0"
     inkscape:pageshadow="2"
     inkscape:zoom="1.4"
     inkscape:cx="212.16934"
     inkscape:cy="133.10724"
     inkscape:document-units="px"
     inkscape:current-layer="layer1"
     inkscape:window-width="1280"
     inkscape:window-height="676"
     inkscape:window-x="0"
     inkscape:window-y="1"
     showgrid="false"
     inkscape:window-maximized="1" />
  <metadata
     id="metadata7">
    <rdf:RDF>
      <cc:Work
         rdf:about="">
        <dc:format>image/svg+xml</dc:format>
        <dc:type
           rdf:resource="http://purl.org/dc/dcmitype/StillImage" />
        <dc:title></dc:title>
      </cc:Work>
    </rdf:RDF>
  </metadata>
  <g
     inkscape:label="Layer 1"
     inkscape:groupmode="layer"
     id="layer1"
     transform="translate(-23.6733, -4.47937)">
    <path
       style="fill: none; fill-rule: evenodd; stroke: black; stroke-width: 2; stroke-linecap: butt; stroke-linejoin: miter; marker-end: url(#Arrow2Lend); stroke-miterlimit: 4; stroke-dasharray: none; stroke-opacity: 1;"
       d="M 110.36914,226.36218 L 110.36914,14.219332"
       id="path1872" />
    <path
       style="fill: none; fill-rule: evenodd; stroke: black; stroke-width: 2; stroke-linecap: butt; stroke-linejoin: miter; marker-mid: none; marker-end: url(#Arrow2Lend); stroke-miterlimit: 4; stroke-dasharray: none; stroke-opacity: 1;"
       d="M 29.035362,203.55827 L 455.38563,203.55827"
       id="path1874" />
    <path
       style="fill: none; fill-rule: evenodd; stroke: black; stroke-width: 1.50032; stroke-linecap: butt; stroke-linejoin: miter; stroke-miterlimit: 4; stroke-dasharray: none; stroke-opacity: 1;"
       d="M 150.75016,193.11237 L 150.75016,211.61202"
       id="path2950" />
    <path
       style="fill: none; fill-rule: evenodd; stroke: black; stroke-width: 1.50032; stroke-linecap: butt; stroke-linejoin: miter; stroke-miterlimit: 4; stroke-dasharray: none; stroke-opacity: 1;"
       d="M 190.75016,193.11237 L 190.75016,211.61202"
       id="path2954" />
    <path
       style="fill: none; fill-rule: evenodd; stroke: black; stroke-width: 1.50032; stroke-linecap: butt; stroke-linejoin: miter; stroke-miterlimit: 4; stroke-dasharray: none; stroke-opacity: 1;"
       d="M 230.75016,193.11237 L 230.75016,211.61202"
       id="path2956" />
    <path
       style="fill: none; fill-rule: evenodd; stroke: black; stroke-width: 1.50032; stroke-linecap: butt; stroke-linejoin: miter; stroke-miterlimit: 4; stroke-dasharray: none; stroke-opacity: 1;"
       d="M 270.75016,193.11237 L 270.75016,211.61202"
       id="path2958" />
    <path
       style="fill: none; fill-rule: evenodd; stroke: black; stroke-width: 1.50032; stroke-linecap: butt; stroke-linejoin: miter; stroke-miterlimit: 4; stroke-dasharray: none; stroke-opacity: 1;"
       d="M 310.75016,193.11237 L 310.75016,211.61202"
       id="path2960" />
    <path
       style="fill: none; fill-rule: evenodd; stroke: black; stroke-width: 1.50032; stroke-linecap: butt; stroke-linejoin: miter; stroke-miterlimit: 4; stroke-dasharray: none; stroke-opacity: 1;"
       d="M 350.75016,193.11237 L 350.75016,211.61202"
       id="path2962" />
    <path
       style="fill: none; fill-rule: evenodd; stroke: black; stroke-width: 1.50032; stroke-linecap: butt; stroke-linejoin: miter; stroke-miterlimit: 4; stroke-dasharray: none; stroke-opacity: 1;"
       d="M 390.75016,193.11237 L 390.75016,211.61202"
       id="path2964" />
    <path
       style="font-size: 12px; font-style: normal; font-weight: normal; fill: black; fill-opacity: 1; stroke: none; stroke-width: 1px; stroke-linecap: butt; stroke-linejoin: miter; stroke-opacity: 1; font-family: Bitstream Vera Sans;"
       d="M 107,242.36218 L 107,232.3407 L 108.23047,232.3407 L 108.23047,238.05554 L 111.14258,235.10242 L 112.73535,235.10242 L 109.95996,237.79578 L 113.01562,242.36218 L 111.49805,242.36218 L 109.09863,238.65027 L 108.23047,239.48425 L 108.23047,242.36218 L 107,242.36218"
       id="text2966" />
    <path
       style="font-size: 12px; font-style: normal; font-weight: normal; fill: black; fill-opacity: 1; stroke: none; stroke-width: 1px; stroke-linecap: butt; stroke-linejoin: miter; stroke-opacity: 1; font-family: Bitstream Vera Sans;"
       d="M 140.13504,242.36218 L 140.13504,232.3407 L 141.36551,232.3407 L 141.36551,238.05554 L 144.27762,235.10242 L 145.87039,235.10242 L 143.095,237.79578 L 146.15067,242.36218 L 144.63309,242.36218 L 142.23367,238.65027 L 141.36551,239.48425 L 141.36551,242.36218 L 140.13504,242.36218 M 149.71219,240.74207 L 149.71219,237.99402 L 146.98465,237.99402 L 146.98465,236.84558 L 149.71219,236.84558 L 149.71219,234.11804 L 150.8743,234.11804 L 150.8743,236.84558 L 153.60184,236.84558 L 153.60184,237.99402 L 150.8743,237.99402 L 150.8743,240.74207 L 149.71219,240.74207 M 159.59695,242.36218 L 158.36649,242.36218 L 158.36649,234.52136 C 158.07026,234.80392 157.68061,235.08647 157.19754,235.36902 C 156.71902,235.65158 156.28836,235.86349 155.90555,236.00476 L 155.90555,234.81531 C 156.5937,234.49175 157.19526,234.09982 157.71024,233.63953 C 158.22521,233.17925 158.58979,232.73263 158.80399,232.29968 L 159.59695,232.29968 L 159.59695,242.36218"
       id="text2970" />
    <path
       style="font-size: 12px; font-style: normal; font-weight: normal; fill: black; fill-opacity: 1; stroke: none; stroke-width: 1px; stroke-linecap: butt; stroke-linejoin: miter; stroke-opacity: 1; font-family: Bitstream Vera Sans;"
       d="M 179.65234,242.36218 L 179.65234,232.3407 L 180.88281,232.3407 L 180.88281,238.05554 L 183.79492,235.10242 L 185.3877,235.10242 L 182.6123,237.79578 L 185.66797,242.36218 L 184.15039,242.36218 L 181.75098,238.65027 L 180.88281,239.48425 L 180.88281,242.36218 L 179.65234,242.36218 M 189.22949,240.74207 L 189.22949,237.99402 L 186.50195,237.99402 L 186.50195,236.84558 L 189.22949,236.84558 L 189.22949,234.11804 L 190.3916,234.11804 L 190.3916,236.84558 L 193.11914,236.84558 L 193.11914,237.99402 L 190.3916,237.99402 L 190.3916,240.74207 L 189.22949,240.74207 M 200.94629,241.17957 L 200.94629,242.36218 L 194.32227,242.36218 C 194.31315,242.06596 194.361,241.78113 194.46582,241.50769 C 194.63444,241.05652 194.90332,240.61218 195.27246,240.17468 C 195.64616,239.73719 196.18392,239.23133 196.88574,238.6571 C 197.97493,237.76388 198.71093,237.0575 199.09375,236.53796 C 199.47656,236.01388 199.66796,235.51942 199.66797,235.05457 C 199.66796,234.56694 199.49251,234.15679 199.1416,233.8241 C 198.79524,233.48687 198.34179,233.31825 197.78125,233.31824 C 197.1888,233.31825 196.71484,233.49598 196.35938,233.85144 C 196.0039,234.20692 195.82389,234.6991 195.81934,235.328 L 194.55469,235.19812 C 194.64128,234.25477 194.96712,233.537 195.53223,233.0448 C 196.09733,232.54806 196.85612,232.29969 197.80859,232.29968 C 198.77018,232.29969 199.53124,232.56629 200.0918,233.09949 C 200.65234,233.6327 200.93261,234.29351 200.93262,235.08191 C 200.93261,235.48296 200.85058,235.87716 200.68652,236.26453 C 200.52245,236.6519 200.24902,237.05978 199.86621,237.48816 C 199.48795,237.91655 198.85677,238.50444 197.97266,239.25183 C 197.23437,239.87163 196.76041,240.29317 196.55078,240.51648 C 196.34114,240.73523 196.16797,240.95626 196.03125,241.17957 L 200.94629,241.17957"
       id="text2978" />
    <path
       style="font-size: 12px; font-style: normal; font-weight: normal; fill: black; fill-opacity: 1; stroke: none; stroke-width: 1px; stroke-linecap: butt; stroke-linejoin: miter; stroke-opacity: 1; font-family: Bitstream Vera Sans;"
       d="M 341.29706,242.36218 L 341.29706,232.3407 L 342.52753,232.3407 L 342.52753,238.05554 L 345.43964,235.10242 L 347.03241,235.10242 L 344.25702,237.79578 L 347.31268,242.36218 L 345.7951,242.36218 L 343.39569,238.65027 L 342.52753,239.48425 L 342.52753,242.36218 L 341.29706,242.36218 M 350.87421,240.74207 L 350.87421,237.99402 L 348.14667,237.99402 L 348.14667,236.84558 L 350.87421,236.84558 L 350.87421,234.11804 L 352.03632,234.11804 L 352.03632,236.84558 L 354.76385,236.84558 L 354.76385,237.99402 L 352.03632,237.99402 L 352.03632,240.74207 L 350.87421,240.74207 M 356.466,245.14441 L 356.466,235.10242 L 357.5871,235.10242 L 357.5871,236.04578 C 357.85142,235.67664 358.14992,235.40093 358.4826,235.21863 C 358.81528,235.03179 359.2186,234.93836 359.69257,234.93835 C 360.31235,234.93836 360.85923,235.09787 361.33319,235.41687 C 361.80714,235.73589 362.16489,236.18706 362.40643,236.77039 C 362.64796,237.34917 362.76873,237.98491 362.76874,238.67761 C 362.76873,239.42045 362.63429,240.09037 362.36542,240.68738 C 362.10109,241.27983 361.71372,241.73556 361.20331,242.05457 C 360.69744,242.36902 360.16424,242.52624 359.6037,242.52625 C 359.19354,242.52624 358.8244,242.43966 358.49628,242.26648 C 358.17271,242.0933 357.90611,241.87455 357.69647,241.61023 L 357.69647,245.14441 L 356.466,245.14441 M 357.58026,238.77332 C 357.58026,239.70756 357.76939,240.39799 358.14764,240.8446 C 358.5259,241.29122 358.9839,241.51453 359.52167,241.51453 C 360.06854,241.51453 360.53566,241.28438 360.92303,240.8241 C 361.31496,240.35925 361.51092,239.64148 361.51093,238.67078 C 361.51092,237.74565 361.31951,237.05294 360.93671,236.59265 C 360.55845,236.13237 360.105,235.90223 359.57635,235.90222 C 359.05226,235.90223 358.58742,236.14832 358.18182,236.6405 C 357.78078,237.12814 357.58026,237.83908 357.58026,238.77332"
       id="text2982" />
    <text
       xml:space="preserve"
       style="font-style:normal;font-weight:normal;line-height:0%;font-family:'Bitstream Vera Sans';fill:#000000;fill-opacity:1;stroke:none;stroke-width:1px;stroke-linecap:butt;stroke-linejoin:miter;stroke-opacity:1"
       x="256.11401"
       y="242.362"
       id="text2986"><tspan
         sodipodi:role="line"
         id="tspan2988"
         x="256.11401"
         y="242.362"
         style="font-size:14px;line-height:1.25">...</tspan></text>
    <path
       style="fill: none; fill-rule: evenodd; stroke: black; stroke-width: 1.50032; stroke-linecap: butt; stroke-linejoin: miter; stroke-miterlimit: 4; stroke-dasharray: none; stroke-opacity: 1;"
       d="M 30.750161,193.11237 L 30.750161,211.61202"
       id="path2990" />
    <path
       style="fill: none; fill-rule: evenodd; stroke: black; stroke-width: 1.50032; stroke-linecap: butt; stroke-linejoin: miter; stroke-miterlimit: 4; stroke-dasharray: none; stroke-opacity: 1;"
       d="M 70.750161,193.11237 L 70.750161,211.61202"
       id="path2992" />
    <path
       style="fill: none; fill-rule: evenodd; stroke: rgb(33, 116, 182); stroke-width: 1.50928; stroke-linecap: butt; stroke-linejoin: miter; stroke-miterlimit: 4; stroke-dasharray: none; stroke-opacity: 1;"
       d="M 30.792227,144.32266 L 71.244963,144.32266 L 71.08488,173.90363"
       id="path2994" />
    <path
       style="fill: none; fill-rule: evenodd; stroke: rgb(33, 116, 182); stroke-width: 1.5; stroke-linecap: butt; stroke-linejoin: miter; stroke-miterlimit: 4; stroke-dasharray: none; stroke-opacity: 1;"
       d="M 70.787585,173.07647 L 111.2496,173.07647 L 111.24305,139.18428"
       id="path3014" />
    <path
       style="fill: none; fill-rule: evenodd; stroke: black; stroke-width: 1px; stroke-linecap: butt; stroke-linejoin: miter; marker-end: url(#TriangleOutL); stroke-opacity: 1;"
       d="M 130.81475,17.862183 L 211.62696,17.862183"
       id="path3061" />
    <path
       style="font-size: 12px; font-style: normal; font-weight: normal; fill: black; fill-opacity: 1; stroke: none; stroke-width: 1px; stroke-linecap: butt; stroke-linejoin: miter; stroke-opacity: 1; font-family: Bitstream Vera Sans;"
       d="M 148.42604,13.215698 L 148.42604,4.6258545 L 154.22096,4.6258545 L 154.22096,5.6395264 L 149.56276,5.6395264 L 149.56276,8.2996826 L 153.59401,8.2996826 L 153.59401,9.3133545 L 149.56276,9.3133545 L 149.56276,13.215698 L 148.42604,13.215698 M 161.3401,4.6258545 L 162.47682,4.6258545 L 162.47682,9.5887451 C 162.47681,10.452029 162.37916,11.137575 162.18385,11.645386 C 161.98853,12.153199 161.63502,12.567261 161.12331,12.887573 C 160.61549,13.20398 159.94752,13.362182 159.1194,13.362183 C 158.31471,13.362182 157.65651,13.223511 157.14479,12.946167 C 156.63307,12.668824 156.26784,12.268434 156.04909,11.744995 C 155.83034,11.217653 155.72096,10.498904 155.72096,9.5887451 L 155.72096,4.6258545 L 156.85768,4.6258545 L 156.85768,9.5828857 C 156.85768,10.328982 156.92604,10.879763 157.06276,11.235229 C 157.20338,11.586794 157.44166,11.858278 157.7776,12.049683 C 158.11744,12.24109 158.53151,12.336793 159.01979,12.336792 C 159.85572,12.336793 160.45143,12.14734 160.8069,11.768433 C 161.16236,11.389528 161.3401,10.661013 161.3401,9.5828857 L 161.3401,4.6258545 M 166.56081,13.215698 L 166.56081,5.6395264 L 163.73073,5.6395264 L 163.73073,4.6258545 L 170.53932,4.6258545 L 170.53932,5.6395264 L 167.69753,5.6395264 L 167.69753,13.215698 L 166.56081,13.215698 M 177.39479,4.6258545 L 178.53151,4.6258545 L 178.53151,9.5887451 C 178.5315,10.452029 178.43385,11.137575 178.23854,11.645386 C 178.04322,12.153199 177.68971,12.567261 177.17799,12.887573 C 176.67018,13.20398 176.00221,13.362182 175.17409,13.362183 C 174.3694,13.362182 173.71119,13.223511 173.19948,12.946167 C 172.68776,12.668824 172.32252,12.268434 172.10378,11.744995 C 171.88502,11.217653 171.77565,10.498904 171.77565,9.5887451 L 171.77565,4.6258545 L 172.91237,4.6258545 L 172.91237,9.5828857 C 172.91237,10.328982 172.98073,10.879763 173.11745,11.235229 C 173.25807,11.586794 173.49635,11.858278 173.83229,12.049683 C 174.17213,12.24109 174.58619,12.336793 175.07448,12.336792 C 175.91041,12.336793 176.50611,12.14734 176.86159,11.768433 C 177.21705,11.389528 177.39478,10.661013 177.39479,9.5828857 L 177.39479,4.6258545 M 180.44753,13.215698 L 180.44753,4.6258545 L 184.25612,4.6258545 C 185.02174,4.6258631 185.60377,4.703988 186.00221,4.8602295 C 186.40064,5.0125814 186.719,5.2840655 186.95729,5.6746826 C 187.19556,6.0653148 187.3147,6.496955 187.31471,6.9696045 C 187.3147,7.5789851 187.11744,8.0926565 186.72292,8.5106201 C 186.32838,8.9285932 185.719,9.1942179 184.89479,9.3074951 C 185.19557,9.4520301 185.42408,9.5946081 185.58034,9.7352295 C 185.91236,10.03992 186.22682,10.420779 186.5237,10.877808 L 188.01784,13.215698 L 186.58815,13.215698 L 185.45143,11.428589 C 185.11939,10.912966 184.84596,10.518435 184.63112,10.244995 C 184.41627,9.9715609 184.22291,9.7801548 184.05104,9.6707764 C 183.88307,9.561405 183.71119,9.4852332 183.53542,9.4422607 C 183.40651,9.4149208 183.19557,9.4012489 182.9026,9.4012451 L 181.58424,9.4012451 L 181.58424,13.215698 L 180.44753,13.215698 M 181.58424,8.4168701 L 184.0276,8.4168701 C 184.54713,8.4168749 184.95338,8.3641406 185.24635,8.258667 C 185.53932,8.1492971 185.76197,7.9774222 185.91432,7.743042 C 186.06666,7.5047665 186.14283,7.2469542 186.14284,6.9696045 C 186.14283,6.5633611 185.99439,6.2293771 185.69753,5.9676514 C 185.40455,5.7059401 184.93971,5.5750809 184.30299,5.5750732 L 181.58424,5.5750732 L 181.58424,8.4168701 M 189.12526,13.215698 L 189.12526,4.6258545 L 195.3362,4.6258545 L 195.3362,5.6395264 L 190.26198,5.6395264 L 190.26198,8.2703857 L 195.01393,8.2703857 L 195.01393,9.2781982 L 190.26198,9.2781982 L 190.26198,12.202026 L 195.53542,12.202026 L 195.53542,13.215698 L 189.12526,13.215698"
       id="text3069" />
    <path
       style="fill: none; fill-rule: evenodd; stroke: black; stroke-width: 1px; stroke-linecap: butt; stroke-linejoin: miter; marker-end: url(#TriangleOutL); stroke-opacity: 1;"
       d="M 90.913729,17.862183 L 28.789348,17.862183"
       id="path3073" />
    <path
       style="font-size: 12px; font-style: normal; font-weight: normal; fill: black; fill-opacity: 1; stroke: none; stroke-width: 1px; stroke-linecap: butt; stroke-linejoin: miter; stroke-opacity: 1; font-family: Bitstream Vera Sans;"
       d="M 44.887722,13.215698 L 44.887722,4.6258545 L 48.127956,4.6258545 C 48.698264,4.6258631 49.133811,4.6532068 49.434597,4.7078857 C 49.856466,4.7782067 50.209981,4.9129722 50.495144,5.1121826 C 50.780293,5.307503 51.008809,5.5828934 51.180691,5.9383545 C 51.356465,6.2938302 51.444355,6.6844548 51.444363,7.1102295 C 51.444355,7.8407036 51.211934,8.4598436 50.747097,8.9676514 C 50.282247,9.4715614 49.442404,9.7235142 48.227566,9.7235107 L 46.024441,9.7235107 L 46.024441,13.215698 L 44.887722,13.215698 M 46.024441,8.7098389 L 48.245144,8.7098389 C 48.979514,8.7098434 49.500998,8.5731248 49.809597,8.2996826 C 50.118185,8.0262503 50.272481,7.6414851 50.272488,7.1453857 C 50.272481,6.7860172 50.180685,6.4793769 49.997097,6.2254639 C 49.817404,5.9676586 49.579123,5.7977369 49.282253,5.7156982 C 49.090842,5.6649245 48.737327,5.6395339 48.221706,5.6395264 L 46.024441,5.6395264 L 46.024441,8.7098389 M 51.069363,13.215698 L 54.368191,4.6258545 L 55.5928,4.6258545 L 59.108425,13.215698 L 57.813503,13.215698 L 56.81155,10.614136 L 53.219753,10.614136 L 52.276394,13.215698 L 51.069363,13.215698 M 53.547878,9.6883545 L 56.459988,9.6883545 L 55.563503,7.3094482 C 55.290062,6.5867986 55.086937,5.9930492 54.954128,5.5281982 C 54.84475,6.0789866 54.690453,6.6258611 54.491238,7.1688232 L 53.547878,9.6883545 M 59.641628,10.455933 L 60.713894,10.362183 C 60.764673,10.791873 60.881861,11.145388 61.065456,11.422729 C 61.252954,11.696169 61.542016,11.918825 61.932644,12.090698 C 62.323266,12.258668 62.762718,12.342652 63.251003,12.342651 C 63.684592,12.342652 64.067405,12.278199 64.399441,12.149292 C 64.731466,12.020387 64.97756,11.844606 65.137722,11.621948 C 65.301778,11.395388 65.383809,11.149294 65.383816,10.883667 C 65.383809,10.614138 65.305685,10.379764 65.149441,10.180542 C 64.993185,9.9774202 64.735373,9.8074985 64.376003,9.6707764 C 64.145529,9.5809363 63.635764,9.4422645 62.846706,9.2547607 C 62.057641,9.0633586 61.504907,8.8836713 61.188503,8.7156982 C 60.778345,8.5008592 60.471705,8.2352345 60.268581,7.9188232 C 60.069362,7.5985164 59.969752,7.2410948 59.969753,6.8465576 C 59.969752,6.4129707 60.092799,6.0086742 60.338894,5.633667 C 60.584986,5.2547687 60.944361,4.9676596 61.417019,4.7723389 C 61.889672,4.577035 62.415062,4.4793789 62.993191,4.4793701 C 63.629905,4.4793789 64.190451,4.5828944 64.674831,4.789917 C 65.163107,4.9930502 65.538106,5.2938312 65.799831,5.6922607 C 66.061543,6.0907054 66.202168,6.5418768 66.221706,7.0457764 L 65.131863,7.1278076 C 65.073263,6.5848455 64.874044,6.1746897 64.534206,5.8973389 C 64.198264,5.6200027 63.700217,5.481331 63.040066,5.4813232 C 62.352563,5.481331 61.85061,5.608284 61.534206,5.8621826 C 61.221704,6.1121897 61.065454,6.4149238 61.065456,6.7703857 C 61.065454,7.0789856 61.176782,7.3328916 61.399441,7.5321045 C 61.618188,7.7313287 62.1885,7.9364066 63.110378,8.1473389 C 64.036155,8.354375 64.67092,8.5360154 65.014675,8.6922607 C 65.514669,8.9227338 65.883809,9.2157022 66.122097,9.571167 C 66.360371,9.9227328 66.479512,10.328982 66.479519,10.789917 C 66.479512,11.24695 66.348652,11.67859 66.086941,12.084839 C 65.825215,12.487183 65.448263,12.801636 64.956081,13.028198 C 64.467795,13.250854 63.917014,13.362182 63.303738,13.362183 C 62.52639,13.362182 61.874047,13.248901 61.346706,13.022339 C 60.823267,12.795777 60.411158,12.455933 60.110378,12.002808 C 59.813503,11.545778 59.657253,11.030154 59.641628,10.455933 M 70.229519,13.215698 L 70.229519,5.6395264 L 67.399441,5.6395264 L 67.399441,4.6258545 L 74.208035,4.6258545 L 74.208035,5.6395264 L 71.366238,5.6395264 L 71.366238,13.215698 L 70.229519,13.215698"
       id="text3075" />
    <path
       style="fill: none; fill-rule: evenodd; stroke: rgb(255, 145, 0); stroke-width: 1px; stroke-linecap: butt; stroke-linejoin: miter; stroke-opacity: 1;"
       d="M 30.809653,189.69191 C 62.866939,178.07961 96.762096,171.06198 110.6117,113.93047 L 110.6117,114.43554"
       id="path3135"
       sodipodi:nodetypes="ccc" />
    <path
       sodipodi:type="arc"
       style="fill: rgb(255, 145, 0); fill-opacity: 1; stroke: rgb(255, 145, 0); stroke-width: 1; stroke-miterlimit: 4; stroke-dasharray: none; stroke-opacity: 1;"
       id="path3137"
       sodipodi:cx="27.02158"
       sodipodi:cy="60.139843"
       sodipodi:rx="2.7779195"
       sodipodi:ry="2.7779195"
       d="m 29.799499,60.139843 a 2.7779195,2.7779195 0 0 1 -2.777919,2.77792 2.7779195,2.7779195 0 0 1 -2.77792,-2.77792 2.7779195,2.7779195 0 0 1 2.77792,-2.77792 2.7779195,2.7779195 0 0 1 2.777919,2.77792 z"
       transform="matrix(0.762679, 0, 0, 0.762679, 10.3227, 143.096)" />
    <path
       sodipodi:type="arc"
       style="fill: rgb(255, 145, 0); fill-opacity: 1; stroke: rgb(255, 145, 0); stroke-width: 1; stroke-miterlimit: 4; stroke-dasharray: none; stroke-opacity: 1;"
       id="path3139"
       sodipodi:cx="27.02158"
       sodipodi:cy="60.139843"
       sodipodi:rx="2.7779195"
       sodipodi:ry="2.7779195"
       d="m 29.799499,60.139843 a 2.7779195,2.7779195 0 0 1 -2.777919,2.77792 2.7779195,2.7779195 0 0 1 -2.77792,-2.77792 2.7779195,2.7779195 0 0 1 2.77792,-2.77792 2.7779195,2.7779195 0 0 1 2.777919,2.77792 z"
       transform="matrix(0.762679, 0, 0, 0.762679, 50.2669, 127.293)" />
    <path
       sodipodi:type="arc"
       style="fill: rgb(255, 145, 0); fill-opacity: 1; stroke: rgb(255, 145, 0); stroke-width: 1; stroke-miterlimit: 4; stroke-dasharray: none; stroke-opacity: 1;"
       id="path3141"
       sodipodi:cx="27.02158"
       sodipodi:cy="60.139843"
       sodipodi:rx="2.7779195"
       sodipodi:ry="2.7779195"
       d="m 29.799499,60.139843 a 2.7779195,2.7779195 0 0 1 -2.777919,2.77792 2.7779195,2.7779195 0 0 1 -2.77792,-2.77792 2.7779195,2.7779195 0 0 1 2.77792,-2.77792 2.7779195,2.7779195 0 0 1 2.777919,2.77792 z"
       transform="matrix(0.762679, 0, 0, 0.762679, 89.3963, 69.1138)" />
    <path
       style="fill:none;fill-rule:evenodd;stroke:#ff9100;stroke-width:0.93800002;stroke-linecap:butt;stroke-linejoin:miter;stroke-miterlimit:4;stroke-dasharray:none;stroke-opacity:1"
       d="M 300.46913,86.110661 L 319.58879,86.110661"
       id="path3093" />
    <path
       sodipodi:type="arc"
       style="fill:#ff9100;fill-opacity:1;stroke:#ff9100;stroke-width:1;stroke-miterlimit:4;stroke-dasharray:none;stroke-opacity:1"
       id="path3165"
       sodipodi:cx="27.02158"
       sodipodi:cy="60.139843"
       sodipodi:rx="2.7779195"
       sodipodi:ry="2.7779195"
       d="m 29.799499,60.139843 a 2.7779195,2.7779195 0 0 1 -2.777919,2.77792 2.7779195,2.7779195 0 0 1 -2.77792,-2.77792 2.7779195,2.7779195 0 0 1 2.77792,-2.77792 2.7779195,2.7779195 0 0 1 2.777919,2.77792 z"
       transform="matrix(0.762679,0,0,0.762679,289.819,40.1376)" />
    <path
       style="fill:none;fill-rule:evenodd;stroke:#2174b6;stroke-width:0.93826902px;stroke-linecap:butt;stroke-linejoin:miter;stroke-opacity:1"
       d="M 300.46913,116.50504 L 319.58879,116.50504"
       id="path4062" />
    <path
       style="fill: none; fill-rule: evenodd; stroke: black; stroke-width: 0.633744; stroke-linecap: butt; stroke-linejoin: miter; marker-start: url(#TriangleInL); marker-end: url(#TriangleOutL); stroke-miterlimit: 4; stroke-dasharray: none; stroke-opacity: 1;"
       d="M 271.87162,218.48126 L 308.94219,218.48126"
       id="path4064" />
    <path
       style="font-size: 12px; font-style: normal; font-weight: normal; fill: black; fill-opacity: 1; stroke: none; stroke-width: 1px; stroke-linecap: butt; stroke-linejoin: miter; stroke-opacity: 1; font-family: Bitstream Vera Sans;"
       d="M 260.80716,227.7982 L 261.70071,227.72008 C 261.74303,228.07815 261.84069,228.37275 261.99368,228.60387 C 262.14993,228.83173 262.39082,229.01728 262.71634,229.16051 C 263.04186,229.30048 263.40807,229.37047 263.81497,229.37047 C 264.1763,229.37047 264.49531,229.31676 264.772,229.20934 C 265.04869,229.10191 265.25377,228.95543 265.38724,228.76988 C 265.52395,228.58108 265.59231,228.376 265.59232,228.15465 C 265.59231,227.93004 265.52721,227.73473 265.397,227.56871 C 265.26679,227.39944 265.05195,227.25784 264.75247,227.14391 C 264.56041,227.06904 264.13561,226.95348 263.47806,226.79723 C 262.8205,226.63772 262.35989,226.48798 262.09622,226.34801 C 261.75442,226.16897 261.49889,225.94762 261.32962,225.68394 C 261.1636,225.41702 261.0806,225.11917 261.0806,224.79039 C 261.0806,224.42907 261.18314,224.09215 261.38821,223.77965 C 261.59329,223.4639 261.89277,223.22464 262.28665,223.06187 C 262.68053,222.89912 263.11835,222.81774 263.60013,222.81773 C 264.13072,222.81774 264.59785,222.904 265.0015,223.07652 C 265.40839,223.2458 265.72089,223.49645 265.939,223.82848 C 266.15709,224.16051 266.27428,224.53649 266.29056,224.95641 L 265.38235,225.02477 C 265.33352,224.5723 265.16751,224.2305 264.88431,223.99937 C 264.60436,223.76826 264.18932,223.6527 263.63919,223.65269 C 263.06627,223.6527 262.64798,223.7585 262.38431,223.97008 C 262.12389,224.17842 261.99368,224.4307 261.99368,224.72691 C 261.99368,224.98408 262.08645,225.19567 262.272,225.36168 C 262.45429,225.5277 262.92955,225.6986 263.69778,225.87437 C 264.46926,226.0469 264.99824,226.19827 265.2847,226.32848 C 265.70136,226.52054 266.00898,226.76468 266.20755,227.0609 C 266.40611,227.35387 266.5054,227.69241 266.5054,228.07652 C 266.5054,228.45738 266.39635,228.81708 266.17825,229.15562 C 265.96015,229.49091 265.64602,229.75296 265.23587,229.94176 C 264.82896,230.1273 264.36998,230.22008 263.85892,230.22008 C 263.21113,230.22008 262.66751,230.12568 262.22806,229.93687 C 261.79186,229.74807 261.44843,229.46487 261.19778,229.08727 C 260.95039,228.70641 260.82018,228.27672 260.80716,227.7982 M 271.0806,229.45836 C 270.75507,229.73505 270.44095,229.93036 270.13821,230.0443 C 269.83873,230.15823 269.51647,230.21519 269.17142,230.21519 C 268.60175,230.21519 268.16393,230.07685 267.85794,229.80016 C 267.55195,229.52021 267.39896,229.16376 267.39896,228.73082 C 267.39896,228.47692 267.45592,228.2458 267.56985,228.03746 C 267.68704,227.82587 267.83841,227.6566 268.02396,227.52965 C 268.21276,227.4027 268.42435,227.30667 268.65872,227.24156 C 268.83125,227.19599 269.09166,227.15205 269.43997,227.10973 C 270.1496,227.02509 270.67206,226.92418 271.00735,226.80699 C 271.01061,226.68655 271.01223,226.61005 271.01224,226.5775 C 271.01223,226.21943 270.92923,225.96715 270.76321,225.82066 C 270.5386,225.6221 270.20494,225.52282 269.76224,225.52281 C 269.34882,225.52282 269.04283,225.59606 268.84427,225.74254 C 268.64895,225.88577 268.5041,226.14131 268.4097,226.50914 L 267.55032,226.39195 C 267.62845,226.02412 267.75703,225.72789 267.93607,225.50328 C 268.1151,225.27542 268.37389,225.10127 268.71243,224.98082 C 269.05097,224.85713 269.44322,224.79528 269.88919,224.79527 C 270.3319,224.79528 270.6916,224.84736 270.96829,224.95152 C 271.24498,225.05569 271.44843,225.18753 271.57864,225.34703 C 271.70885,225.50329 271.79999,225.70185 271.85208,225.94273 C 271.88137,226.09248 271.89602,226.36266 271.89603,226.75328 L 271.89603,227.92516 C 271.89602,228.74221 271.91393,229.25979 271.94974,229.47789 C 271.9888,229.69273 272.06366,229.89944 272.17435,230.09801 L 271.25638,230.09801 C 271.16523,229.91572 271.10663,229.7025 271.0806,229.45836 M 271.00735,227.49547 C 270.68834,227.62568 270.20983,227.73636 269.57181,227.8275 C 269.21048,227.87958 268.95494,227.93818 268.80521,228.00328 C 268.65547,228.06839 268.53991,228.16442 268.45853,228.29137 C 268.37715,228.41507 268.33646,228.55341 268.33646,228.70641 C 268.33646,228.94078 268.42435,229.13609 268.60013,229.29234 C 268.77916,229.44859 269.03958,229.52672 269.38138,229.52672 C 269.71992,229.52672 270.02102,229.45348 270.2847,229.30699 C 270.54837,229.15725 270.74205,228.9538 270.86575,228.69664 C 270.96015,228.49807 271.00735,228.20511 271.00735,227.81773 L 271.00735,227.49547 M 273.26321,230.09801 L 273.26321,224.91246 L 274.04935,224.91246 L 274.04935,225.64 C 274.21211,225.3861 274.42858,225.18265 274.69876,225.02965 C 274.96894,224.8734 275.27656,224.79528 275.62161,224.79527 C 276.00572,224.79528 276.31985,224.87503 276.564,225.03453 C 276.81139,225.19404 276.98554,225.41702 277.08646,225.70348 C 277.49661,225.09801 278.03046,224.79528 278.68802,224.79527 C 279.20234,224.79528 279.59784,224.93851 279.87454,225.22496 C 280.15123,225.50817 280.28957,225.94599 280.28958,226.53844 L 280.28958,230.09801 L 279.41556,230.09801 L 279.41556,226.83141 C 279.41555,226.47985 279.38625,226.22757 279.32767,226.07457 C 279.27232,225.91832 279.16978,225.793 279.02005,225.69859 C 278.8703,225.6042 278.69452,225.557 278.49271,225.55699 C 278.12812,225.557 277.82538,225.67907 277.5845,225.9232 C 277.34361,226.16409 277.22317,226.55146 277.22318,227.08531 L 277.22318,230.09801 L 276.34427,230.09801 L 276.34427,226.72887 C 276.34427,226.33825 276.27265,226.04528 276.12943,225.84996 C 275.98619,225.65465 275.75182,225.557 275.4263,225.55699 C 275.1789,225.557 274.94941,225.6221 274.73782,225.7523 C 274.52949,225.88252 274.37812,226.07295 274.28372,226.32359 C 274.18932,226.57425 274.14212,226.93558 274.14212,227.40758 L 274.14212,230.09801 L 273.26321,230.09801 M 281.62259,232.08531 L 281.62259,224.91246 L 282.42337,224.91246 L 282.42337,225.58629 C 282.61217,225.32262 282.82539,225.12568 283.06302,224.99547 C 283.30065,224.86201 283.58873,224.79528 283.92728,224.79527 C 284.36998,224.79528 284.76061,224.90921 285.09915,225.13707 C 285.43769,225.36494 285.69322,225.6872 285.86575,226.10387 C 286.03827,226.51728 286.12454,226.97138 286.12454,227.46617 C 286.12454,227.99677 286.02851,228.47529 285.83646,228.90172 C 285.64765,229.3249 285.37096,229.65042 285.00638,229.87828 C 284.64505,230.10289 284.26419,230.21519 283.8638,230.21519 C 283.57083,230.21519 283.30716,230.15335 283.07278,230.02965 C 282.84166,229.90595 282.65123,229.7497 282.5015,229.5609 L 282.5015,232.08531 L 281.62259,232.08531 M 282.41849,227.53453 C 282.41849,228.20185 282.55358,228.69501 282.82376,229.01402 C 283.09394,229.33303 283.42109,229.49254 283.80521,229.49254 C 284.19583,229.49254 284.52949,229.32815 284.80618,228.99937 C 285.08613,228.66734 285.2261,228.15465 285.2261,227.46129 C 285.2261,226.80048 285.08938,226.30569 284.81595,225.97691 C 284.54576,225.64814 284.22187,225.48375 283.84427,225.48375 C 283.46992,225.48375 283.13789,225.65954 282.84818,226.01109 C 282.56172,226.3594 282.41849,226.86722 282.41849,227.53453 M 287.16946,230.09801 L 287.16946,222.9398 L 288.04837,222.9398 L 288.04837,230.09801 L 287.16946,230.09801 M 292.96536,228.42809 L 293.87357,228.54039 C 293.73033,229.07099 293.46503,229.48277 293.07767,229.77574 C 292.69029,230.06871 292.1955,230.21519 291.59329,230.21519 C 290.83483,230.21519 290.23261,229.98245 289.78665,229.51695 C 289.34394,229.0482 289.12259,228.39228 289.12259,227.54918 C 289.12259,226.67679 289.3472,225.9997 289.79642,225.51793 C 290.24563,225.03616 290.82832,224.79528 291.54446,224.79527 C 292.23782,224.79528 292.80423,225.03128 293.24368,225.50328 C 293.68313,225.97529 293.90286,226.63935 293.90286,227.49547 C 293.90286,227.54755 293.90123,227.62568 293.89798,227.72984 L 290.03079,227.72984 C 290.06334,228.29951 290.22448,228.7357 290.51419,229.03844 C 290.8039,229.34117 291.16523,229.49254 291.59818,229.49254 C 291.92044,229.49254 292.1955,229.4079 292.42337,229.23863 C 292.65123,229.06936 292.83189,228.79918 292.96536,228.42809 M 290.07962,227.00719 L 292.97513,227.00719 C 292.93606,226.57099 292.82538,226.24384 292.6431,226.02574 C 292.36315,225.6872 292.00019,225.51793 291.55423,225.51793 C 291.15058,225.51793 290.81041,225.65302 290.53372,225.9232 C 290.26028,226.19339 290.10892,226.55472 290.07962,227.00719 M 299.51321,230.09801 L 299.51321,223.78453 L 297.15482,223.78453 L 297.15482,222.9398 L 302.82864,222.9398 L 302.82864,223.78453 L 300.46048,223.78453 L 300.46048,230.09801 L 299.51321,230.09801 M 303.36575,223.95055 L 303.36575,222.9398 L 304.24466,222.9398 L 304.24466,223.95055 L 303.36575,223.95055 M 303.36575,230.09801 L 303.36575,224.91246 L 304.24466,224.91246 L 304.24466,230.09801 L 303.36575,230.09801 M 305.58743,230.09801 L 305.58743,224.91246 L 306.37357,224.91246 L 306.37357,225.64 C 306.53632,225.3861 306.7528,225.18265 307.02298,225.02965 C 307.29316,224.8734 307.60078,224.79528 307.94583,224.79527 C 308.32994,224.79528 308.64407,224.87503 308.88821,225.03453 C 309.13561,225.19404 309.30976,225.41702 309.41068,225.70348 C 309.82083,225.09801 310.35468,224.79528 311.01224,224.79527 C 311.52655,224.79528 311.92206,224.93851 312.19876,225.22496 C 312.47545,225.50817 312.61379,225.94599 312.6138,226.53844 L 312.6138,230.09801 L 311.73978,230.09801 L 311.73978,226.83141 C 311.73977,226.47985 311.71047,226.22757 311.65189,226.07457 C 311.59654,225.91832 311.494,225.793 311.34427,225.69859 C 311.19452,225.6042 311.01874,225.557 310.81693,225.55699 C 310.45234,225.557 310.1496,225.67907 309.90872,225.9232 C 309.66783,226.16409 309.54739,226.55146 309.54739,227.08531 L 309.54739,230.09801 L 308.66849,230.09801 L 308.66849,226.72887 C 308.66848,226.33825 308.59687,226.04528 308.45364,225.84996 C 308.31041,225.65465 308.07604,225.557 307.75052,225.55699 C 307.50312,225.557 307.27363,225.6221 307.06204,225.7523 C 306.85371,225.88252 306.70234,226.07295 306.60794,226.32359 C 306.51354,226.57425 306.46634,226.93558 306.46634,227.40758 L 306.46634,230.09801 L 305.58743,230.09801 M 317.49661,228.42809 L 318.40482,228.54039 C 318.26158,229.07099 317.99628,229.48277 317.60892,229.77574 C 317.22154,230.06871 316.72675,230.21519 316.12454,230.21519 C 315.36608,230.21519 314.76386,229.98245 314.3179,229.51695 C 313.87519,229.0482 313.65384,228.39228 313.65384,227.54918 C 313.65384,226.67679 313.87845,225.9997 314.32767,225.51793 C 314.77688,225.03616 315.35957,224.79528 316.07571,224.79527 C 316.76907,224.79528 317.33548,225.03128 317.77493,225.50328 C 318.21438,225.97529 318.43411,226.63935 318.43411,227.49547 C 318.43411,227.54755 318.43248,227.62568 318.42923,227.72984 L 314.56204,227.72984 C 314.59459,228.29951 314.75573,228.7357 315.04544,229.03844 C 315.33515,229.34117 315.69648,229.49254 316.12943,229.49254 C 316.45169,229.49254 316.72675,229.4079 316.95462,229.23863 C 317.18248,229.06936 317.36314,228.79918 317.49661,228.42809 M 314.61087,227.00719 L 317.50638,227.00719 C 317.46731,226.57099 317.35663,226.24384 317.17435,226.02574 C 316.8944,225.6872 316.53144,225.51793 316.08548,225.51793 C 315.68183,225.51793 315.34166,225.65302 315.06497,225.9232 C 314.79153,226.19339 314.64017,226.55472 314.61087,227.00719"
       id="text4066" />
    <text
       xml:space="preserve"
       style="font-style:normal;font-variant:normal;font-weight:normal;font-stretch:normal;font-size:18.66666603px;line-height:1.25;font-family:'Latin Modern Math';-inkscape-font-specification:'Latin Modern Math';letter-spacing:0px;word-spacing:0px;fill:#000000;fill-opacity:1;stroke:none"
       x="331.7132"
       y="90.523636"
       id="text957"><tspan
         sodipodi:role="line"
         id="tspan955"
         x="331.7132"
         y="90.523636"
         style="font-style:normal;font-variant:normal;font-weight:normal;font-stretch:normal;font-size:12px;font-family:Arial;-inkscape-font-specification:Arial">Measured Output</tspan></text>
    <text
       xml:space="preserve"
       style="font-style:normal;font-variant:normal;font-weight:normal;font-stretch:normal;font-size:18.66666603px;line-height:1.25;font-family:'Latin Modern Math';-inkscape-font-specification:'Latin Modern Math';letter-spacing:0px;word-spacing:0px;fill:#000000;fill-opacity:1;stroke:none"
       x="331.51727"
       y="120.64311"
       id="text961"><tspan
         sodipodi:role="line"
         id="tspan959"
         x="331.51727"
         y="120.64311"
         style="font-style:normal;font-variant:normal;font-weight:normal;font-stretch:normal;font-size:12px;font-family:Arial;-inkscape-font-specification:Arial">Past Control Input</tspan></text>
  </g>
</svg>
