<?xml version="1.0" encoding="UTF-8" standalone="no"?>
<!-- Created with Inkscape (http://www.inkscape.org/) -->

<svg
   xmlns:dc="http://purl.org/dc/elements/1.1/"
   xmlns:cc="http://creativecommons.org/ns#"
   xmlns:rdf="http://www.w3.org/1999/02/22-rdf-syntax-ns#"
   xmlns:svg="http://www.w3.org/2000/svg"
   xmlns="http://www.w3.org/2000/svg"
   xmlns:sodipodi="http://sodipodi.sourceforge.net/DTD/sodipodi-0.dtd"
   xmlns:inkscape="http://www.inkscape.org/namespaces/inkscape"
   width="434.36832"
   height="240.66504"
   id="svg2"
   sodipodi:version="0.32"
   inkscape:version="0.92.2 5c3e80d, 2017-08-06"
   sodipodi:docname="MPC_scheme_basic-5.svg"
   version="1.0"
   inkscape:output_extension="org.inkscape.output.svg.inkscape">
  <defs
     id="defs4">
    <inkscape:perspective
       sodipodi:type="inkscape:persp3d"
       inkscape:vp_x="0 : 120.33252 : 1"
       inkscape:vp_y="0 : 1000 : 0"
       inkscape:vp_z="434.36832 : 120.33252 : 1"
       inkscape:persp3d-origin="217.18416 : 80.22168 : 1"
       id="perspective85" />
    <marker
       inkscape:stockid="TriangleInL"
       orient="auto"
       refY="0"
       refX="0"
       id="TriangleInL"
       style="overflow: visible;">
      <path
         id="path2846"
         d="M 5.77,0 L -2.88,5 L -2.88,-5 L 5.77,0 z "
         style="fill-rule: evenodd; stroke: black; stroke-width: 1pt; marker-start: none;"
         transform="scale(-0.8)" />
    </marker>
    <marker
       inkscape:stockid="TriangleOutL"
       orient="auto"
       refY="0"
       refX="0"
       id="TriangleOutL"
       style="overflow: visible;">
      <path
         id="path2837"
         d="M 5.77,0 L -2.88,5 L -2.88,-5 L 5.77,0 z "
         style="fill-rule: evenodd; stroke: black; stroke-width: 1pt; marker-start: none;"
         transform="scale(0.8)" />
    </marker>
    <marker
       inkscape:stockid="Arrow1Lend"
       orient="auto"
       refY="0"
       refX="0"
       id="Arrow1Lend"
       style="overflow: visible;">
      <path
         id="path2932"
         d="M 0,0 L 5,-5 L -12.5,0 L 5,5 L 0,0 z "
         style="fill-rule: evenodd; stroke: black; stroke-width: 1pt; marker-start: none;"
         transform="matrix(-0.8, 0, 0, -0.8, -10, 0)" />
    </marker>
    <marker
       inkscape:stockid="Dot_l"
       orient="auto"
       refY="0"
       refX="0"
       id="Dot_l"
       style="overflow: visible;">
      <path
         id="path2873"
         d="M -2.5,-1 C -2.5,1.76 -4.74,4 -7.5,4 C -10.26,4 -12.5,1.76 -12.5,-1 C -12.5,-3.76 -10.26,-6 -7.5,-6 C -4.74,-6 -2.5,-3.76 -2.5,-1 z "
         style="fill-rule: evenodd; stroke: black; stroke-width: 1pt; marker-start: none; marker-end: none;"
         transform="matrix(0.8, 0, 0, 0.8, 5.92, 0.8)" />
    </marker>
    <marker
       inkscape:stockid="DiamondS"
       orient="auto"
       refY="0"
       refX="0"
       id="DiamondS"
       style="overflow: visible;">
      <path
         id="path2849"
         d="M 0,-7.0710768 L -7.0710894,0 L 0,7.0710589 L 7.0710462,0 L 0,-7.0710768 z "
         style="fill-rule: evenodd; stroke: black; stroke-width: 1pt; marker-start: none;"
         transform="scale(0.2)" />
    </marker>
    <marker
       inkscape:stockid="StopL"
       orient="auto"
       refY="0"
       refX="0"
       id="StopL"
       style="overflow: visible;">
      <path
         id="path2828"
         d="M 0,5.65 L 0,-5.65"
         style="fill: none; fill-opacity: 0.75; fill-rule: evenodd; stroke: black; stroke-width: 1pt;"
         transform="scale(0.8)" />
    </marker>
    <marker
       inkscape:stockid="Arrow2Lend"
       orient="auto"
       refY="0"
       refX="0"
       id="Arrow2Lend"
       style="overflow: visible;">
      <path
         id="path2914"
         style="font-size: 12px; fill-rule: evenodd; stroke-width: 0.625; stroke-linejoin: round;"
         d="M 8.7185878,4.0337352 L -2.2072895,0.016013256 L 8.7185884,-4.0017078 C 6.97309,-1.6296469 6.9831476,1.6157441 8.7185878,4.0337352 z "
         transform="matrix(-1.1, 0, 0, -1.1, -1.1, 0)" />
    </marker>
  </defs>
  <sodipodi:namedview
     id="base"
     pagecolor="#ffffff"
     bordercolor="#666666"
     borderopacity="1.0"
     gridtolerance="10000"
     guidetolerance="10"
     objecttolerance="10"
     inkscape:pageopacity="0.0"
     inkscape:pageshadow="2"
     inkscape:zoom="1.4"
     inkscape:cx="264.84926"
     inkscape:cy="200.37869"
     inkscape:document-units="px"
     inkscape:current-layer="layer1"
     inkscape:window-width="1280"
     inkscape:window-height="676"
     inkscape:window-x="0"
     inkscape:window-y="1"
     showgrid="false"
     inkscape:window-maximized="1" />
  <metadata
     id="metadata7">
    <rdf:RDF>
      <cc:Work
         rdf:about="">
        <dc:format>image/svg+xml</dc:format>
        <dc:type
           rdf:resource="http://purl.org/dc/dcmitype/StillImage" />
        <dc:title />
      </cc:Work>
    </rdf:RDF>
  </metadata>
  <g
     inkscape:label="Layer 1"
     inkscape:groupmode="layer"
     id="layer1"
     transform="translate(-23.6733, -4.47937)">
    <path
       style="fill: none; fill-rule: evenodd; stroke: black; stroke-width: 2; stroke-linecap: butt; stroke-linejoin: miter; marker-end: url(#Arrow2Lend); stroke-miterlimit: 4; stroke-dasharray: none; stroke-opacity: 1;"
       d="M 110.36914,226.36218 L 110.36914,14.219332"
       id="path1872" />
    <path
       style="fill: none; fill-rule: evenodd; stroke: black; stroke-width: 2; stroke-linecap: butt; stroke-linejoin: miter; marker-mid: none; marker-end: url(#Arrow2Lend); stroke-miterlimit: 4; stroke-dasharray: none; stroke-opacity: 1;"
       d="M 29.035362,203.55827 L 455.38563,203.55827"
       id="path1874" />
    <path
       style="fill: none; fill-rule: evenodd; stroke: black; stroke-width: 1.50032; stroke-linecap: butt; stroke-linejoin: miter; stroke-miterlimit: 4; stroke-dasharray: none; stroke-opacity: 1;"
       d="M 150.75016,193.11237 L 150.75016,211.61202"
       id="path2950" />
    <path
       style="fill: none; fill-rule: evenodd; stroke: black; stroke-width: 1.50032; stroke-linecap: butt; stroke-linejoin: miter; stroke-miterlimit: 4; stroke-dasharray: none; stroke-opacity: 1;"
       d="M 190.75016,193.11237 L 190.75016,211.61202"
       id="path2954" />
    <path
       style="fill: none; fill-rule: evenodd; stroke: black; stroke-width: 1.50032; stroke-linecap: butt; stroke-linejoin: miter; stroke-miterlimit: 4; stroke-dasharray: none; stroke-opacity: 1;"
       d="M 230.75016,193.11237 L 230.75016,211.61202"
       id="path2956" />
    <path
       style="fill: none; fill-rule: evenodd; stroke: black; stroke-width: 1.50032; stroke-linecap: butt; stroke-linejoin: miter; stroke-miterlimit: 4; stroke-dasharray: none; stroke-opacity: 1;"
       d="M 270.75016,193.11237 L 270.75016,211.61202"
       id="path2958" />
    <path
       style="fill: none; fill-rule: evenodd; stroke: black; stroke-width: 1.50032; stroke-linecap: butt; stroke-linejoin: miter; stroke-miterlimit: 4; stroke-dasharray: none; stroke-opacity: 1;"
       d="M 310.75016,193.11237 L 310.75016,211.61202"
       id="path2960" />
    <path
       style="fill: none; fill-rule: evenodd; stroke: black; stroke-width: 1.50032; stroke-linecap: butt; stroke-linejoin: miter; stroke-miterlimit: 4; stroke-dasharray: none; stroke-opacity: 1;"
       d="M 350.75016,193.11237 L 350.75016,211.61202"
       id="path2962" />
    <path
       style="fill: none; fill-rule: evenodd; stroke: black; stroke-width: 1.50032; stroke-linecap: butt; stroke-linejoin: miter; stroke-miterlimit: 4; stroke-dasharray: none; stroke-opacity: 1;"
       d="M 390.75016,193.11237 L 390.75016,211.61202"
       id="path2964" />
    <path
       style="font-size: 12px; font-style: normal; font-weight: normal; fill: black; fill-opacity: 1; stroke: none; stroke-width: 1px; stroke-linecap: butt; stroke-linejoin: miter; stroke-opacity: 1; font-family: Bitstream Vera Sans;"
       d="M 107,242.36218 L 107,232.3407 L 108.23047,232.3407 L 108.23047,238.05554 L 111.14258,235.10242 L 112.73535,235.10242 L 109.95996,237.79578 L 113.01562,242.36218 L 111.49805,242.36218 L 109.09863,238.65027 L 108.23047,239.48425 L 108.23047,242.36218 L 107,242.36218"
       id="text2966" />
    <path
       style="font-size: 12px; font-style: normal; font-weight: normal; fill: black; fill-opacity: 1; stroke: none; stroke-width: 1px; stroke-linecap: butt; stroke-linejoin: miter; stroke-opacity: 1; font-family: Bitstream Vera Sans;"
       d="M 140.13504,242.36218 L 140.13504,232.3407 L 141.36551,232.3407 L 141.36551,238.05554 L 144.27762,235.10242 L 145.87039,235.10242 L 143.095,237.79578 L 146.15067,242.36218 L 144.63309,242.36218 L 142.23367,238.65027 L 141.36551,239.48425 L 141.36551,242.36218 L 140.13504,242.36218 M 149.71219,240.74207 L 149.71219,237.99402 L 146.98465,237.99402 L 146.98465,236.84558 L 149.71219,236.84558 L 149.71219,234.11804 L 150.8743,234.11804 L 150.8743,236.84558 L 153.60184,236.84558 L 153.60184,237.99402 L 150.8743,237.99402 L 150.8743,240.74207 L 149.71219,240.74207 M 159.59695,242.36218 L 158.36649,242.36218 L 158.36649,234.52136 C 158.07026,234.80392 157.68061,235.08647 157.19754,235.36902 C 156.71902,235.65158 156.28836,235.86349 155.90555,236.00476 L 155.90555,234.81531 C 156.5937,234.49175 157.19526,234.09982 157.71024,233.63953 C 158.22521,233.17925 158.58979,232.73263 158.80399,232.29968 L 159.59695,232.29968 L 159.59695,242.36218"
       id="text2970" />
    <path
       style="font-size: 12px; font-style: normal; font-weight: normal; fill: black; fill-opacity: 1; stroke: none; stroke-width: 1px; stroke-linecap: butt; stroke-linejoin: miter; stroke-opacity: 1; font-family: Bitstream Vera Sans;"
       d="M 179.65234,242.36218 L 179.65234,232.3407 L 180.88281,232.3407 L 180.88281,238.05554 L 183.79492,235.10242 L 185.3877,235.10242 L 182.6123,237.79578 L 185.66797,242.36218 L 184.15039,242.36218 L 181.75098,238.65027 L 180.88281,239.48425 L 180.88281,242.36218 L 179.65234,242.36218 M 189.22949,240.74207 L 189.22949,237.99402 L 186.50195,237.99402 L 186.50195,236.84558 L 189.22949,236.84558 L 189.22949,234.11804 L 190.3916,234.11804 L 190.3916,236.84558 L 193.11914,236.84558 L 193.11914,237.99402 L 190.3916,237.99402 L 190.3916,240.74207 L 189.22949,240.74207 M 200.94629,241.17957 L 200.94629,242.36218 L 194.32227,242.36218 C 194.31315,242.06596 194.361,241.78113 194.46582,241.50769 C 194.63444,241.05652 194.90332,240.61218 195.27246,240.17468 C 195.64616,239.73719 196.18392,239.23133 196.88574,238.6571 C 197.97493,237.76388 198.71093,237.0575 199.09375,236.53796 C 199.47656,236.01388 199.66796,235.51942 199.66797,235.05457 C 199.66796,234.56694 199.49251,234.15679 199.1416,233.8241 C 198.79524,233.48687 198.34179,233.31825 197.78125,233.31824 C 197.1888,233.31825 196.71484,233.49598 196.35938,233.85144 C 196.0039,234.20692 195.82389,234.6991 195.81934,235.328 L 194.55469,235.19812 C 194.64128,234.25477 194.96712,233.537 195.53223,233.0448 C 196.09733,232.54806 196.85612,232.29969 197.80859,232.29968 C 198.77018,232.29969 199.53124,232.56629 200.0918,233.09949 C 200.65234,233.6327 200.93261,234.29351 200.93262,235.08191 C 200.93261,235.48296 200.85058,235.87716 200.68652,236.26453 C 200.52245,236.6519 200.24902,237.05978 199.86621,237.48816 C 199.48795,237.91655 198.85677,238.50444 197.97266,239.25183 C 197.23437,239.87163 196.76041,240.29317 196.55078,240.51648 C 196.34114,240.73523 196.16797,240.95626 196.03125,241.17957 L 200.94629,241.17957"
       id="text2978" />
    <path
       style="font-size: 12px; font-style: normal; font-weight: normal; fill: black; fill-opacity: 1; stroke: none; stroke-width: 1px; stroke-linecap: butt; stroke-linejoin: miter; stroke-opacity: 1; font-family: Bitstream Vera Sans;"
       d="M 341.29706,242.36218 L 341.29706,232.3407 L 342.52753,232.3407 L 342.52753,238.05554 L 345.43964,235.10242 L 347.03241,235.10242 L 344.25702,237.79578 L 347.31268,242.36218 L 345.7951,242.36218 L 343.39569,238.65027 L 342.52753,239.48425 L 342.52753,242.36218 L 341.29706,242.36218 M 350.87421,240.74207 L 350.87421,237.99402 L 348.14667,237.99402 L 348.14667,236.84558 L 350.87421,236.84558 L 350.87421,234.11804 L 352.03632,234.11804 L 352.03632,236.84558 L 354.76385,236.84558 L 354.76385,237.99402 L 352.03632,237.99402 L 352.03632,240.74207 L 350.87421,240.74207 M 356.466,245.14441 L 356.466,235.10242 L 357.5871,235.10242 L 357.5871,236.04578 C 357.85142,235.67664 358.14992,235.40093 358.4826,235.21863 C 358.81528,235.03179 359.2186,234.93836 359.69257,234.93835 C 360.31235,234.93836 360.85923,235.09787 361.33319,235.41687 C 361.80714,235.73589 362.16489,236.18706 362.40643,236.77039 C 362.64796,237.34917 362.76873,237.98491 362.76874,238.67761 C 362.76873,239.42045 362.63429,240.09037 362.36542,240.68738 C 362.10109,241.27983 361.71372,241.73556 361.20331,242.05457 C 360.69744,242.36902 360.16424,242.52624 359.6037,242.52625 C 359.19354,242.52624 358.8244,242.43966 358.49628,242.26648 C 358.17271,242.0933 357.90611,241.87455 357.69647,241.61023 L 357.69647,245.14441 L 356.466,245.14441 M 357.58026,238.77332 C 357.58026,239.70756 357.76939,240.39799 358.14764,240.8446 C 358.5259,241.29122 358.9839,241.51453 359.52167,241.51453 C 360.06854,241.51453 360.53566,241.28438 360.92303,240.8241 C 361.31496,240.35925 361.51092,239.64148 361.51093,238.67078 C 361.51092,237.74565 361.31951,237.05294 360.93671,236.59265 C 360.55845,236.13237 360.105,235.90223 359.57635,235.90222 C 359.05226,235.90223 358.58742,236.14832 358.18182,236.6405 C 357.78078,237.12814 357.58026,237.83908 357.58026,238.77332"
       id="text2982" />
    <text
       xml:space="preserve"
       style="font-style:normal;font-weight:normal;line-height:0%;font-family:'Bitstream Vera Sans';fill:#000000;fill-opacity:1;stroke:none;stroke-width:1px;stroke-linecap:butt;stroke-linejoin:miter;stroke-opacity:1"
       x="256.11401"
       y="242.362"
       id="text2986"><tspan
         sodipodi:role="line"
         id="tspan2988"
         x="256.11401"
         y="242.362"
         style="font-size:14px;line-height:1.25">...</tspan></text>
    <path
       style="fill: none; fill-rule: evenodd; stroke: black; stroke-width: 1.50032; stroke-linecap: butt; stroke-linejoin: miter; stroke-miterlimit: 4; stroke-dasharray: none; stroke-opacity: 1;"
       d="M 30.750161,193.11237 L 30.750161,211.61202"
       id="path2990" />
    <path
       style="fill: none; fill-rule: evenodd; stroke: black; stroke-width: 1.50032; stroke-linecap: butt; stroke-linejoin: miter; stroke-miterlimit: 4; stroke-dasharray: none; stroke-opacity: 1;"
       d="M 70.750161,193.11237 L 70.750161,211.61202"
       id="path2992" />
    <path
       style="fill: none; fill-rule: evenodd; stroke: rgb(33, 116, 182); stroke-width: 1.50928; stroke-linecap: butt; stroke-linejoin: miter; stroke-miterlimit: 4; stroke-dasharray: none; stroke-opacity: 1;"
       d="M 30.792227,144.32266 L 71.244963,144.32266 L 71.08488,173.90363"
       id="path2994" />
    <path
       style="fill: none; fill-rule: evenodd; stroke: rgb(33, 116, 182); stroke-width: 1.5; stroke-linecap: butt; stroke-linejoin: miter; stroke-miterlimit: 4; stroke-dasharray: none; stroke-opacity: 1;"
       d="M 70.787585,173.07647 L 111.2496,173.07647 L 111.24305,139.18428"
       id="path3014" />
    <path
       style="fill: none; fill-rule: evenodd; stroke: rgb(33, 247, 182); stroke-width: 1.5; stroke-linecap: butt; stroke-linejoin: miter; stroke-miterlimit: 4; stroke-dasharray: none; stroke-opacity: 1;"
       d="M 110.78759,139.50504 L 151.24961,139.50504 L 151.27034,105.34417"
       id="path3016" />
    <path
       style="fill: none; fill-rule: evenodd; stroke: rgb(33, 247, 182); stroke-width: 1.5; stroke-linecap: butt; stroke-linejoin: miter; stroke-miterlimit: 4; stroke-dasharray: none; stroke-opacity: 1;"
       d="M 150.78759,105.6479 L 191.24961,105.6479 L 191.2345,131.98694"
       id="path3018" />
    <path
       style="fill: none; fill-rule: evenodd; stroke: rgb(33, 247, 182); stroke-width: 1.5; stroke-linecap: butt; stroke-linejoin: miter; stroke-miterlimit: 4; stroke-dasharray: none; stroke-opacity: 1;"
       d="M 190.78759,131.6479 L 231.24961,131.6479 L 231.25,158.79075"
       id="path3020" />
    <path
       style="fill: none; fill-rule: evenodd; stroke: rgb(33, 247, 182); stroke-width: 1.5; stroke-linecap: butt; stroke-linejoin: miter; stroke-miterlimit: 4; stroke-dasharray: none; stroke-opacity: 1;"
       d="M 230.57059,158.29347 L 271.46661,158.29347 L 271.467,132.39464"
       id="path3022" />
    <path
       style="fill: none; fill-rule: evenodd; stroke: rgb(33, 247, 182); stroke-width: 1.5; stroke-linecap: butt; stroke-linejoin: miter; stroke-miterlimit: 4; stroke-dasharray: none; stroke-opacity: 1;"
       d="M 270.78759,133.05091 L 311.24961,133.05091 L 311.25,140.90806"
       id="path3024" />
    <path
       style="fill:none;fill-rule:evenodd;stroke:#ac7a00;stroke-width:0.73366398;stroke-linecap:butt;stroke-linejoin:miter;stroke-miterlimit:4;stroke-dasharray:none;stroke-opacity:1"
       d="m 110.41525,114.12692 c 0,0 8.35567,-21.218149 20.387,-28.726239 17.92603,-11.18665 30.86369,-17.788212 50.80676,-24.712492 13.45612,-4.671995 55.93972,-18.881699 111.98272,-18.881699 7.21746,0 13.51503,0.0025 19.00995,0.0067"
       id="path3057"
       sodipodi:nodetypes="csssc"
       inkscape:connector-curvature="0" />
    <path
       style="fill: none; fill-rule: evenodd; stroke: black; stroke-width: 1px; stroke-linecap: butt; stroke-linejoin: miter; marker-end: url(#TriangleOutL); stroke-opacity: 1;"
       d="M 130.81475,17.862183 L 211.62696,17.862183"
       id="path3061" />
    <path
       style="font-size: 12px; font-style: normal; font-weight: normal; fill: black; fill-opacity: 1; stroke: none; stroke-width: 1px; stroke-linecap: butt; stroke-linejoin: miter; stroke-opacity: 1; font-family: Bitstream Vera Sans;"
       d="M 148.42604,13.215698 L 148.42604,4.6258545 L 154.22096,4.6258545 L 154.22096,5.6395264 L 149.56276,5.6395264 L 149.56276,8.2996826 L 153.59401,8.2996826 L 153.59401,9.3133545 L 149.56276,9.3133545 L 149.56276,13.215698 L 148.42604,13.215698 M 161.3401,4.6258545 L 162.47682,4.6258545 L 162.47682,9.5887451 C 162.47681,10.452029 162.37916,11.137575 162.18385,11.645386 C 161.98853,12.153199 161.63502,12.567261 161.12331,12.887573 C 160.61549,13.20398 159.94752,13.362182 159.1194,13.362183 C 158.31471,13.362182 157.65651,13.223511 157.14479,12.946167 C 156.63307,12.668824 156.26784,12.268434 156.04909,11.744995 C 155.83034,11.217653 155.72096,10.498904 155.72096,9.5887451 L 155.72096,4.6258545 L 156.85768,4.6258545 L 156.85768,9.5828857 C 156.85768,10.328982 156.92604,10.879763 157.06276,11.235229 C 157.20338,11.586794 157.44166,11.858278 157.7776,12.049683 C 158.11744,12.24109 158.53151,12.336793 159.01979,12.336792 C 159.85572,12.336793 160.45143,12.14734 160.8069,11.768433 C 161.16236,11.389528 161.3401,10.661013 161.3401,9.5828857 L 161.3401,4.6258545 M 166.56081,13.215698 L 166.56081,5.6395264 L 163.73073,5.6395264 L 163.73073,4.6258545 L 170.53932,4.6258545 L 170.53932,5.6395264 L 167.69753,5.6395264 L 167.69753,13.215698 L 166.56081,13.215698 M 177.39479,4.6258545 L 178.53151,4.6258545 L 178.53151,9.5887451 C 178.5315,10.452029 178.43385,11.137575 178.23854,11.645386 C 178.04322,12.153199 177.68971,12.567261 177.17799,12.887573 C 176.67018,13.20398 176.00221,13.362182 175.17409,13.362183 C 174.3694,13.362182 173.71119,13.223511 173.19948,12.946167 C 172.68776,12.668824 172.32252,12.268434 172.10378,11.744995 C 171.88502,11.217653 171.77565,10.498904 171.77565,9.5887451 L 171.77565,4.6258545 L 172.91237,4.6258545 L 172.91237,9.5828857 C 172.91237,10.328982 172.98073,10.879763 173.11745,11.235229 C 173.25807,11.586794 173.49635,11.858278 173.83229,12.049683 C 174.17213,12.24109 174.58619,12.336793 175.07448,12.336792 C 175.91041,12.336793 176.50611,12.14734 176.86159,11.768433 C 177.21705,11.389528 177.39478,10.661013 177.39479,9.5828857 L 177.39479,4.6258545 M 180.44753,13.215698 L 180.44753,4.6258545 L 184.25612,4.6258545 C 185.02174,4.6258631 185.60377,4.703988 186.00221,4.8602295 C 186.40064,5.0125814 186.719,5.2840655 186.95729,5.6746826 C 187.19556,6.0653148 187.3147,6.496955 187.31471,6.9696045 C 187.3147,7.5789851 187.11744,8.0926565 186.72292,8.5106201 C 186.32838,8.9285932 185.719,9.1942179 184.89479,9.3074951 C 185.19557,9.4520301 185.42408,9.5946081 185.58034,9.7352295 C 185.91236,10.03992 186.22682,10.420779 186.5237,10.877808 L 188.01784,13.215698 L 186.58815,13.215698 L 185.45143,11.428589 C 185.11939,10.912966 184.84596,10.518435 184.63112,10.244995 C 184.41627,9.9715609 184.22291,9.7801548 184.05104,9.6707764 C 183.88307,9.561405 183.71119,9.4852332 183.53542,9.4422607 C 183.40651,9.4149208 183.19557,9.4012489 182.9026,9.4012451 L 181.58424,9.4012451 L 181.58424,13.215698 L 180.44753,13.215698 M 181.58424,8.4168701 L 184.0276,8.4168701 C 184.54713,8.4168749 184.95338,8.3641406 185.24635,8.258667 C 185.53932,8.1492971 185.76197,7.9774222 185.91432,7.743042 C 186.06666,7.5047665 186.14283,7.2469542 186.14284,6.9696045 C 186.14283,6.5633611 185.99439,6.2293771 185.69753,5.9676514 C 185.40455,5.7059401 184.93971,5.5750809 184.30299,5.5750732 L 181.58424,5.5750732 L 181.58424,8.4168701 M 189.12526,13.215698 L 189.12526,4.6258545 L 195.3362,4.6258545 L 195.3362,5.6395264 L 190.26198,5.6395264 L 190.26198,8.2703857 L 195.01393,8.2703857 L 195.01393,9.2781982 L 190.26198,9.2781982 L 190.26198,12.202026 L 195.53542,12.202026 L 195.53542,13.215698 L 189.12526,13.215698"
       id="text3069" />
    <path
       style="fill: none; fill-rule: evenodd; stroke: black; stroke-width: 1px; stroke-linecap: butt; stroke-linejoin: miter; marker-end: url(#TriangleOutL); stroke-opacity: 1;"
       d="M 90.913729,17.862183 L 28.789348,17.862183"
       id="path3073" />
    <path
       style="font-size: 12px; font-style: normal; font-weight: normal; fill: black; fill-opacity: 1; stroke: none; stroke-width: 1px; stroke-linecap: butt; stroke-linejoin: miter; stroke-opacity: 1; font-family: Bitstream Vera Sans;"
       d="M 44.887722,13.215698 L 44.887722,4.6258545 L 48.127956,4.6258545 C 48.698264,4.6258631 49.133811,4.6532068 49.434597,4.7078857 C 49.856466,4.7782067 50.209981,4.9129722 50.495144,5.1121826 C 50.780293,5.307503 51.008809,5.5828934 51.180691,5.9383545 C 51.356465,6.2938302 51.444355,6.6844548 51.444363,7.1102295 C 51.444355,7.8407036 51.211934,8.4598436 50.747097,8.9676514 C 50.282247,9.4715614 49.442404,9.7235142 48.227566,9.7235107 L 46.024441,9.7235107 L 46.024441,13.215698 L 44.887722,13.215698 M 46.024441,8.7098389 L 48.245144,8.7098389 C 48.979514,8.7098434 49.500998,8.5731248 49.809597,8.2996826 C 50.118185,8.0262503 50.272481,7.6414851 50.272488,7.1453857 C 50.272481,6.7860172 50.180685,6.4793769 49.997097,6.2254639 C 49.817404,5.9676586 49.579123,5.7977369 49.282253,5.7156982 C 49.090842,5.6649245 48.737327,5.6395339 48.221706,5.6395264 L 46.024441,5.6395264 L 46.024441,8.7098389 M 51.069363,13.215698 L 54.368191,4.6258545 L 55.5928,4.6258545 L 59.108425,13.215698 L 57.813503,13.215698 L 56.81155,10.614136 L 53.219753,10.614136 L 52.276394,13.215698 L 51.069363,13.215698 M 53.547878,9.6883545 L 56.459988,9.6883545 L 55.563503,7.3094482 C 55.290062,6.5867986 55.086937,5.9930492 54.954128,5.5281982 C 54.84475,6.0789866 54.690453,6.6258611 54.491238,7.1688232 L 53.547878,9.6883545 M 59.641628,10.455933 L 60.713894,10.362183 C 60.764673,10.791873 60.881861,11.145388 61.065456,11.422729 C 61.252954,11.696169 61.542016,11.918825 61.932644,12.090698 C 62.323266,12.258668 62.762718,12.342652 63.251003,12.342651 C 63.684592,12.342652 64.067405,12.278199 64.399441,12.149292 C 64.731466,12.020387 64.97756,11.844606 65.137722,11.621948 C 65.301778,11.395388 65.383809,11.149294 65.383816,10.883667 C 65.383809,10.614138 65.305685,10.379764 65.149441,10.180542 C 64.993185,9.9774202 64.735373,9.8074985 64.376003,9.6707764 C 64.145529,9.5809363 63.635764,9.4422645 62.846706,9.2547607 C 62.057641,9.0633586 61.504907,8.8836713 61.188503,8.7156982 C 60.778345,8.5008592 60.471705,8.2352345 60.268581,7.9188232 C 60.069362,7.5985164 59.969752,7.2410948 59.969753,6.8465576 C 59.969752,6.4129707 60.092799,6.0086742 60.338894,5.633667 C 60.584986,5.2547687 60.944361,4.9676596 61.417019,4.7723389 C 61.889672,4.577035 62.415062,4.4793789 62.993191,4.4793701 C 63.629905,4.4793789 64.190451,4.5828944 64.674831,4.789917 C 65.163107,4.9930502 65.538106,5.2938312 65.799831,5.6922607 C 66.061543,6.0907054 66.202168,6.5418768 66.221706,7.0457764 L 65.131863,7.1278076 C 65.073263,6.5848455 64.874044,6.1746897 64.534206,5.8973389 C 64.198264,5.6200027 63.700217,5.481331 63.040066,5.4813232 C 62.352563,5.481331 61.85061,5.608284 61.534206,5.8621826 C 61.221704,6.1121897 61.065454,6.4149238 61.065456,6.7703857 C 61.065454,7.0789856 61.176782,7.3328916 61.399441,7.5321045 C 61.618188,7.7313287 62.1885,7.9364066 63.110378,8.1473389 C 64.036155,8.354375 64.67092,8.5360154 65.014675,8.6922607 C 65.514669,8.9227338 65.883809,9.2157022 66.122097,9.571167 C 66.360371,9.9227328 66.479512,10.328982 66.479519,10.789917 C 66.479512,11.24695 66.348652,11.67859 66.086941,12.084839 C 65.825215,12.487183 65.448263,12.801636 64.956081,13.028198 C 64.467795,13.250854 63.917014,13.362182 63.303738,13.362183 C 62.52639,13.362182 61.874047,13.248901 61.346706,13.022339 C 60.823267,12.795777 60.411158,12.455933 60.110378,12.002808 C 59.813503,11.545778 59.657253,11.030154 59.641628,10.455933 M 70.229519,13.215698 L 70.229519,5.6395264 L 67.399441,5.6395264 L 67.399441,4.6258545 L 74.208035,4.6258545 L 74.208035,5.6395264 L 71.366238,5.6395264 L 71.366238,13.215698 L 70.229519,13.215698"
       id="text3075" />
    <path
       style="fill: none; fill-rule: evenodd; stroke: rgb(255, 145, 0); stroke-width: 1px; stroke-linecap: butt; stroke-linejoin: miter; stroke-opacity: 1;"
       d="M 30.809653,189.69191 C 62.866939,178.07961 96.762096,171.06198 110.6117,113.93047 L 110.6117,114.43554"
       id="path3135"
       sodipodi:nodetypes="ccc" />
    <path
       sodipodi:type="arc"
       style="fill: rgb(255, 145, 0); fill-opacity: 1; stroke: rgb(255, 145, 0); stroke-width: 1; stroke-miterlimit: 4; stroke-dasharray: none; stroke-opacity: 1;"
       id="path3137"
       sodipodi:cx="27.02158"
       sodipodi:cy="60.139843"
       sodipodi:rx="2.7779195"
       sodipodi:ry="2.7779195"
       d="m 29.799499,60.139843 a 2.7779195,2.7779195 0 0 1 -2.777919,2.77792 2.7779195,2.7779195 0 0 1 -2.77792,-2.77792 2.7779195,2.7779195 0 0 1 2.77792,-2.77792 2.7779195,2.7779195 0 0 1 2.777919,2.77792 z"
       transform="matrix(0.762679, 0, 0, 0.762679, 10.3227, 143.096)" />
    <path
       sodipodi:type="arc"
       style="fill: rgb(255, 145, 0); fill-opacity: 1; stroke: rgb(255, 145, 0); stroke-width: 1; stroke-miterlimit: 4; stroke-dasharray: none; stroke-opacity: 1;"
       id="path3139"
       sodipodi:cx="27.02158"
       sodipodi:cy="60.139843"
       sodipodi:rx="2.7779195"
       sodipodi:ry="2.7779195"
       d="m 29.799499,60.139843 a 2.7779195,2.7779195 0 0 1 -2.777919,2.77792 2.7779195,2.7779195 0 0 1 -2.77792,-2.77792 2.7779195,2.7779195 0 0 1 2.77792,-2.77792 2.7779195,2.7779195 0 0 1 2.777919,2.77792 z"
       transform="matrix(0.762679, 0, 0, 0.762679, 50.2669, 127.293)" />
    <path
       sodipodi:type="arc"
       style="fill: rgb(255, 145, 0); fill-opacity: 1; stroke: rgb(255, 145, 0); stroke-width: 1; stroke-miterlimit: 4; stroke-dasharray: none; stroke-opacity: 1;"
       id="path3141"
       sodipodi:cx="27.02158"
       sodipodi:cy="60.139843"
       sodipodi:rx="2.7779195"
       sodipodi:ry="2.7779195"
       d="m 29.799499,60.139843 a 2.7779195,2.7779195 0 0 1 -2.777919,2.77792 2.7779195,2.7779195 0 0 1 -2.77792,-2.77792 2.7779195,2.7779195 0 0 1 2.77792,-2.77792 2.7779195,2.7779195 0 0 1 2.777919,2.77792 z"
       transform="matrix(0.762679, 0, 0, 0.762679, 89.3963, 69.1138)" />
    <path
       sodipodi:type="arc"
       style="fill:#ac7a00;fill-opacity:1;stroke:#ac7a00;stroke-width:1;stroke-miterlimit:4;stroke-dasharray:none;stroke-opacity:1"
       id="path3143"
       sodipodi:cx="27.02158"
       sodipodi:cy="60.139843"
       sodipodi:rx="2.7779195"
       sodipodi:ry="2.7779195"
       d="m 29.799499,60.139843 a 2.7779195,2.7779195 0 0 1 -2.777919,2.77792 2.7779195,2.7779195 0 0 1 -2.77792,-2.77792 2.7779195,2.7779195 0 0 1 2.77792,-2.77792 2.7779195,2.7779195 0 0 1 2.777919,2.77792 z"
       transform="matrix(0.762679, 0, 0, 0.762679, 129.703, 28.7483)" />
    <path
       sodipodi:type="arc"
       style="fill:#ac7a00;fill-opacity:1;stroke:#ac7a00;stroke-width:1;stroke-miterlimit:4;stroke-dasharray:none;stroke-opacity:1"
       id="path3151"
       sodipodi:cx="27.02158"
       sodipodi:cy="60.139843"
       sodipodi:rx="2.7779195"
       sodipodi:ry="2.7779195"
       d="m 29.799499,60.139843 a 2.7779195,2.7779195 0 0 1 -2.777919,2.77792 2.7779195,2.7779195 0 0 1 -2.77792,-2.77792 2.7779195,2.7779195 0 0 1 2.77792,-2.77792 2.7779195,2.7779195 0 0 1 2.777919,2.77792 z"
       transform="matrix(0.762679, 0, 0, 0.762679, 171.947, 11.2534)" />
    <path
       sodipodi:type="arc"
       style="fill:#ac7a00;fill-opacity:1;stroke:#ac7a00;stroke-width:1;stroke-miterlimit:4;stroke-dasharray:none;stroke-opacity:1"
       id="path3153"
       sodipodi:cx="27.02158"
       sodipodi:cy="60.139843"
       sodipodi:rx="2.7779195"
       sodipodi:ry="2.7779195"
       d="m 29.799499,60.139843 a 2.7779195,2.7779195 0 0 1 -2.777919,2.77792 2.7779195,2.7779195 0 0 1 -2.77792,-2.77792 2.7779195,2.7779195 0 0 1 2.77792,-2.77792 2.7779195,2.7779195 0 0 1 2.777919,2.77792 z"
       transform="matrix(0.762679, 0, 0, 0.762679, 211.767, 2.06052)" />
    <path
       sodipodi:type="arc"
       style="fill:#ac7a00;fill-opacity:1;stroke:#ac7a00;stroke-width:1;stroke-miterlimit:4;stroke-dasharray:none;stroke-opacity:1"
       id="path3155"
       sodipodi:cx="27.02158"
       sodipodi:cy="60.139843"
       sodipodi:rx="2.7779195"
       sodipodi:ry="2.7779195"
       d="m 29.799499,60.139843 a 2.7779195,2.7779195 0 0 1 -2.777919,2.77792 2.7779195,2.7779195 0 0 1 -2.77792,-2.77792 2.7779195,2.7779195 0 0 1 2.77792,-2.77792 2.7779195,2.7779195 0 0 1 2.777919,2.77792 z"
       transform="matrix(0.762679, 0, 0, 0.762679, 249.587, -3.53593)" />
    <path
       sodipodi:type="arc"
       style="fill:#ac7a00;fill-opacity:1;stroke:#ac7a00;stroke-width:1;stroke-miterlimit:4;stroke-dasharray:none;stroke-opacity:1"
       id="path3157"
       sodipodi:cx="27.02158"
       sodipodi:cy="60.139843"
       sodipodi:rx="2.7779195"
       sodipodi:ry="2.7779195"
       d="m 29.799499,60.139843 a 2.7779195,2.7779195 0 0 1 -2.777919,2.77792 2.7779195,2.7779195 0 0 1 -2.77792,-2.77792 2.7779195,2.7779195 0 0 1 2.77792,-2.77792 2.7779195,2.7779195 0 0 1 2.777919,2.77792 z"
       transform="matrix(0.762679, 0, 0, 0.762679, 291.533, -3.86286)" />
    <path
       style="fill: none; fill-rule: evenodd; stroke: black; stroke-width: 1.5; stroke-linecap: butt; stroke-linejoin: miter; marker-start: url(#TriangleInL); marker-end: url(#TriangleOutL); stroke-miterlimit: 4; stroke-dasharray: none; stroke-opacity: 1;"
       d="M 118.09481,180.60054 L 340.69224,180.60054"
       id="path3167" />
    <path
       style="font-size: 12px; font-style: normal; font-weight: normal; fill: black; fill-opacity: 1; stroke: none; stroke-width: 1px; stroke-linecap: butt; stroke-linejoin: miter; stroke-opacity: 1; font-family: Bitstream Vera Sans;"
       d="M 179.51973,177.00409 L 179.51973,168.41425 L 182.75996,168.41425 C 183.33027,168.41425 183.76582,168.4416 184.0666,168.49628 C 184.48847,168.5666 184.84199,168.70136 185.12715,168.90057 C 185.4123,169.09589 185.64082,169.37128 185.8127,169.72675 C 185.98847,170.08222 186.07636,170.47285 186.07637,170.89862 C 186.07636,171.62909 185.84394,172.24823 185.3791,172.75604 C 184.91425,173.25995 184.07441,173.51191 182.85957,173.5119 L 180.65645,173.5119 L 180.65645,177.00409 L 179.51973,177.00409 M 180.65645,172.49823 L 182.87715,172.49823 C 183.61152,172.49823 184.13301,172.36152 184.4416,172.08807 C 184.75019,171.81464 184.90449,171.42988 184.9045,170.93378 C 184.90449,170.57441 184.81269,170.26777 184.6291,170.01385 C 184.44941,169.75605 184.21113,169.58613 183.91426,169.50409 C 183.72285,169.45332 183.36933,169.42793 182.85371,169.42792 L 180.65645,169.42792 L 180.65645,172.49823 M 187.38887,177.00409 L 187.38887,170.78143 L 188.33809,170.78143 L 188.33809,171.72479 C 188.58027,171.28339 188.80293,170.99238 189.00606,170.85175 C 189.21309,170.71113 189.43965,170.64081 189.68575,170.64081 C 190.04121,170.64081 190.40254,170.7541 190.76973,170.98065 L 190.40645,171.95917 C 190.14863,171.80683 189.89082,171.73066 189.63301,171.73065 C 189.40254,171.73066 189.19551,171.80097 189.01192,171.94159 C 188.82832,172.07831 188.69746,172.26972 188.61934,172.51581 C 188.50215,172.89081 188.44356,173.30097 188.44356,173.74628 L 188.44356,177.00409 L 187.38887,177.00409 M 195.66817,175.00018 L 196.75801,175.13495 C 196.58613,175.77167 196.26777,176.26581 195.80293,176.61737 C 195.33808,176.96893 194.74433,177.14471 194.02168,177.14471 C 193.11152,177.14471 192.38887,176.86542 191.85371,176.30682 C 191.32246,175.74432 191.05684,174.95722 191.05684,173.9455 C 191.05684,172.89862 191.32637,172.08613 191.86543,171.508 C 192.40449,170.92988 193.10371,170.64081 193.96309,170.64081 C 194.79512,170.64081 195.4748,170.92402 196.00215,171.49042 C 196.52949,172.05683 196.79316,172.8537 196.79317,173.88104 C 196.79316,173.94355 196.79121,174.0373 196.78731,174.16229 L 192.14668,174.16229 C 192.18574,174.84589 192.3791,175.36933 192.72676,175.7326 C 193.07441,176.09589 193.50801,176.27753 194.02754,176.27753 C 194.41426,176.27753 194.74433,176.17597 195.01778,175.97284 C 195.29121,175.76972 195.50801,175.4455 195.66817,175.00018 M 192.20528,173.2951 L 195.67989,173.2951 C 195.63301,172.77167 195.50019,172.37909 195.28145,172.11737 C 194.94551,171.71113 194.50996,171.508 193.97481,171.508 C 193.49043,171.508 193.08223,171.67011 192.7502,171.99432 C 192.42207,172.31855 192.24043,172.75214 192.20528,173.2951 M 202.1252,177.00409 L 202.1252,176.21893 C 201.73066,176.83612 201.15059,177.14471 200.38496,177.14471 C 199.88887,177.14471 199.43184,177.008 199.01387,176.73456 C 198.59981,176.46112 198.27754,176.08026 198.04707,175.59198 C 197.82051,175.09979 197.70723,174.53534 197.70723,173.89862 C 197.70723,173.27753 197.81074,172.71503 198.01778,172.21112 C 198.22481,171.70331 198.53535,171.31464 198.94942,171.0451 C 199.36348,170.77558 199.82637,170.64081 200.33809,170.64081 C 200.71309,170.64081 201.04707,170.72089 201.34004,170.88104 C 201.63301,171.0373 201.87129,171.24238 202.05489,171.49628 L 202.05489,168.41425 L 203.10371,168.41425 L 203.10371,177.00409 L 202.1252,177.00409 M 198.79121,173.89862 C 198.79121,174.6955 198.95918,175.2912 199.29512,175.68573 C 199.63106,176.08026 200.02754,176.27753 200.48457,176.27753 C 200.94551,176.27753 201.33613,176.09003 201.65645,175.71503 C 201.98066,175.33612 202.14277,174.75995 202.14278,173.98651 C 202.14277,173.13495 201.97871,172.50995 201.65059,172.11151 C 201.32246,171.71308 200.91816,171.51386 200.4377,171.51385 C 199.96895,171.51386 199.57637,171.70527 199.25996,172.08807 C 198.94746,172.47089 198.79121,173.07441 198.79121,173.89862 M 204.77364,169.62714 L 204.77364,168.41425 L 205.82832,168.41425 L 205.82832,169.62714 L 204.77364,169.62714 M 204.77364,177.00409 L 204.77364,170.78143 L 205.82832,170.78143 L 205.82832,177.00409 L 204.77364,177.00409 M 211.5002,174.72479 L 212.53731,174.85956 C 212.42402,175.5744 212.13301,176.13495 211.66426,176.5412 C 211.19941,176.94354 210.62715,177.14471 209.94746,177.14471 C 209.0959,177.14471 208.41035,176.86737 207.89082,176.31268 C 207.3752,175.75409 207.11739,174.95526 207.11739,173.9162 C 207.11739,173.24433 207.22871,172.65644 207.45137,172.15253 C 207.67403,171.64863 208.01192,171.27167 208.46504,171.02167 C 208.92207,170.76777 209.41816,170.64081 209.95332,170.64081 C 210.6291,170.64081 211.18183,170.81269 211.61153,171.15643 C 212.04121,171.49628 212.3166,171.98066 212.4377,172.60956 L 211.41231,172.76776 C 211.31465,172.3498 211.14082,172.03534 210.89082,171.8244 C 210.64473,171.61347 210.3459,171.508 209.99434,171.508 C 209.46309,171.508 209.03145,171.69941 208.69942,172.08221 C 208.36738,172.46113 208.20137,173.06269 208.20137,173.8869 C 208.20137,174.72284 208.36152,175.33026 208.68184,175.70917 C 209.00215,176.08807 209.42012,176.27753 209.93575,176.27753 C 210.3498,176.27753 210.69551,176.15057 210.97285,175.89667 C 211.25019,175.64276 211.42597,175.25214 211.5002,174.72479 M 215.74239,176.06073 L 215.89473,176.99237 C 215.59785,177.05487 215.33223,177.08612 215.09785,177.08612 C 214.71504,177.08612 214.41817,177.02557 214.20723,176.90448 C 213.99629,176.78339 213.84785,176.62518 213.76192,176.42987 C 213.67598,176.23065 213.63301,175.81464 213.63301,175.18182 L 213.63301,171.60175 L 212.85957,171.60175 L 212.85957,170.78143 L 213.63301,170.78143 L 213.63301,169.24042 L 214.68184,168.6076 L 214.68184,170.78143 L 215.74239,170.78143 L 215.74239,171.60175 L 214.68184,171.60175 L 214.68184,175.24042 C 214.68184,175.5412 214.69942,175.73456 214.73457,175.8205 C 214.77363,175.90643 214.83418,175.97479 214.91621,176.02557 C 215.00215,176.07636 215.12324,176.10175 215.2795,176.10175 C 215.39668,176.10175 215.55098,176.08807 215.74239,176.06073 M 216.77364,169.62714 L 216.77364,168.41425 L 217.82832,168.41425 L 217.82832,169.62714 L 216.77364,169.62714 M 216.77364,177.00409 L 216.77364,170.78143 L 217.82832,170.78143 L 217.82832,177.00409 L 216.77364,177.00409 M 219.04707,173.89276 C 219.04707,172.74042 219.36739,171.88691 220.00801,171.33221 C 220.54317,170.87128 221.19551,170.64081 221.96504,170.64081 C 222.82051,170.64081 223.51972,170.92206 224.0627,171.48456 C 224.60566,172.04316 224.87715,172.81659 224.87715,173.80487 C 224.87715,174.60565 224.75605,175.23651 224.51387,175.69745 C 224.27558,176.15448 223.92597,176.50995 223.46504,176.76385 C 223.00801,177.01776 222.50801,177.14471 221.96504,177.14471 C 221.09395,177.14471 220.38887,176.86542 219.84981,176.30682 C 219.31465,175.74823 219.04707,174.94354 219.04707,173.89276 M 220.13106,173.89276 C 220.13106,174.68964 220.30488,175.28729 220.65254,175.68573 C 221.0002,176.08026 221.4377,176.27753 221.96504,176.27753 C 222.48848,176.27753 222.92402,176.07831 223.27168,175.67987 C 223.61933,175.28143 223.79316,174.67401 223.79317,173.8576 C 223.79316,173.08808 223.61738,172.50605 223.26582,172.11151 C 222.91816,171.71308 222.48457,171.51386 221.96504,171.51385 C 221.4377,171.51386 221.0002,171.71113 220.65254,172.10565 C 220.30488,172.50019 220.13106,173.09589 220.13106,173.89276 M 226.11934,177.00409 L 226.11934,170.78143 L 227.06856,170.78143 L 227.06856,171.6662 C 227.52559,170.98261 228.18574,170.64081 229.04903,170.64081 C 229.42402,170.64081 229.76777,170.70917 230.08028,170.84589 C 230.39668,170.9787 230.63301,171.15449 230.78926,171.37323 C 230.94551,171.59199 231.05488,171.85175 231.11739,172.15253 C 231.15644,172.34784 231.17597,172.68964 231.17598,173.17792 L 231.17598,177.00409 L 230.12129,177.00409 L 230.12129,173.21893 C 230.12129,172.78925 230.08027,172.46894 229.99825,172.258 C 229.91621,172.04316 229.76973,171.87324 229.55879,171.74823 C 229.35176,171.61933 229.10762,171.55488 228.82637,171.55487 C 228.37715,171.55488 227.98848,171.69745 227.66035,171.9826 C 227.33613,172.26777 227.17402,172.80878 227.17403,173.60565 L 227.17403,177.00409 L 226.11934,177.00409 M 236.29707,177.00409 L 236.29707,168.41425 L 237.43379,168.41425 L 237.43379,171.94159 L 241.89864,171.94159 L 241.89864,168.41425 L 243.03535,168.41425 L 243.03535,177.00409 L 241.89864,177.00409 L 241.89864,172.95526 L 237.43379,172.95526 L 237.43379,177.00409 L 236.29707,177.00409 M 244.40645,173.89276 C 244.40645,172.74042 244.72676,171.88691 245.36739,171.33221 C 245.90254,170.87128 246.55488,170.64081 247.32442,170.64081 C 248.17988,170.64081 248.8791,170.92206 249.42207,171.48456 C 249.96504,172.04316 250.23652,172.81659 250.23653,173.80487 C 250.23652,174.60565 250.11543,175.23651 249.87325,175.69745 C 249.63496,176.15448 249.28535,176.50995 248.82442,176.76385 C 248.36738,177.01776 247.86738,177.14471 247.32442,177.14471 C 246.45332,177.14471 245.74824,176.86542 245.20918,176.30682 C 244.67403,175.74823 244.40645,174.94354 244.40645,173.89276 M 245.49043,173.89276 C 245.49043,174.68964 245.66426,175.28729 246.01192,175.68573 C 246.35957,176.08026 246.79707,176.27753 247.32442,176.27753 C 247.84785,176.27753 248.2834,176.07831 248.63106,175.67987 C 248.97871,175.28143 249.15254,174.67401 249.15254,173.8576 C 249.15254,173.08808 248.97676,172.50605 248.6252,172.11151 C 248.27754,171.71308 247.84394,171.51386 247.32442,171.51385 C 246.79707,171.51386 246.35957,171.71113 246.01192,172.10565 C 245.66426,172.50019 245.49043,173.09589 245.49043,173.89276 M 251.467,177.00409 L 251.467,170.78143 L 252.41621,170.78143 L 252.41621,171.72479 C 252.6584,171.28339 252.88106,170.99238 253.08418,170.85175 C 253.29121,170.71113 253.51777,170.64081 253.76387,170.64081 C 254.11934,170.64081 254.48066,170.7541 254.84785,170.98065 L 254.48457,171.95917 C 254.22676,171.80683 253.96895,171.73066 253.71114,171.73065 C 253.48066,171.73066 253.27363,171.80097 253.09004,171.94159 C 252.90645,172.07831 252.77559,172.26972 252.69746,172.51581 C 252.58027,172.89081 252.52168,173.30097 252.52168,173.74628 L 252.52168,177.00409 L 251.467,177.00409 M 255.49239,169.62714 L 255.49239,168.41425 L 256.54707,168.41425 L 256.54707,169.62714 L 255.49239,169.62714 M 255.49239,177.00409 L 255.49239,170.78143 L 256.54707,170.78143 L 256.54707,177.00409 L 255.49239,177.00409 M 257.60176,177.00409 L 257.60176,176.14862 L 261.5627,171.60175 C 261.11348,171.62519 260.71699,171.63691 260.37325,171.6369 L 257.83614,171.6369 L 257.83614,170.78143 L 262.92207,170.78143 L 262.92207,171.4787 L 259.55293,175.42792 L 258.90254,176.14862 C 259.3752,176.11347 259.81856,176.09589 260.23262,176.09589 L 263.10957,176.09589 L 263.10957,177.00409 L 257.60176,177.00409 M 263.76582,173.89276 C 263.76582,172.74042 264.08614,171.88691 264.72676,171.33221 C 265.26192,170.87128 265.91426,170.64081 266.68379,170.64081 C 267.53926,170.64081 268.23847,170.92206 268.78145,171.48456 C 269.32441,172.04316 269.5959,172.81659 269.5959,173.80487 C 269.5959,174.60565 269.4748,175.23651 269.23262,175.69745 C 268.99433,176.15448 268.64472,176.50995 268.18379,176.76385 C 267.72676,177.01776 267.22676,177.14471 266.68379,177.14471 C 265.8127,177.14471 265.10762,176.86542 264.56856,176.30682 C 264.0334,175.74823 263.76582,174.94354 263.76582,173.89276 M 264.84981,173.89276 C 264.84981,174.68964 265.02363,175.28729 265.37129,175.68573 C 265.71895,176.08026 266.15645,176.27753 266.68379,176.27753 C 267.20723,176.27753 267.64277,176.07831 267.99043,175.67987 C 268.33808,175.28143 268.51191,174.67401 268.51192,173.8576 C 268.51191,173.08808 268.33613,172.50605 267.98457,172.11151 C 267.63691,171.71308 267.20332,171.51386 266.68379,171.51385 C 266.15645,171.51386 265.71895,171.71113 265.37129,172.10565 C 265.02363,172.50019 264.84981,173.09589 264.84981,173.89276 M 270.83809,177.00409 L 270.83809,170.78143 L 271.78731,170.78143 L 271.78731,171.6662 C 272.24434,170.98261 272.90449,170.64081 273.76778,170.64081 C 274.14277,170.64081 274.48652,170.70917 274.79903,170.84589 C 275.11543,170.9787 275.35176,171.15449 275.50801,171.37323 C 275.66426,171.59199 275.77363,171.85175 275.83614,172.15253 C 275.87519,172.34784 275.89472,172.68964 275.89473,173.17792 L 275.89473,177.00409 L 274.84004,177.00409 L 274.84004,173.21893 C 274.84004,172.78925 274.79902,172.46894 274.717,172.258 C 274.63496,172.04316 274.48848,171.87324 274.27754,171.74823 C 274.07051,171.61933 273.82637,171.55488 273.54512,171.55487 C 273.0959,171.55488 272.70723,171.69745 272.3791,171.9826 C 272.05488,172.26777 271.89277,172.80878 271.89278,173.60565 L 271.89278,177.00409 L 270.83809,177.00409"
       id="text3171" />
    <path
       style="fill:none;fill-rule:evenodd;stroke:#ac7a00;stroke-width:0.93826902000000001px;stroke-linecap:butt;stroke-linejoin:miter;stroke-opacity:1"
       d="M 300.46913,72.009137 L 319.58879,72.009137"
       id="path3091" />
    <path
       style="fill:none;fill-rule:evenodd;stroke:#ff9100;stroke-width:0.93800002;stroke-linecap:butt;stroke-linejoin:miter;stroke-miterlimit:4;stroke-dasharray:none;stroke-opacity:1"
       d="M 300.46913,86.110661 L 319.58879,86.110661"
       id="path3093" />
    <path
       style="fill:none;fill-rule:evenodd;stroke:#21f7b6;stroke-width:0.93826902px;stroke-linecap:butt;stroke-linejoin:miter;stroke-opacity:1"
       d="M 300.46913,101.26295 L 319.58879,101.26295"
       id="path3095" />
    <path
       sodipodi:type="arc"
       style="fill:#ac7a00;fill-opacity:1;stroke:#ac7a00;stroke-width:1;stroke-miterlimit:4;stroke-dasharray:none;stroke-opacity:1"
       id="path3161"
       sodipodi:cx="27.02158"
       sodipodi:cy="60.139843"
       sodipodi:rx="2.7779195"
       sodipodi:ry="2.7779195"
       d="m 29.799499,60.139843 a 2.7779195,2.7779195 0 0 1 -2.777919,2.77792 2.7779195,2.7779195 0 0 1 -2.77792,-2.77792 2.7779195,2.7779195 0 0 1 2.77792,-2.77792 2.7779195,2.7779195 0 0 1 2.777919,2.77792 z"
       transform="matrix(0.762679,0,0,0.762679,289.522,26.1373)" />
    <path
       sodipodi:type="arc"
       style="fill:#ff9100;fill-opacity:1;stroke:#ff9100;stroke-width:1;stroke-miterlimit:4;stroke-dasharray:none;stroke-opacity:1"
       id="path3165"
       sodipodi:cx="27.02158"
       sodipodi:cy="60.139843"
       sodipodi:rx="2.7779195"
       sodipodi:ry="2.7779195"
       d="m 29.799499,60.139843 a 2.7779195,2.7779195 0 0 1 -2.777919,2.77792 2.7779195,2.7779195 0 0 1 -2.77792,-2.77792 2.7779195,2.7779195 0 0 1 2.77792,-2.77792 2.7779195,2.7779195 0 0 1 2.777919,2.77792 z"
       transform="matrix(0.762679,0,0,0.762679,289.819,40.1376)" />
    <path
       style="fill:none;fill-rule:evenodd;stroke:#2174b6;stroke-width:0.93826902px;stroke-linecap:butt;stroke-linejoin:miter;stroke-opacity:1"
       d="M 300.46913,116.50504 L 319.58879,116.50504"
       id="path4062" />
    <path
       style="fill: none; fill-rule: evenodd; stroke: black; stroke-width: 0.633744; stroke-linecap: butt; stroke-linejoin: miter; marker-start: url(#TriangleInL); marker-end: url(#TriangleOutL); stroke-miterlimit: 4; stroke-dasharray: none; stroke-opacity: 1;"
       d="M 271.87162,218.48126 L 308.94219,218.48126"
       id="path4064" />
    <path
       style="font-size: 12px; font-style: normal; font-weight: normal; fill: black; fill-opacity: 1; stroke: none; stroke-width: 1px; stroke-linecap: butt; stroke-linejoin: miter; stroke-opacity: 1; font-family: Bitstream Vera Sans;"
       d="M 260.80716,227.7982 L 261.70071,227.72008 C 261.74303,228.07815 261.84069,228.37275 261.99368,228.60387 C 262.14993,228.83173 262.39082,229.01728 262.71634,229.16051 C 263.04186,229.30048 263.40807,229.37047 263.81497,229.37047 C 264.1763,229.37047 264.49531,229.31676 264.772,229.20934 C 265.04869,229.10191 265.25377,228.95543 265.38724,228.76988 C 265.52395,228.58108 265.59231,228.376 265.59232,228.15465 C 265.59231,227.93004 265.52721,227.73473 265.397,227.56871 C 265.26679,227.39944 265.05195,227.25784 264.75247,227.14391 C 264.56041,227.06904 264.13561,226.95348 263.47806,226.79723 C 262.8205,226.63772 262.35989,226.48798 262.09622,226.34801 C 261.75442,226.16897 261.49889,225.94762 261.32962,225.68394 C 261.1636,225.41702 261.0806,225.11917 261.0806,224.79039 C 261.0806,224.42907 261.18314,224.09215 261.38821,223.77965 C 261.59329,223.4639 261.89277,223.22464 262.28665,223.06187 C 262.68053,222.89912 263.11835,222.81774 263.60013,222.81773 C 264.13072,222.81774 264.59785,222.904 265.0015,223.07652 C 265.40839,223.2458 265.72089,223.49645 265.939,223.82848 C 266.15709,224.16051 266.27428,224.53649 266.29056,224.95641 L 265.38235,225.02477 C 265.33352,224.5723 265.16751,224.2305 264.88431,223.99937 C 264.60436,223.76826 264.18932,223.6527 263.63919,223.65269 C 263.06627,223.6527 262.64798,223.7585 262.38431,223.97008 C 262.12389,224.17842 261.99368,224.4307 261.99368,224.72691 C 261.99368,224.98408 262.08645,225.19567 262.272,225.36168 C 262.45429,225.5277 262.92955,225.6986 263.69778,225.87437 C 264.46926,226.0469 264.99824,226.19827 265.2847,226.32848 C 265.70136,226.52054 266.00898,226.76468 266.20755,227.0609 C 266.40611,227.35387 266.5054,227.69241 266.5054,228.07652 C 266.5054,228.45738 266.39635,228.81708 266.17825,229.15562 C 265.96015,229.49091 265.64602,229.75296 265.23587,229.94176 C 264.82896,230.1273 264.36998,230.22008 263.85892,230.22008 C 263.21113,230.22008 262.66751,230.12568 262.22806,229.93687 C 261.79186,229.74807 261.44843,229.46487 261.19778,229.08727 C 260.95039,228.70641 260.82018,228.27672 260.80716,227.7982 M 271.0806,229.45836 C 270.75507,229.73505 270.44095,229.93036 270.13821,230.0443 C 269.83873,230.15823 269.51647,230.21519 269.17142,230.21519 C 268.60175,230.21519 268.16393,230.07685 267.85794,229.80016 C 267.55195,229.52021 267.39896,229.16376 267.39896,228.73082 C 267.39896,228.47692 267.45592,228.2458 267.56985,228.03746 C 267.68704,227.82587 267.83841,227.6566 268.02396,227.52965 C 268.21276,227.4027 268.42435,227.30667 268.65872,227.24156 C 268.83125,227.19599 269.09166,227.15205 269.43997,227.10973 C 270.1496,227.02509 270.67206,226.92418 271.00735,226.80699 C 271.01061,226.68655 271.01223,226.61005 271.01224,226.5775 C 271.01223,226.21943 270.92923,225.96715 270.76321,225.82066 C 270.5386,225.6221 270.20494,225.52282 269.76224,225.52281 C 269.34882,225.52282 269.04283,225.59606 268.84427,225.74254 C 268.64895,225.88577 268.5041,226.14131 268.4097,226.50914 L 267.55032,226.39195 C 267.62845,226.02412 267.75703,225.72789 267.93607,225.50328 C 268.1151,225.27542 268.37389,225.10127 268.71243,224.98082 C 269.05097,224.85713 269.44322,224.79528 269.88919,224.79527 C 270.3319,224.79528 270.6916,224.84736 270.96829,224.95152 C 271.24498,225.05569 271.44843,225.18753 271.57864,225.34703 C 271.70885,225.50329 271.79999,225.70185 271.85208,225.94273 C 271.88137,226.09248 271.89602,226.36266 271.89603,226.75328 L 271.89603,227.92516 C 271.89602,228.74221 271.91393,229.25979 271.94974,229.47789 C 271.9888,229.69273 272.06366,229.89944 272.17435,230.09801 L 271.25638,230.09801 C 271.16523,229.91572 271.10663,229.7025 271.0806,229.45836 M 271.00735,227.49547 C 270.68834,227.62568 270.20983,227.73636 269.57181,227.8275 C 269.21048,227.87958 268.95494,227.93818 268.80521,228.00328 C 268.65547,228.06839 268.53991,228.16442 268.45853,228.29137 C 268.37715,228.41507 268.33646,228.55341 268.33646,228.70641 C 268.33646,228.94078 268.42435,229.13609 268.60013,229.29234 C 268.77916,229.44859 269.03958,229.52672 269.38138,229.52672 C 269.71992,229.52672 270.02102,229.45348 270.2847,229.30699 C 270.54837,229.15725 270.74205,228.9538 270.86575,228.69664 C 270.96015,228.49807 271.00735,228.20511 271.00735,227.81773 L 271.00735,227.49547 M 273.26321,230.09801 L 273.26321,224.91246 L 274.04935,224.91246 L 274.04935,225.64 C 274.21211,225.3861 274.42858,225.18265 274.69876,225.02965 C 274.96894,224.8734 275.27656,224.79528 275.62161,224.79527 C 276.00572,224.79528 276.31985,224.87503 276.564,225.03453 C 276.81139,225.19404 276.98554,225.41702 277.08646,225.70348 C 277.49661,225.09801 278.03046,224.79528 278.68802,224.79527 C 279.20234,224.79528 279.59784,224.93851 279.87454,225.22496 C 280.15123,225.50817 280.28957,225.94599 280.28958,226.53844 L 280.28958,230.09801 L 279.41556,230.09801 L 279.41556,226.83141 C 279.41555,226.47985 279.38625,226.22757 279.32767,226.07457 C 279.27232,225.91832 279.16978,225.793 279.02005,225.69859 C 278.8703,225.6042 278.69452,225.557 278.49271,225.55699 C 278.12812,225.557 277.82538,225.67907 277.5845,225.9232 C 277.34361,226.16409 277.22317,226.55146 277.22318,227.08531 L 277.22318,230.09801 L 276.34427,230.09801 L 276.34427,226.72887 C 276.34427,226.33825 276.27265,226.04528 276.12943,225.84996 C 275.98619,225.65465 275.75182,225.557 275.4263,225.55699 C 275.1789,225.557 274.94941,225.6221 274.73782,225.7523 C 274.52949,225.88252 274.37812,226.07295 274.28372,226.32359 C 274.18932,226.57425 274.14212,226.93558 274.14212,227.40758 L 274.14212,230.09801 L 273.26321,230.09801 M 281.62259,232.08531 L 281.62259,224.91246 L 282.42337,224.91246 L 282.42337,225.58629 C 282.61217,225.32262 282.82539,225.12568 283.06302,224.99547 C 283.30065,224.86201 283.58873,224.79528 283.92728,224.79527 C 284.36998,224.79528 284.76061,224.90921 285.09915,225.13707 C 285.43769,225.36494 285.69322,225.6872 285.86575,226.10387 C 286.03827,226.51728 286.12454,226.97138 286.12454,227.46617 C 286.12454,227.99677 286.02851,228.47529 285.83646,228.90172 C 285.64765,229.3249 285.37096,229.65042 285.00638,229.87828 C 284.64505,230.10289 284.26419,230.21519 283.8638,230.21519 C 283.57083,230.21519 283.30716,230.15335 283.07278,230.02965 C 282.84166,229.90595 282.65123,229.7497 282.5015,229.5609 L 282.5015,232.08531 L 281.62259,232.08531 M 282.41849,227.53453 C 282.41849,228.20185 282.55358,228.69501 282.82376,229.01402 C 283.09394,229.33303 283.42109,229.49254 283.80521,229.49254 C 284.19583,229.49254 284.52949,229.32815 284.80618,228.99937 C 285.08613,228.66734 285.2261,228.15465 285.2261,227.46129 C 285.2261,226.80048 285.08938,226.30569 284.81595,225.97691 C 284.54576,225.64814 284.22187,225.48375 283.84427,225.48375 C 283.46992,225.48375 283.13789,225.65954 282.84818,226.01109 C 282.56172,226.3594 282.41849,226.86722 282.41849,227.53453 M 287.16946,230.09801 L 287.16946,222.9398 L 288.04837,222.9398 L 288.04837,230.09801 L 287.16946,230.09801 M 292.96536,228.42809 L 293.87357,228.54039 C 293.73033,229.07099 293.46503,229.48277 293.07767,229.77574 C 292.69029,230.06871 292.1955,230.21519 291.59329,230.21519 C 290.83483,230.21519 290.23261,229.98245 289.78665,229.51695 C 289.34394,229.0482 289.12259,228.39228 289.12259,227.54918 C 289.12259,226.67679 289.3472,225.9997 289.79642,225.51793 C 290.24563,225.03616 290.82832,224.79528 291.54446,224.79527 C 292.23782,224.79528 292.80423,225.03128 293.24368,225.50328 C 293.68313,225.97529 293.90286,226.63935 293.90286,227.49547 C 293.90286,227.54755 293.90123,227.62568 293.89798,227.72984 L 290.03079,227.72984 C 290.06334,228.29951 290.22448,228.7357 290.51419,229.03844 C 290.8039,229.34117 291.16523,229.49254 291.59818,229.49254 C 291.92044,229.49254 292.1955,229.4079 292.42337,229.23863 C 292.65123,229.06936 292.83189,228.79918 292.96536,228.42809 M 290.07962,227.00719 L 292.97513,227.00719 C 292.93606,226.57099 292.82538,226.24384 292.6431,226.02574 C 292.36315,225.6872 292.00019,225.51793 291.55423,225.51793 C 291.15058,225.51793 290.81041,225.65302 290.53372,225.9232 C 290.26028,226.19339 290.10892,226.55472 290.07962,227.00719 M 299.51321,230.09801 L 299.51321,223.78453 L 297.15482,223.78453 L 297.15482,222.9398 L 302.82864,222.9398 L 302.82864,223.78453 L 300.46048,223.78453 L 300.46048,230.09801 L 299.51321,230.09801 M 303.36575,223.95055 L 303.36575,222.9398 L 304.24466,222.9398 L 304.24466,223.95055 L 303.36575,223.95055 M 303.36575,230.09801 L 303.36575,224.91246 L 304.24466,224.91246 L 304.24466,230.09801 L 303.36575,230.09801 M 305.58743,230.09801 L 305.58743,224.91246 L 306.37357,224.91246 L 306.37357,225.64 C 306.53632,225.3861 306.7528,225.18265 307.02298,225.02965 C 307.29316,224.8734 307.60078,224.79528 307.94583,224.79527 C 308.32994,224.79528 308.64407,224.87503 308.88821,225.03453 C 309.13561,225.19404 309.30976,225.41702 309.41068,225.70348 C 309.82083,225.09801 310.35468,224.79528 311.01224,224.79527 C 311.52655,224.79528 311.92206,224.93851 312.19876,225.22496 C 312.47545,225.50817 312.61379,225.94599 312.6138,226.53844 L 312.6138,230.09801 L 311.73978,230.09801 L 311.73978,226.83141 C 311.73977,226.47985 311.71047,226.22757 311.65189,226.07457 C 311.59654,225.91832 311.494,225.793 311.34427,225.69859 C 311.19452,225.6042 311.01874,225.557 310.81693,225.55699 C 310.45234,225.557 310.1496,225.67907 309.90872,225.9232 C 309.66783,226.16409 309.54739,226.55146 309.54739,227.08531 L 309.54739,230.09801 L 308.66849,230.09801 L 308.66849,226.72887 C 308.66848,226.33825 308.59687,226.04528 308.45364,225.84996 C 308.31041,225.65465 308.07604,225.557 307.75052,225.55699 C 307.50312,225.557 307.27363,225.6221 307.06204,225.7523 C 306.85371,225.88252 306.70234,226.07295 306.60794,226.32359 C 306.51354,226.57425 306.46634,226.93558 306.46634,227.40758 L 306.46634,230.09801 L 305.58743,230.09801 M 317.49661,228.42809 L 318.40482,228.54039 C 318.26158,229.07099 317.99628,229.48277 317.60892,229.77574 C 317.22154,230.06871 316.72675,230.21519 316.12454,230.21519 C 315.36608,230.21519 314.76386,229.98245 314.3179,229.51695 C 313.87519,229.0482 313.65384,228.39228 313.65384,227.54918 C 313.65384,226.67679 313.87845,225.9997 314.32767,225.51793 C 314.77688,225.03616 315.35957,224.79528 316.07571,224.79527 C 316.76907,224.79528 317.33548,225.03128 317.77493,225.50328 C 318.21438,225.97529 318.43411,226.63935 318.43411,227.49547 C 318.43411,227.54755 318.43248,227.62568 318.42923,227.72984 L 314.56204,227.72984 C 314.59459,228.29951 314.75573,228.7357 315.04544,229.03844 C 315.33515,229.34117 315.69648,229.49254 316.12943,229.49254 C 316.45169,229.49254 316.72675,229.4079 316.95462,229.23863 C 317.18248,229.06936 317.36314,228.79918 317.49661,228.42809 M 314.61087,227.00719 L 317.50638,227.00719 C 317.46731,226.57099 317.35663,226.24384 317.17435,226.02574 C 316.8944,225.6872 316.53144,225.51793 316.08548,225.51793 C 315.68183,225.51793 315.34166,225.65302 315.06497,225.9232 C 314.79153,226.19339 314.64017,226.55472 314.61087,227.00719"
       id="text4066" />
    <text
       xml:space="preserve"
       style="font-style:normal;font-variant:normal;font-weight:normal;font-stretch:normal;font-size:18.66666603px;line-height:1.25;font-family:'Latin Modern Math';-inkscape-font-specification:'Latin Modern Math';letter-spacing:0px;word-spacing:0px;fill:#000000;fill-opacity:1;stroke:none"
       x="331.76984"
       y="75.691322"
       id="text934"><tspan
         sodipodi:role="line"
         id="tspan932"
         x="331.76984"
         y="75.691322"
         style="font-style:normal;font-variant:normal;font-weight:normal;font-stretch:normal;font-size:12px;font-family:Arial;-inkscape-font-specification:Arial">Predicted Output</tspan></text>
    <text
       id="text940"
       y="90.591072"
       x="332.02237"
       style="font-style:normal;font-variant:normal;font-weight:normal;font-stretch:normal;font-size:18.66666603px;line-height:1.25;font-family:'Latin Modern Math';-inkscape-font-specification:'Latin Modern Math';letter-spacing:0px;word-spacing:0px;fill:#000000;fill-opacity:1;stroke:none"
       xml:space="preserve"><tspan
         style="font-style:normal;font-variant:normal;font-weight:normal;font-stretch:normal;font-size:12px;font-family:Arial;-inkscape-font-specification:Arial"
         y="90.591072"
         x="332.02237"
         id="tspan938"
         sodipodi:role="line">Measured Output</tspan></text>
    <text
       xml:space="preserve"
       style="font-style:normal;font-variant:normal;font-weight:normal;font-stretch:normal;font-size:18.66666603px;line-height:1.25;font-family:'Latin Modern Math';-inkscape-font-specification:'Latin Modern Math';letter-spacing:0px;word-spacing:0px;fill:#000000;fill-opacity:1;stroke:none"
       x="331.76984"
       y="105.49081"
       id="text944"><tspan
         sodipodi:role="line"
         id="tspan942"
         x="331.76984"
         y="105.49081"
         style="font-style:normal;font-variant:normal;font-weight:normal;font-stretch:normal;font-size:12px;font-family:Arial;-inkscape-font-specification:Arial">Predicted Control Input</tspan></text>
    <text
       id="text948"
       y="120.64311"
       x="331.76984"
       style="font-style:normal;font-variant:normal;font-weight:normal;font-stretch:normal;font-size:18.66666603px;line-height:1.25;font-family:'Latin Modern Math';-inkscape-font-specification:'Latin Modern Math';letter-spacing:0px;word-spacing:0px;fill:#000000;fill-opacity:1;stroke:none"
       xml:space="preserve"><tspan
         style="font-style:normal;font-variant:normal;font-weight:normal;font-stretch:normal;font-size:12px;font-family:Arial;-inkscape-font-specification:Arial"
         y="120.64311"
         x="331.76984"
         id="tspan946"
         sodipodi:role="line">Past Control Input</tspan></text>
  </g>
</svg>
