<?xml version="1.0" encoding="UTF-8" standalone="no"?>
<!-- Created with Inkscape (http://www.inkscape.org/) -->

<svg
   xmlns:dc="http://purl.org/dc/elements/1.1/"
   xmlns:cc="http://creativecommons.org/ns#"
   xmlns:rdf="http://www.w3.org/1999/02/22-rdf-syntax-ns#"
   xmlns:svg="http://www.w3.org/2000/svg"
   xmlns="http://www.w3.org/2000/svg"
   xmlns:sodipodi="http://sodipodi.sourceforge.net/DTD/sodipodi-0.dtd"
   xmlns:inkscape="http://www.inkscape.org/namespaces/inkscape"
   version="1.1"
   id="svg2"
   xml:space="preserve"
   width="264.58267"
   height="249.93666"
   viewBox="0 0 264.58267 249.93666"
   sodipodi:docname="mpc_robot.svg"
   inkscape:version="0.92.2 5c3e80d, 2017-08-06"><metadata
     id="metadata8"><rdf:RDF><cc:Work
         rdf:about=""><dc:format>image/svg+xml</dc:format><dc:type
           rdf:resource="http://purl.org/dc/dcmitype/StillImage" /><dc:title></dc:title></cc:Work></rdf:RDF></metadata><defs
     id="defs6"><clipPath
       clipPathUnits="userSpaceOnUse"
       id="clipPath38"><path
         d="M 214.89,573.375 H 413.327 V 760.852 H 214.89 Z"
         id="path36"
         inkscape:connector-curvature="0" /></clipPath><clipPath
       clipPathUnits="userSpaceOnUse"
       id="clipPath60"><path
         d="M 214.89,573.375 H 413.327 V 760.852 H 214.89 Z"
         id="path58"
         inkscape:connector-curvature="0" /></clipPath></defs><sodipodi:namedview
     pagecolor="#ffffff"
     bordercolor="#666666"
     borderopacity="1"
     objecttolerance="10"
     gridtolerance="10"
     guidetolerance="10"
     inkscape:pageopacity="0"
     inkscape:pageshadow="2"
     inkscape:window-width="1280"
     inkscape:window-height="685"
     id="namedview4"
     showgrid="false"
     inkscape:zoom="0.84096496"
     inkscape:cx="116.84609"
     inkscape:cy="142.39064"
     inkscape:window-x="0"
     inkscape:window-y="1"
     inkscape:window-maximized="1"
     inkscape:current-layer="g12" /><g
     id="g10"
     inkscape:groupmode="layer"
     inkscape:label="Hoy et al. - 2015 - Algorithms for collision-free navigation of mobile"
     transform="matrix(1.3333333,0,0,-1.3333333,-286.51999,1014.4693)"><g
       id="g12"><g
         id="g22"
         transform="translate(299.565,573.57)"><path
           d="M 0,0 C 10.566,0 19.126,8.558 19.126,19.108 V 67.413 C 19.126,77.98 10.566,86.527 0,86.527 h -48.295 c -10.56,0 -19.125,-8.547 -19.125,-19.114 V 19.108 C -67.42,8.558 -58.855,0 -48.295,0 H 0"
           style="fill:#ffffff;fill-opacity:1;fill-rule:evenodd;stroke:none"
           id="path24"
           inkscape:connector-curvature="0" /></g><path
         d="m 299.565,573.57 c 10.566,0 19.126,8.558 19.126,19.108 v 48.305 c 0,10.567 -8.56,19.114 -19.126,19.114 H 251.27 c -10.56,0 -19.125,-8.547 -19.125,-19.114 v -48.305 c 0,-10.55 8.565,-19.108 19.125,-19.108 z"
         style="fill:none;stroke:#231f20;stroke-width:0.34099999;stroke-linecap:round;stroke-linejoin:round;stroke-miterlimit:10;stroke-dasharray:5.1118, 3.0671;stroke-dashoffset:0;stroke-opacity:1"
         id="path26"
         inkscape:connector-curvature="0" /><path
         d="m 251.27,591.684 h 48.301 v 48.301 H 251.27 Z"
         style="fill:#ededee;fill-opacity:1;fill-rule:nonzero;stroke:none"
         id="path28"
         inkscape:connector-curvature="0" /><path
         d="m 251.27,639.985 h 48.301 V 591.684 H 251.27 Z"
         style="fill:none;stroke:#231f20;stroke-width:0.34099999;stroke-linecap:round;stroke-linejoin:round;stroke-miterlimit:10;stroke-dasharray:none;stroke-opacity:1"
         id="path30"
         inkscape:connector-curvature="0" /><g
         id="g32"><g
           id="g34"
           clip-path="url(#clipPath38)"><g
             id="g40"
             transform="translate(396.576,694.047)"><path
               d="m 0,0 c 7.199,7.728 6.773,19.824 -0.955,27.024 l -35.326,32.942 c -7.709,7.199 -19.806,6.771 -27.023,-0.938 L -96.228,23.702 c -7.216,-7.727 -6.79,-19.824 0.937,-27.023 l 35.327,-32.942 c 7.72,-7.2 19.824,-6.789 27.022,0.937 L 0,0"
               style="fill:#ffffff;fill-opacity:1;fill-rule:evenodd;stroke:none"
               id="path42"
               inkscape:connector-curvature="0" /></g><path
             d="m 408.063,681.384 c 7.199,7.722 6.773,19.819 -0.954,27.019 l -35.326,32.947 c -7.709,7.193 -19.808,6.772 -27.024,-0.937 l -32.925,-35.332 c -7.217,-7.722 -6.789,-19.819 0.938,-27.018 l 35.327,-32.948 c 7.726,-7.199 19.822,-6.783 27.022,0.939 z"
             style="fill:none;stroke:#231f20;stroke-width:0.34099999;stroke-linecap:round;stroke-linejoin:round;stroke-miterlimit:10;stroke-dasharray:5.1118, 3.0671;stroke-dashoffset:0;stroke-opacity:1"
             id="path44"
             inkscape:connector-curvature="0" /></g></g><g
         id="g46"
         transform="translate(361.871,658.411)"><path
           d="M 0,0 32.941,35.327 -2.385,68.268 -35.327,32.942 0,0"
           style="fill:#ededee;fill-opacity:1;fill-rule:evenodd;stroke:none"
           id="path48"
           inkscape:connector-curvature="0" /></g><g
         id="g50"
         transform="translate(361.871,658.411)"><path
           d="M 0,0 32.941,35.327 -2.385,68.268 -35.327,32.942 Z"
           style="fill:none;stroke:#231f20;stroke-width:0.34099999;stroke-linecap:round;stroke-linejoin:round;stroke-miterlimit:10;stroke-dasharray:none;stroke-opacity:1"
           id="path52"
           inkscape:connector-curvature="0" /></g><g
         id="g54"><g
           id="g56"
           clip-path="url(#clipPath60)"><g
             id="g62"
             transform="translate(275.864,663.99)"><path
               d="m 0,0 c 10.195,-2.728 20.69,3.323 23.419,13.518 l 12.496,46.658 c 2.74,10.195 -3.311,20.673 -13.522,23.413 L -24.249,96.084 C -34.46,98.825 -44.938,92.763 -47.667,82.568 L -60.17,35.909 c -2.733,-10.194 3.317,-20.672 13.512,-23.418 L 0,0"
               style="fill:#ffffff;fill-opacity:1;fill-rule:evenodd;stroke:none"
               id="path64"
               inkscape:connector-curvature="0" /></g><path
             d="m 275.864,663.99 c 10.195,-2.727 20.69,3.323 23.419,13.518 l 12.495,46.658 c 2.741,10.195 -3.311,20.673 -13.522,23.413 l -46.642,12.496 c -10.211,2.74 -20.688,-3.322 -23.417,-13.517 l -12.503,-46.659 c -2.734,-10.193 3.317,-20.671 13.512,-23.418 z"
             style="fill:none;stroke:#231f20;stroke-width:0.34099999;stroke-linecap:round;stroke-linejoin:round;stroke-miterlimit:10;stroke-dasharray:5.1118, 3.0671;stroke-dashoffset:0;stroke-opacity:1"
             id="path66"
             inkscape:connector-curvature="0" /></g></g><g
         id="g68"
         transform="translate(233.893,693.992)"><path
           d="M 0,0 46.658,-12.507 59.166,34.151 12.507,46.648 0,0"
           style="fill:#ededee;fill-opacity:1;fill-rule:evenodd;stroke:none"
           id="path70"
           inkscape:connector-curvature="0" /></g><g
         id="g72"
         transform="translate(233.893,693.992)"><path
           d="M 0,0 46.658,-12.507 59.166,34.151 12.507,46.648 Z"
           style="fill:none;stroke:#231f20;stroke-width:0.34099999;stroke-linecap:round;stroke-linejoin:round;stroke-miterlimit:10;stroke-dasharray:none;stroke-opacity:1"
           id="path74"
           inkscape:connector-curvature="0" /></g><g
         id="g76"
         transform="translate(312.595,715.891)"><path
           d="M 0,0 C 0,1.109 0.908,2.019 2.018,2.019 3.122,2.019 4.031,1.109 4.031,0 4.031,-1.109 3.122,-2.014 2.018,-2.014 0.908,-2.014 0,-1.109 0,0"
           style="fill:#f3f3f3;fill-opacity:1;fill-rule:evenodd;stroke:none"
           id="path78"
           inkscape:connector-curvature="0" /></g><g
         id="g80"
         transform="translate(312.616,715.78)"><path
           d="m 0,0 c 0,1.109 0.911,2.019 2.013,2.019 1.11,0 2.02,-0.91 2.02,-2.019 0,-1.103 -0.91,-2.014 -2.02,-2.014 C 0.911,-2.014 0,-1.103 0,0"
           style="fill:#ededee;fill-opacity:1;fill-rule:nonzero;stroke:none"
           id="path82"
           inkscape:connector-curvature="0" /></g><g
         id="g84"
         transform="translate(312.616,715.78)"><path
           d="m 0,0 c 0,1.109 0.911,2.019 2.013,2.019 1.11,0 2.02,-0.91 2.02,-2.019 0,-1.103 -0.91,-2.014 -2.02,-2.014 C 0.911,-2.014 0,-1.103 0,0 Z"
           style="fill:none;stroke:#231f20;stroke-width:0.34099999;stroke-linecap:round;stroke-linejoin:round;stroke-miterlimit:10;stroke-dasharray:none;stroke-opacity:1"
           id="path86"
           inkscape:connector-curvature="0" /></g><g
         id="g88"
         transform="translate(308.234,708.125)"><path
           d="M 0,0 C 0,1.105 0.893,2.013 2.014,2.013 3.124,2.013 4.016,1.105 4.016,0 4.016,-1.109 3.124,-2.018 2.014,-2.018 0.893,-2.018 0,-1.109 0,0"
           style="fill:#ededee;fill-opacity:1;fill-rule:evenodd;stroke:none"
           id="path90"
           inkscape:connector-curvature="0" /></g><g
         id="g92"
         transform="translate(308.234,708.125)"><path
           d="M 0,0 C 0,1.105 0.893,2.013 2.014,2.013 3.124,2.013 4.016,1.105 4.016,0 4.016,-1.109 3.124,-2.018 2.014,-2.018 0.893,-2.018 0,-1.109 0,0 Z"
           style="fill:none;stroke:#231f20;stroke-width:0.34099999;stroke-linecap:round;stroke-linejoin:round;stroke-miterlimit:10;stroke-dasharray:none;stroke-opacity:1"
           id="path94"
           inkscape:connector-curvature="0" /></g><g
         id="g96"
         transform="translate(303.864,696.561)"><path
           d="M 0,0 C 0,1.103 0.91,2.002 2.014,2.002 3.123,2.002 4.033,1.103 4.033,0 4.033,-1.126 3.123,-2.02 2.014,-2.02 0.91,-2.02 0,-1.126 0,0"
           style="fill:#ededee;fill-opacity:1;fill-rule:evenodd;stroke:none"
           id="path98"
           inkscape:connector-curvature="0" /></g><g
         id="g100"
         transform="translate(303.864,696.561)"><path
           d="M 0,0 C 0,1.103 0.91,2.002 2.014,2.002 3.123,2.002 4.033,1.103 4.033,0 4.033,-1.126 3.123,-2.02 2.014,-2.02 0.91,-2.02 0,-1.126 0,0 Z"
           style="fill:none;stroke:#231f20;stroke-width:0.34099999;stroke-linecap:round;stroke-linejoin:round;stroke-miterlimit:10;stroke-dasharray:none;stroke-opacity:1"
           id="path102"
           inkscape:connector-curvature="0" /></g><g
         id="g104"
         transform="translate(323.716,646.014)"><path
           d="M 0,0 C 0,1.12 0.898,2.013 2.019,2.013 3.128,2.013 4.021,1.12 4.021,0 4.021,-1.109 3.128,-2.002 2.019,-2.002 0.898,-2.002 0,-1.109 0,0"
           style="fill:#ededee;fill-opacity:1;fill-rule:evenodd;stroke:none"
           id="path106"
           inkscape:connector-curvature="0" /></g><g
         id="g108"
         transform="translate(323.888,646.18)"><path
           d="M 0,0 C 0,1.122 0.893,2.019 2.013,2.019 3.122,2.019 4.016,1.122 4.016,0 4.016,-1.109 3.122,-2.002 2.013,-2.002 0.893,-2.002 0,-1.109 0,0 Z"
           style="fill:none;stroke:#231f20;stroke-width:0.34099999;stroke-linecap:round;stroke-linejoin:round;stroke-miterlimit:10;stroke-dasharray:none;stroke-opacity:1"
           id="path110"
           inkscape:connector-curvature="0" /></g><g
         id="g112"
         transform="translate(315.667,720.473)"><path
           d="M 0,0 C 0,1.126 0.894,2.019 2.014,2.019 3.123,2.019 4.016,1.126 4.016,0 4.016,-1.105 3.123,-2.002 2.014,-2.002 0.894,-2.002 0,-1.105 0,0"
           style="fill:#ededee;fill-opacity:1;fill-rule:evenodd;stroke:none"
           id="path114"
           inkscape:connector-curvature="0" /></g><g
         id="g116"
         transform="translate(315.667,720.473)"><path
           d="M 0,0 C 0,1.126 0.894,2.019 2.014,2.019 3.123,2.019 4.016,1.126 4.016,0 4.016,-1.105 3.123,-2.002 2.014,-2.002 0.894,-2.002 0,-1.105 0,0 Z"
           style="fill:none;stroke:#231f20;stroke-width:0.34099999;stroke-linecap:round;stroke-linejoin:round;stroke-miterlimit:10;stroke-dasharray:none;stroke-opacity:1"
           id="path118"
           inkscape:connector-curvature="0" /></g><g
         id="g120"
         transform="translate(309.45,663.347)"><path
           d="M 0,0 C 0,1.104 0.909,2.002 2.014,2.002 3.122,2.002 4.033,1.104 4.033,0 4.033,-1.126 3.122,-2.02 2.014,-2.02 0.909,-2.02 0,-1.126 0,0"
           style="fill:#ededee;fill-opacity:1;fill-rule:evenodd;stroke:none"
           id="path122"
           inkscape:connector-curvature="0" /></g><g
         id="g124"
         transform="translate(309.45,663.347)"><path
           d="M 0,0 C 0,1.104 0.909,2.002 2.014,2.002 3.122,2.002 4.033,1.104 4.033,0 4.033,-1.126 3.122,-2.02 2.014,-2.02 0.909,-2.02 0,-1.126 0,0 Z"
           style="fill:none;stroke:#231f20;stroke-width:0.34099999;stroke-linecap:round;stroke-linejoin:round;stroke-miterlimit:10;stroke-dasharray:none;stroke-opacity:1"
           id="path126"
           inkscape:connector-curvature="0" /></g><g
         id="g128"
         transform="translate(302.123,681.075)"><path
           d="M 0,0 C 0,1.104 0.897,2.002 2.018,2.002 3.128,2.002 4.021,1.104 4.021,0 4.021,-1.126 3.128,-2.019 2.018,-2.019 0.897,-2.019 0,-1.126 0,0"
           style="fill:#ededee;fill-opacity:1;fill-rule:evenodd;stroke:none"
           id="path130"
           inkscape:connector-curvature="0" /></g><g
         id="g132"
         transform="translate(302.123,681.075)"><path
           d="M 0,0 C 0,1.104 0.897,2.002 2.018,2.002 3.128,2.002 4.021,1.104 4.021,0 4.021,-1.126 3.128,-2.019 2.018,-2.019 0.897,-2.019 0,-1.126 0,0 Z"
           style="fill:none;stroke:#231f20;stroke-width:0.34099999;stroke-linecap:round;stroke-linejoin:round;stroke-miterlimit:10;stroke-dasharray:none;stroke-opacity:1"
           id="path134"
           inkscape:connector-curvature="0" /></g><g
         id="g136"
         transform="translate(333.855,624.882)"><path
           d="M 0,0 C 4.248,5.917 12.496,7.271 18.415,3.017 24.333,-1.238 25.681,-9.48 21.432,-15.399 17.178,-21.316 8.93,-22.671 3.012,-18.416 -2.906,-14.161 -4.255,-5.919 0,0"
           style="fill:none;stroke:#231f20;stroke-width:1.13600004;stroke-linecap:butt;stroke-linejoin:miter;stroke-miterlimit:4;stroke-dasharray:none;stroke-opacity:1"
           id="path138"
           inkscape:connector-curvature="0" /></g><g
         id="g140"
         transform="translate(354.914,630.079)"><path
           d="m 0,0 c 0.906,0.499 2.037,0.166 2.531,-0.738 l 4.005,-7.294 c 0.498,-0.903 0.165,-2.03 -0.739,-2.528 -0.904,-0.501 -2.035,-0.168 -2.529,0.736 L -0.737,-2.53 C -1.236,-1.625 -0.908,-0.498 0,0 Z"
           style="fill:none;stroke:#231f20;stroke-width:0.90899998;stroke-linecap:butt;stroke-linejoin:miter;stroke-miterlimit:4;stroke-dasharray:none;stroke-opacity:1"
           id="path142"
           inkscape:connector-curvature="0" /><g
           id="g144"
           transform="translate(-26.873,-14.782)"><path
             d="m 0,0 c 0.906,0.498 2.037,0.172 2.536,-0.737 l 4.003,-7.29 c 0.495,-0.909 0.167,-2.034 -0.737,-2.535 -0.91,-0.492 -2.035,-0.166 -2.534,0.74 L -0.736,-2.53 C -1.231,-1.626 -0.904,-0.495 0,0 Z"
             style="fill:none;stroke:#231f20;stroke-width:0.90899998;stroke-linecap:butt;stroke-linejoin:miter;stroke-miterlimit:4;stroke-dasharray:none;stroke-opacity:1"
             id="path146"
             inkscape:connector-curvature="0" /></g></g><g
         id="g148"
         transform="translate(337.881,629.135)"><path
           d="M 0,0 C -14.287,25.172 -33.506,34.113 -33.922,53.737 -34,74.343 -22.352,87.338 -20.29,91.298"
           style="fill:none;stroke:#231f20;stroke-width:0.454;stroke-linecap:butt;stroke-linejoin:miter;stroke-miterlimit:4;stroke-dasharray:none;stroke-opacity:1"
           id="path150"
           inkscape:connector-curvature="0" /></g><g
         id="g152"
         transform="translate(317.336,719.951)"><path
           d="M 0,0 0.196,-0.61 0.528,1.011 -0.609,-0.193 0,0"
           style="fill:#231f20;fill-opacity:1;fill-rule:evenodd;stroke:none"
           id="path154"
           inkscape:connector-curvature="0" /></g><g
         id="g156"
         transform="translate(317.336,719.951)"><path
           d="M 0,0 0.196,-0.61 0.528,1.011 -0.609,-0.193 Z"
           style="fill:none;stroke:#231f20;stroke-width:0.30000001;stroke-linecap:butt;stroke-linejoin:miter;stroke-miterlimit:4;stroke-dasharray:none;stroke-opacity:1"
           id="path158"
           inkscape:connector-curvature="0" /></g></g></g></svg>